<?xml version="1.0" encoding="utf-8"?>
<!-- Generator: Adobe Illustrator 24.0.1, SVG Export Plug-In . SVG Version: 6.00 Build 0)  -->
<svg version="1.0" id="Layer_1" xmlns="http://www.w3.org/2000/svg" xmlns:xlink="http://www.w3.org/1999/xlink" x="0px" y="0px"
	 viewBox="0 0 124.29 105.27" style="enable-background:new 0 0 124.29 105.27;" xml:space="preserve">
<style type="text/css">
	.st0{fill:#01B1CA;}
</style>
<g>
	<path class="st0" d="M20.1,55.6h99.38c-2.65,3.01-6.08,5.75-9.95,8.33c-9.34,7.18-24.5,8.53-24.5,8.53H5.98l-5.14-7.17l2.43-2.34
		H30.3c1.34,0,2.43-0.97,2.43-2.17v-0.92c0-1.21-1.09-2.18-2.43-2.18h-1.45c0,0-12.55,0.14-20.22,0.12l2.49-2.39l8.98,0.08V55.6z"/>
	<path class="st0" d="M123.34,49.86c0,0,0,0-0.13,0.27c-0.62,1.26-1.37,2.5-2.26,3.68H25.69l1.68-4.76L123.34,49.86z"/>
	<polygon class="st0" points="55.56,42.5 55.93,48.24 30.35,48.24 31.16,42.95 	"/>
	<polygon class="st0" points="65.27,42.33 65.27,48.24 57.28,48.24 57.28,42.48 	"/>
	<polygon class="st0" points="79.3,48.24 67.84,48.24 67.84,42.28 76.87,42.12 	"/>
	<polygon class="st0" points="93.02,48.24 81.91,48.24 78.78,42.07 86.72,41.93 	"/>
	<polygon class="st0" points="33.32,39.71 33.32,41.86 83,40.79 76.37,35.92 	"/>
</g>
</svg>
