<?xml version="1.0" encoding="utf-8"?>
<!-- Generator: Adobe Illustrator 24.0.1, SVG Export Plug-In . SVG Version: 6.00 Build 0)  -->
<svg version="1.0" id="Layer_1" xmlns="http://www.w3.org/2000/svg" xmlns:xlink="http://www.w3.org/1999/xlink" x="0px" y="0px"
	 viewBox="0 0 114.4 105.27" style="enable-background:new 0 0 114.4 105.27;" xml:space="preserve">
<style type="text/css">
	.st0{opacity:0.66;fill:#01B1CA;}
	.st1{fill:#01B1CA;}
</style>
<g>
	<path class="st0" d="M56.39,57.57v23.07c-0.43,0.02-0.86,0.03-1.29,0.03c-0.41,0-0.83-0.01-1.24-0.03V57.57H56.39z"/>
	<path class="st1" d="M83.29,46.49c0,0.3-0.01,0.59-0.03,0.89c-0.14-2.55-3.09-4.58-6.72-4.58c-3.71,0-6.72,2.13-6.72,4.77
		c0-2.63-3.01-4.77-6.72-4.77c-3.71,0-6.72,2.13-6.72,4.77c0,0.14,0.01,0.28,0.03,0.42h-2.67c0.02-0.14,0.03-0.29,0.03-0.44
		c0-2.64-3.02-4.78-6.74-4.78c-3.72,0-6.74,2.14-6.74,4.78c0-2.64-3.02-4.78-6.74-4.78c-3.37,0-6.16,1.75-6.66,4.04
		c0-0.11,0-0.21,0-0.32c0-10.76,11.96-19.53,26.97-19.99c0.41-0.01,0.82-0.02,1.24-0.02c0.43,0,0.86,0.01,1.29,0.02
		C71.36,26.98,83.29,35.74,83.29,46.49z"/>
	<path class="st1" d="M56.39,23.03v30.29c0,0.7-0.57,1.27-1.27,1.27h0c-0.7,0-1.27-0.57-1.27-1.27V23.03c0-0.7,0.57-1.27,1.27-1.27
		h0C55.82,21.76,56.39,22.33,56.39,23.03z"/>
	<path class="st1" d="M56.39,57.57v23.38c0,3.32-2.69,6.01-6.01,6.01c-3.08,0-5.61-2.31-5.97-5.29c-0.06-0.54,0.22-1.08,0.73-1.3
		c0.6-0.25,1.13,0.1,1.44,0.41c0.2,0.19,0.32,0.45,0.36,0.72c0.26,1.66,1.7,2.93,3.43,2.93c1.79,0,3.26-1.35,3.45-3.08
		c0.02-0.13,0.02-0.27,0.02-0.4V57.57H56.39z"/>
	<rect x="53.85" y="50.41" class="st1" width="2.53" height="9.4"/>
</g>
</svg>
