<?xml version="1.0" encoding="utf-8"?>
<!-- Generator: Adobe Illustrator 24.0.1, SVG Export Plug-In . SVG Version: 6.00 Build 0)  -->
<svg version="1.0" id="Layer_1" xmlns="http://www.w3.org/2000/svg" xmlns:xlink="http://www.w3.org/1999/xlink" x="0px" y="0px"
	 viewBox="0 0 114.4 105.27" style="enable-background:new 0 0 114.4 105.27;" xml:space="preserve">
<style type="text/css">
	.st0{fill:#01B1CA;}
</style>
<g>
	<polygon class="st0" points="38.34,44.87 38.34,84.25 22.38,84.25 22.38,62.84 36.93,62.84 36.93,61.08 22.38,61.08 22.38,53.53 
		36.93,53.53 36.93,51.77 22.38,51.77 22.38,44.87 	"/>
	<polygon class="st0" points="72.52,42.86 72.52,44.62 87.05,44.62 87.05,51.77 72.49,51.77 72.49,53.53 87.05,53.53 87.05,61.08 
		72.49,61.08 72.49,62.84 87.05,62.84 87.05,84.25 71.09,84.25 71.09,29.84 87.05,29.84 87.05,42.86 	"/>
	<path class="st0" d="M38.33,17.89v66.36H51.2v-8.16h6.12v8.16h13.77V17.89H38.33z M47.58,62.84h-5.54v-1.76h5.54V62.84z
		 M47.58,53.53h-5.54v-1.76h5.54V53.53z M47.58,44.62h-5.54v-1.76h5.54V44.62z M47.58,35.43h-5.54v-1.76h5.54V35.43z M47.58,26.52
		h-5.54v-1.76h5.54V26.52z M67.82,62.84H51.2v-1.76h16.62V62.84z M67.82,53.53H51.2v-1.76h16.62V53.53z M67.82,44.62H51.2v-1.76
		h16.62V44.62z M67.82,35.43H51.2v-1.76h16.62V35.43z M67.82,26.52H51.2v-1.76h16.62V26.52z"/>
</g>
</svg>
