<?xml version="1.0" encoding="utf-8"?>
<!-- Generator: Adobe Illustrator 24.0.1, SVG Export Plug-In . SVG Version: 6.00 Build 0)  -->
<svg version="1.0" id="Layer_1" xmlns="http://www.w3.org/2000/svg" xmlns:xlink="http://www.w3.org/1999/xlink" x="0px" y="0px"
	 viewBox="0 0 100 81" style="enable-background:new 0 0 100 81;" xml:space="preserve">
<style type="text/css">
	.st0{fill:#01B1CA;}
</style>
<g>
	<path class="st0" d="M90.53,31.71v-5.64c0-2.13-1.72-3.85-3.85-3.85h-8.64l-1.61-6.77l-28.46,6.77h-9.83l37.77-8.98L74.6,7.75
		c-0.49-2.07-2.57-3.35-4.64-2.86L15.54,17.83c-2.07,0.5-3.35,2.57-2.86,4.64l1.31,5.49l13.1-3.11c-0.13,0.38-0.2,0.79-0.2,1.22
		v1.16l-12.38,2.95l6.67,28.02c0.49,2.07,2.57,3.34,4.64,2.85l1.07-0.25v1.99c0,2.13,1.72,3.85,3.85,3.85h55.94
		c2.13,0,3.85-1.72,3.85-3.85V36.55H26.89v-4.84H90.53z M79.06,51.94c2.76,0,4.99,2.23,4.99,4.99c0,2.75-2.23,4.99-4.99,4.99
		c-2.75,0-4.99-2.24-4.99-4.99C74.07,54.17,76.31,51.94,79.06,51.94z M32.14,47.91h25.74v2.27H32.14V47.91z M26.89,43.88l-3.52,0.84
		l-0.53-2.22l4.05-0.96V43.88z"/>
</g>
</svg>
