<?xml version="1.0" encoding="utf-8"?>
<!-- Generator: Adobe Illustrator 24.0.1, SVG Export Plug-In . SVG Version: 6.00 Build 0)  -->
<svg version="1.0" id="Layer_1" xmlns="http://www.w3.org/2000/svg" xmlns:xlink="http://www.w3.org/1999/xlink" x="0px" y="0px"
	 viewBox="0 0 122 105" style="enable-background:new 0 0 122 105;" xml:space="preserve">
<style type="text/css">
	.st0{fill:#FFFFFF;}
</style>
<g>
	<g>
		<g>
			<path class="st0" d="M41.63,44.07h-0.69c-0.75,0-1.35-0.61-1.35-1.35v-14.3c0-0.75,0.61-1.35,1.35-1.35h0.69
				c0.75,0,1.35,0.61,1.35,1.35v14.3C42.99,43.46,42.38,44.07,41.63,44.07z"/>
			<path class="st0" d="M46.67,44.07h-0.69c-0.75,0-1.35-0.61-1.35-1.35v-14.3c0-0.75,0.61-1.35,1.35-1.35h0.69
				c0.75,0,1.35,0.61,1.35,1.35v14.3C48.02,43.46,47.41,44.07,46.67,44.07z"/>
			<path class="st0" d="M34.59,28.1l-0.55-0.42c-0.59-0.46-0.7-1.31-0.24-1.9l5.66-7.31c0.46-0.59,1.31-0.7,1.9-0.24l0.55,0.42
				c0.59,0.46,0.7,1.31,0.24,1.9l-5.66,7.31C36.03,28.45,35.18,28.56,34.59,28.1z"/>
			<path class="st0" d="M52.88,28.1l0.55-0.42c0.59-0.46,0.7-1.31,0.24-1.9l-5.66-7.31c-0.46-0.59-1.31-0.7-1.9-0.24l-0.55,0.42
				c-0.59,0.46-0.7,1.31-0.24,1.9l5.66,7.31C51.43,28.45,52.29,28.56,52.88,28.1z"/>
			<path class="st0" d="M46.46,32.86h-5.3c-0.86,0-1.57-0.7-1.57-1.57V19.64c0-0.86,0.7-1.57,1.57-1.57h5.3
				c0.86,0,1.57,0.7,1.57,1.57V31.3C48.02,32.16,47.32,32.86,46.46,32.86z"/>
			<circle class="st0" cx="43.8" cy="14.11" r="3.38"/>
		</g>
		<g>
			<path class="st0" d="M60.62,43.73h-0.51c-0.55,0-1-0.45-1-1V32.13c0-0.55,0.45-1,1-1h0.51c0.55,0,1,0.45,1,1v10.59
				C61.63,43.27,61.17,43.73,60.62,43.73z"/>
			<path class="st0" d="M64.35,43.73h-0.51c-0.55,0-1-0.45-1-1l0-10.59c0-0.55,0.45-1,1-1h0.51c0.55,0,1,0.45,1,1v10.59
				C65.36,43.27,64.9,43.73,64.35,43.73z"/>
			<path class="st0" d="M55.4,31.9L55,31.58c-0.44-0.34-0.52-0.97-0.18-1.41l4.19-5.42c0.34-0.44,0.97-0.52,1.41-0.18l0.41,0.31
				c0.44,0.34,0.52,0.97,0.18,1.41l-4.19,5.42C56.47,32.15,55.84,32.24,55.4,31.9z"/>
			<path class="st0" d="M68.95,31.9l0.41-0.31c0.44-0.34,0.52-0.97,0.18-1.41l-4.19-5.42c-0.34-0.44-0.97-0.52-1.41-0.18l-0.41,0.31
				c-0.44,0.34-0.52,0.97-0.18,1.41l4.19,5.42C67.88,32.15,68.52,32.24,68.95,31.9z"/>
			<path class="st0" d="M64.11,35.43h-3.75c-0.69,0-1.25-0.56-1.25-1.25v-8.46c0-0.69,0.56-1.25,1.25-1.25h3.75
				c0.69,0,1.25,0.56,1.25,1.25v8.46C65.36,34.87,64.79,35.43,64.11,35.43z"/>
			<circle class="st0" cx="62.23" cy="21.53" r="2.5"/>
		</g>
		<g>
			<path class="st0" d="M78.66,44.27h-0.69c-0.75,0-1.35-0.61-1.35-1.35v-14.3c0-0.75,0.61-1.35,1.35-1.35h0.69
				c0.75,0,1.35,0.61,1.35,1.35v14.3C80.01,43.66,79.4,44.27,78.66,44.27z"/>
			<path class="st0" d="M83.69,44.27H83c-0.75,0-1.35-0.61-1.35-1.35v-14.3c0-0.75,0.61-1.35,1.35-1.35h0.69
				c0.75,0,1.35,0.61,1.35,1.35v14.3C85.05,43.66,84.44,44.27,83.69,44.27z"/>
			<path class="st0" d="M71.62,28.3l-0.55-0.42c-0.59-0.46-0.7-1.31-0.24-1.9l5.66-7.31c0.46-0.59,1.31-0.7,1.9-0.24l0.55,0.42
				c0.59,0.46,0.7,1.31,0.24,1.9l-5.66,7.31C73.06,28.65,72.21,28.76,71.62,28.3z"/>
			<path class="st0" d="M89.9,28.3l0.55-0.42c0.59-0.46,0.7-1.31,0.24-1.9l-5.66-7.31c-0.46-0.59-1.31-0.7-1.9-0.24l-0.55,0.42
				c-0.59,0.46-0.7,1.31-0.24,1.9L88,28.06C88.46,28.65,89.31,28.76,89.9,28.3z"/>
			<path class="st0" d="M83.48,33.07h-5.3c-0.86,0-1.57-0.7-1.57-1.57V19.85c0-0.86,0.7-1.57,1.57-1.57h5.3
				c0.86,0,1.57,0.7,1.57,1.57V31.5C85.05,32.36,84.34,33.07,83.48,33.07z"/>
			<circle class="st0" cx="80.83" cy="14.31" r="3.38"/>
			<path class="st0" d="M77.66,21.05l-4.35,15.31c-0.23,0.82,0.38,1.63,1.23,1.63h12.64c0.86,0,1.47-0.83,1.22-1.65l-4.63-15.31
				c-0.16-0.54-0.66-0.91-1.22-0.91h-3.66C78.32,20.12,77.82,20.5,77.66,21.05z"/>
		</g>
	</g>
	<g>
		<path class="st0" d="M65.14,86.66c0,0,0.48-4.65,0-7.53S62.41,67.66,77,58.45c0.96-0.4,3.69-1.68,9.54-1.84
			c0.88-0.24,4.01-1.68,5.61-3.77c1.44-2.08,6.65-9.22,11.38-8.82c0.8,0.08,2.4,0.88,1.28,2c-0.72,0.96-5.45,8.74-8.9,11.62
			c0.32-0.08,3.13,0.08,7.78-7.7c1.76-2.97,4.09-5.77,1.04-6.65c-0.88-0.64,0-10.34,0.72-12.18s0.56-3.21,2.4-3.53
			c0.4,0.16,1.12-0.88,1.36,1.6s1.84,14.19,0.8,17.07c-1.04,2.89-6.33,16.35-8.82,18.44c-2.48,2.08-16.27,10.26-16.27,10.26
			s-3.69,2.48-3.77,6.49s-0.08,5.21-0.08,5.21H65.14z"/>
		<path class="st0" d="M59.36,86.66c0,0-0.48-4.65,0-7.53s2.73-11.46-11.86-20.68c-0.96-0.4-3.69-1.68-9.54-1.84
			c-0.88-0.24-4.01-1.68-5.61-3.77c-1.44-2.08-6.65-9.22-11.38-8.82c-0.8,0.08-2.4,0.88-1.28,2c0.72,0.96,5.45,8.74,8.9,11.62
			c-0.32-0.08-3.13,0.08-7.78-7.7c-1.76-2.97-4.09-5.77-1.04-6.65c0.88-0.64,0-10.34-0.72-12.18c-0.72-1.84-0.56-3.21-2.4-3.53
			c-0.4,0.16-1.12-0.88-1.36,1.6c-0.24,2.48-1.84,14.19-0.8,17.07c1.04,2.89,6.33,16.35,8.82,18.44
			c2.48,2.08,16.27,10.26,16.27,10.26s3.69,2.48,3.77,6.49c0.08,4.01,0.08,5.21,0.08,5.21H59.36z"/>
	</g>
</g>
</svg>
