<?xml version="1.0" encoding="utf-8"?>
<!-- Generator: Adobe Illustrator 24.0.1, SVG Export Plug-In . SVG Version: 6.00 Build 0)  -->
<svg version="1.0" id="Layer_1" xmlns="http://www.w3.org/2000/svg" xmlns:xlink="http://www.w3.org/1999/xlink" x="0px" y="0px"
	 viewBox="0 0 114.4 105.27" style="enable-background:new 0 0 114.4 105.27;" xml:space="preserve">
<style type="text/css">
	.st0{fill:#01B1CA;}
</style>
<g>
	<g>
		<path class="st0" d="M92.53,44.72c-3.41-1.64-4.68-5.36-5.64-7.59c-6.32-12.84-16.62-12.37-16.62-12.37s0,0-0.23-0.7
			c-0.25-1.93-1.32-5.98-1.68-7.77c-0.23-2.16-1.18-1.57-1.91-1.2c-1.07,0.59-3.71,5.39-4.41,7.5c-0.73,2.5-2.16,2.43-2.89,2.3
			c-0.84,0-5.14-0.7-10.27-1.8c-12.43-2.39-20.69,4.43-22.48,5.86c-15.3,15.78-4.05,30.6-4.05,30.6c3.89,6.11,0.7,11.77,0.07,13.68
			C21.8,75.14,23,76.16,23,76.16s3.34,1.77,5.09,2.57c1.84,0.86,2,0.39,2.55,0.16c1.05-0.64,2.16-3.84,3.11-6.55
			c0.95-2.7,3.75-1.27,4.46-1.02c7.41,2.86,16.66,2.45,19,2.23c2.32-0.25,2.11,0.64,2.11,0.64s3.21,4.55,3.84,5.5
			c0.55,1.59,2.45,0.95,5.32,0.86c3.36-0.48,2.73-1.34,2.8-2.23c-0.39-1.05-0.48-5.09-0.64-6.3c2.32-12.34,15.3-13.34,16.8-13.57
			c5.41-0.39,4.93-0.95,5.25-1.23c0.75-0.39,1.66-3.68,2.07-4.46c0.77-1.61,1.23-3.61,1.25-4.11
			C96.17,47.25,93.15,45.09,92.53,44.72z M56.07,28.38c0,0-1.11,1.66-1.43,1.59c-5.98-3.05-12.59,0-12.59,0l-1.36-2
			C50.51,24.31,56.07,28.38,56.07,28.38z M57.03,42.32c-1.09-0.61-2.34-0.93-3.66-0.93c-2.84,0-5.32,1.52-6.66,3.82h9.93v2.68H45.78
			c-0.09,0.39-0.11,0.77-0.11,1.18c0,0.5,0.05,1,0.16,1.48h10.82v2.68h-9.75c1.39,2.11,3.77,3.52,6.48,3.52
			c1.32,0,2.57-0.34,3.66-0.93v3.93c-1.16,0.41-2.39,0.61-3.66,0.61c-4.77,0-8.86-2.95-10.52-7.14h-3.11v-2.68h2.43
			c-0.09-0.48-0.11-0.98-0.11-1.48c0-0.41,0.02-0.8,0.07-1.18h-2.39V45.2h3c1.57-4.34,5.75-7.43,10.64-7.43
			c1.27,0,2.5,0.2,3.66,0.59V42.32z"/>
	</g>
</g>
</svg>
