<?xml version="1.0" encoding="utf-8"?>
<!-- Generator: Adobe Illustrator 24.0.1, SVG Export Plug-In . SVG Version: 6.00 Build 0)  -->
<svg version="1.0" id="Layer_1" xmlns="http://www.w3.org/2000/svg" xmlns:xlink="http://www.w3.org/1999/xlink" x="0px" y="0px"
	 viewBox="0 0 114.4 105.27" style="enable-background:new 0 0 114.4 105.27;" xml:space="preserve">
<style type="text/css">
	.st0{fill:#01B1CA;}
</style>
<g>
	<g>
		<g>
			<path class="st0" d="M86.87,64.25c-3.27,3.1-20.98,19.92-25.66,24.49c-0.08,0.08-0.17,0.17-0.22,0.22
				c-1.19,1.16-2.22,1.75-3.1,1.94c-0.97-0.06-2.19-0.58-3.63-1.99c-0.11-0.11-0.22-0.19-0.33-0.3c-0.03-0.03-0.03-0.03-0.03-0.03
				s0,0,0-0.03c-4.88-4.74-22.08-21.09-25.46-24.3h15.43c1.25,0,2.38-0.83,2.72-2.11l0.89-3.46l2.24-8.73l2.22,8.73l1.41,5.57
				l3.74,14.63c0.19,0.75,0.69,1.33,1.3,1.69c0.17,0.11,0.33,0.19,0.53,0.25c0.14,0.06,0.28,0.08,0.42,0.11
				c0.17,0.03,0.33,0.03,0.5,0.03h0.11c1.25,0.03,2.36-0.75,2.69-2.02l3.74-14.69l1.05-4.1l0.36,1.44l0.3,1.11
				c0.44,0.91,1.39,1.55,2.49,1.55H86.87z"/>
			<path class="st0" d="M91.96,58.68h-19.2l-2.6-10.22c-0.33-1.33-1.52-2.16-2.85-2.05c-0.14,0-0.28,0-0.42,0.03h-0.03
				c-0.11,0.03-0.19,0.06-0.3,0.08l-0.22,0.08c-0.14,0.06-0.28,0.14-0.42,0.22c-0.11,0.08-0.25,0.17-0.36,0.28
				c-0.44,0.33-0.75,0.83-0.91,1.41l-2.6,10.17l-1.41,5.57l-0.75,2.99l-0.78-2.99l-1.44-5.57l-5.13-20.06l-0.25-0.97
				c-0.22-0.91-0.86-1.61-1.69-1.91c-0.03-0.03-0.08-0.03-0.14-0.06c-1.47-0.39-2.99,0.53-3.38,2l-0.22,0.86L41.7,58.68H23.27
				c-3.44-4.71-7.18-12.36-4.66-21.58c0.55-2.24,3.96-15.24,21.56-14.3c3.3,0.17,6.48,1.22,9.28,2.99c2.05,1.3,4.71,3.27,8.17,6.32
				c3.74-3.27,6.54-5.32,8.65-6.59c2.63-1.61,5.68-2.52,8.76-2.66c17.59-0.94,21,12.08,21.58,14.3
				C99.11,46.32,95.4,53.97,91.96,58.68z"/>
			<g>
				<path class="st0" d="M58.91,80.82c0.14,0.06,0.28,0.08,0.42,0.11h-0.08C59.13,80.9,59.02,80.87,58.91,80.82z"/>
			</g>
		</g>
	</g>
</g>
</svg>
