<?xml version="1.0" encoding="utf-8"?>
<!-- Generator: Adobe Illustrator 24.0.1, SVG Export Plug-In . SVG Version: 6.00 Build 0)  -->
<svg version="1.0" id="Layer_1" xmlns="http://www.w3.org/2000/svg" xmlns:xlink="http://www.w3.org/1999/xlink" x="0px" y="0px"
	 viewBox="0 0 114.4 105.27" style="enable-background:new 0 0 114.4 105.27;" xml:space="preserve">
<style type="text/css">
	.st0{fill:#01B1CA;}
	.st1{fill:#FFFFFF;}
</style>
<g>
	<path class="st0" d="M28.91,39.76v25.75h59.76V39.76H28.91z M61.34,45.99c-0.75-0.42-1.6-0.64-2.5-0.64
		c-1.95,0-3.64,1.04-4.56,2.62h6.79v1.83h-7.42c-0.07,0.26-0.08,0.52-0.08,0.8c0,0.35,0.03,0.69,0.1,1.02h7.4v1.83h-6.66
		c0.95,1.45,2.58,2.41,4.43,2.41c0.9,0,1.75-0.24,2.5-0.64v2.69c-0.79,0.28-1.63,0.42-2.5,0.42c-3.27,0-6.06-2.02-7.2-4.88h-2.13
		v-1.83h1.67c-0.07-0.33-0.08-0.67-0.08-1.02c0-0.28,0.01-0.54,0.04-0.8h-1.63v-1.83h2.05c1.07-2.97,3.93-5.09,7.28-5.09
		c0.87,0,1.71,0.14,2.5,0.41V45.99z M90.26,39.76v27.33H28.91v2.47h63.82v-29.8H90.26z"/>
	<path class="st1" d="M26.44,37.29v28.22h62.23V37.29H26.44z M61.34,45.99c-0.75-0.42-1.6-0.64-2.5-0.64
		c-1.95,0-3.64,1.04-4.56,2.62h6.79v1.83h-7.42c-0.07,0.26-0.08,0.52-0.08,0.8c0,0.35,0.03,0.69,0.1,1.02h7.4v1.83h-6.66
		c0.95,1.45,2.58,2.41,4.43,2.41c0.9,0,1.75-0.24,2.5-0.64v2.69c-0.79,0.28-1.63,0.42-2.5,0.42c-3.27,0-6.06-2.02-7.2-4.88h-2.13
		v-1.83h1.67c-0.07-0.33-0.08-0.67-0.08-1.02c0-0.28,0.01-0.54,0.04-0.8h-1.63v-1.83h2.05c1.07-2.97,3.93-5.09,7.28-5.09
		c0.87,0,1.71,0.14,2.5,0.41V45.99z"/>
	<path class="st0" d="M24.84,35.71v29.8h63.83v-29.8H24.84z M61.34,45.99c-0.75-0.42-1.6-0.64-2.5-0.64c-1.95,0-3.64,1.04-4.56,2.62
		h6.79v1.83h-7.42c-0.07,0.26-0.08,0.52-0.08,0.8c0,0.35,0.03,0.69,0.1,1.02h7.4v1.83h-6.66c0.95,1.45,2.58,2.41,4.43,2.41
		c0.9,0,1.75-0.24,2.5-0.64v2.69c-0.79,0.28-1.63,0.42-2.5,0.42c-3.27,0-6.06-2.02-7.2-4.88h-2.13v-1.83h1.67
		c-0.07-0.33-0.08-0.67-0.08-1.02c0-0.28,0.01-0.54,0.04-0.8h-1.63v-1.83h2.05c1.07-2.97,3.93-5.09,7.28-5.09
		c0.87,0,1.71,0.14,2.5,0.41V45.99z"/>
</g>
</svg>
