<?xml version="1.0" encoding="utf-8"?>
<!-- Generator: Adobe Illustrator 24.0.1, SVG Export Plug-In . SVG Version: 6.00 Build 0)  -->
<svg version="1.0" id="Layer_1" xmlns="http://www.w3.org/2000/svg" xmlns:xlink="http://www.w3.org/1999/xlink" x="0px" y="0px"
	 viewBox="0 0 124.29 105.27" style="enable-background:new 0 0 124.29 105.27;" xml:space="preserve">
<style type="text/css">
	.st0{fill:#01B1CA;}
</style>
<g>
	<rect x="56.96" y="27.23" class="st0" width="4.53" height="50.18"/>
	
		<rect x="57.26" y="-3.09" transform="matrix(7.128082e-11 -1 1 7.128082e-11 30.0302 88.4282)" class="st0" width="3.93" height="64.58"/>
	
		<rect x="57.65" y="65.45" transform="matrix(3.809759e-11 -1 1 3.809759e-11 -19.7596 138.218)" class="st0" width="3.15" height="27.07"/>
	<path class="st0" d="M45.22,50.84v-0.05l-1.23-3.61L38.5,31.16l-0.71-2.08l-0.71,2.08L31.6,47.18l-1.23,3.61v0.05
		c-0.01,0.15-0.02,0.31-0.02,0.46c0,4.11,3.34,7.44,7.44,7.44c4.11,0,7.45-3.33,7.45-7.44C45.24,51.15,45.23,50.99,45.22,50.84z
		 M32.67,50.79l5.12-16.04l5.09,16.04H32.67z"/>
	<polygon class="st0" points="30.35,50.84 30.37,50.79 30.37,50.84 	"/>
	<polygon class="st0" points="45.24,50.84 45.22,50.84 45.22,50.79 	"/>
	<path class="st0" d="M88.32,50.84v-0.05l-1.23-3.61L81.6,31.16l-0.71-2.08l-0.71,2.08L74.7,47.18l-1.23,3.61v0.05
		c-0.01,0.15-0.02,0.31-0.02,0.46c0,4.11,3.33,7.44,7.44,7.44s7.44-3.33,7.44-7.44C88.33,51.15,88.33,50.99,88.32,50.84z
		 M75.77,50.79l5.12-16.04l5.09,16.04H75.77z"/>
	<polygon class="st0" points="73.45,50.84 73.47,50.79 73.47,50.84 	"/>
	<polygon class="st0" points="88.34,50.84 88.32,50.84 88.32,50.79 	"/>
</g>
</svg>
