<?xml version="1.0" encoding="utf-8"?>
<!-- Generator: Adobe Illustrator 24.0.1, SVG Export Plug-In . SVG Version: 6.00 Build 0)  -->
<svg version="1.0" id="Layer_1" xmlns="http://www.w3.org/2000/svg" xmlns:xlink="http://www.w3.org/1999/xlink" x="0px" y="0px"
	 viewBox="0 0 114.4 105.27" style="enable-background:new 0 0 114.4 105.27;" xml:space="preserve">
<style type="text/css">
	.st0{fill:#01B1CA;}
</style>
<g>
	<path class="st0" d="M28.69,52.16l26-19.45l25.87,19.45v21.61c0,0-0.1,7-6.28,7.2c-6.17,0.21-13.38,0-13.38,0V64.92h-14v16.15
		H36.63c0,0-7.94,0.11-7.94-8.84S28.69,52.16,28.69,52.16z"/>
	<path class="st0" d="M57.22,26.82L25.39,51.66c-0.37,0.29-0.9,0.22-1.19-0.15l-2.17-2.78c-0.29-0.37-0.22-0.9,0.15-1.19
		l31.83-24.84c0.37-0.29,0.9-0.22,1.19,0.15l2.17,2.78C57.65,26,57.59,26.53,57.22,26.82z"/>
	<path class="st0" d="M51.41,26.82l31.83,24.84c0.37,0.29,0.9,0.22,1.19-0.15l2.17-2.78c0.29-0.37,0.22-0.9-0.15-1.19L54.61,22.71
		c-0.37-0.29-0.9-0.22-1.19,0.15l-2.17,2.78C50.97,26,51.04,26.53,51.41,26.82z"/>
	<rect x="69.86" y="30.24" class="st0" width="4.53" height="9.06"/>
</g>
</svg>
