<?xml version="1.0" encoding="utf-8"?>
<!-- Generator: Adobe Illustrator 24.0.1, SVG Export Plug-In . SVG Version: 6.00 Build 0)  -->
<svg version="1.0" id="Layer_1" xmlns="http://www.w3.org/2000/svg" xmlns:xlink="http://www.w3.org/1999/xlink" x="0px" y="0px"
	 viewBox="0 0 104 94" style="enable-background:new 0 0 104 94;" xml:space="preserve">
<style type="text/css">
	.st0{fill:#01B1CA;}
</style>
<g>
	<g>
		<g>
			<path class="st0" d="M34.03,51.42c-1.04,0.8-2.54,0.61-3.34-0.42l-3.84-4.96v25.65c0,1.31-1.07,2.38-2.38,2.38
				c-1.31,0-2.38-1.07-2.38-2.38v-13.3H19.8v13.3c0,1.31-1.07,2.38-2.38,2.38s-2.38-1.07-2.38-2.38V45.78L11,51
				c-0.8,1.03-2.3,1.22-3.34,0.42c-1.03-0.8-1.23-2.3-0.42-3.34l7.32-9.47c0.59-0.76,1.58-1.07,2.46-0.84
				c0.2-0.05,0.4-0.08,0.61-0.08h6.63c0.18,0,0.35,0.02,0.52,0.05c0.86-0.17,1.78,0.14,2.35,0.87l7.33,9.47
				C35.26,49.12,35.06,50.62,34.03,51.42z"/>
			<circle class="st0" cx="20.94" cy="32.14" r="4.73"/>
		</g>
	</g>
</g>
<g>
	<g>
		<g>
			<path class="st0" d="M93.52,51.42c-1.04,0.8-2.54,0.61-3.34-0.42l-3.84-4.96v25.65c0,1.31-1.08,2.38-2.39,2.38
				s-2.38-1.07-2.38-2.38v-13.3h-2.28v13.3c0,1.31-1.07,2.38-2.38,2.38s-2.38-1.07-2.38-2.38V45.78L70.49,51
				c-0.8,1.03-2.31,1.22-3.34,0.42c-1.04-0.8-1.23-2.3-0.43-3.34l7.33-9.47c0.59-0.76,1.57-1.07,2.46-0.84
				c0.19-0.05,0.4-0.08,0.61-0.08h6.62c0.18,0,0.36,0.02,0.52,0.05c0.86-0.17,1.78,0.14,2.35,0.87l7.33,9.47
				C94.74,49.12,94.55,50.62,93.52,51.42z"/>
			<circle class="st0" cx="80.43" cy="32.14" r="4.73"/>
		</g>
	</g>
</g>
<g>
	<g>
		<g>
			<path class="st0" d="M63.23,42.09c-1.04,0.8-2.54,0.61-3.34-0.43l-3.84-4.96v25.66c0,1.31-1.07,2.38-2.38,2.38
				s-2.38-1.07-2.38-2.38V49.05H49v13.31c0,1.31-1.07,2.38-2.38,2.38s-2.38-1.07-2.38-2.38V36.44l-4.04,5.22
				c-0.8,1.04-2.3,1.23-3.34,0.43c-1.03-0.8-1.22-2.3-0.42-3.34l7.32-9.47c0.59-0.77,1.58-1.07,2.46-0.84
				c0.2-0.05,0.4-0.08,0.61-0.08h6.63c0.18,0,0.35,0.02,0.52,0.05c0.86-0.18,1.78,0.13,2.35,0.87l7.33,9.47
				C64.46,39.79,64.27,41.29,63.23,42.09z"/>
			<circle class="st0" cx="50.15" cy="22.8" r="4.73"/>
		</g>
	</g>
</g>
</svg>
