<?xml version="1.0" encoding="utf-8"?>
<!-- Generator: Adobe Illustrator 24.0.1, SVG Export Plug-In . SVG Version: 6.00 Build 0)  -->
<svg version="1.0" id="Layer_1" xmlns="http://www.w3.org/2000/svg" xmlns:xlink="http://www.w3.org/1999/xlink" x="0px" y="0px"
	 viewBox="0 0 114.4 105.27" style="enable-background:new 0 0 114.4 105.27;" xml:space="preserve">
<style type="text/css">
	.st0{fill:#fff;}
</style>
<g>
	<path class="st0" d="M22.09,57.82c-2.9,0.95-4.76,3.74-4.76,6.79v0.02c0,0.97,0.2,1.9,0.58,2.74h13.1
		c0.38-0.86,0.55-1.81,0.55-2.77v-0.02C31.56,59.88,27.03,56.25,22.09,57.82z M84.9,57.82c-2.88,0.95-4.76,3.74-4.76,6.79v0.02
		c0,0.97,0.2,1.9,0.58,2.74h13.1c0.38-0.86,0.55-1.81,0.55-2.77v-0.02C94.37,59.88,89.84,56.25,84.9,57.82z M104.11,53.33
		c-2.61-3.61-8.94-4.14-12.86-4.71c-5.84-1-8.1-2.3-10.36-4.05c-3.7-3.3-7.41-5.36-11.18-7.08c-9.05-4.18-16.11-3.96-22.02-3.87
		c-11.86-0.15-16.89,4.34-20.16,6.64c-4.25,2.88-10.2,5.64-13.65,6.71c-7.68,1.39-6.84,8.61-6.84,8.61
		c-1.95,2.3-1.88,4.76-1.73,7.28C6.05,66.76,12,67.38,12,67.38h3.3c-0.27-0.86-0.42-1.77-0.42-2.72v-0.04
		c0-4.07,2.52-7.86,6.42-9.12c6.62-2.12,12.73,2.77,12.73,9.1v0.04c0,0.93-0.13,1.86-0.4,2.74h0.44c0,0,25.12,0,44.04,0
		c-0.27-0.86-0.42-1.77-0.42-2.72v-0.04c0-4.07,2.52-7.86,6.42-9.12c6.62-2.12,12.73,2.77,12.73,9.1v0.04c0,0.93-0.13,1.86-0.4,2.74
		h1.11c6.33,0,8.1-1.97,8.76-2.7C109.49,61.45,105.42,55.25,104.11,53.33z M50.44,47.42c-0.31,0-23.53-0.44-23.53-0.44
		c7.92-8.59,23.57-8.65,23.57-8.65l0.27,9.1C50.75,47.42,50.75,47.42,50.44,47.42z M54.82,47.42l-0.42-9.1
		c14.65,0.27,22.77,9.1,22.77,9.1H54.82z"/>
	<path class="st0" d="M31.56,64.59v0.02c0,0.95-0.18,1.9-0.55,2.77c-0.64,1.66-1.9,3.03-3.61,3.72c-4.09,1.68-8.06-0.35-9.49-3.72
		c-0.38-0.84-0.58-1.77-0.58-2.74v-0.02c0-3.05,1.86-5.84,4.76-6.79C27.03,56.25,31.56,59.88,31.56,64.59z"/>
	<path class="st0" d="M94.37,64.59v0.02c0,0.95-0.18,1.9-0.55,2.77c-0.64,1.66-1.9,3.03-3.61,3.72c-4.09,1.68-8.06-0.35-9.49-3.72
		c-0.38-0.84-0.58-1.77-0.58-2.74v-0.02c0-3.05,1.88-5.84,4.76-6.79C89.84,56.25,94.37,59.88,94.37,64.59z"/>
</g>
</svg>
