<?xml version="1.0" encoding="utf-8"?>
<!-- Generator: Adobe Illustrator 24.0.1, SVG Export Plug-In . SVG Version: 6.00 Build 0)  -->
<svg version="1.0" id="Layer_1" xmlns="http://www.w3.org/2000/svg" xmlns:xlink="http://www.w3.org/1999/xlink" x="0px" y="0px"
	 viewBox="0 0 2049.45 406.49" style="enable-background:new 0 0 2049.45 406.49;" xml:space="preserve">
<style type="text/css">
	.st0{fill:#E8282B;}
</style>
<g>
	<polygon class="st0" points="28.11,162.01 62.27,196.52 132.34,125.39 97.83,91.24 	"/>
	<polygon class="st0" points="145.02,275.75 179.18,310.26 249.25,239.13 214.74,204.98 	"/>
	<polygon class="st0" points="21.42,170.82 99.24,245.82 177.42,168.71 177.42,231.39 99.68,309.12 22.39,231.83 	"/>
	<polygon class="st0" points="99.42,231.3 177.24,156.29 255.41,233.41 255.41,170.73 177.68,93 100.39,170.29 	"/>
	<path class="st0" d="M332,125.75h37.68c0,0-3.87,82.75-3.17,111.27c0.7,28.52,3.17,39.44,3.17,39.44H331.3
		c0,0,2.46-58.81,3.17-69.02C335.17,197.23,332,125.75,332,125.75z"/>
	<path class="st0" d="M535.91,237c0.67,28.57,3.13,39.47,3.13,39.47h-38.35c0,0-42.66-71.5-50.71-83.46
		c-5.14-7.55-10.85-15.15-14.26-19.68c-0.89,23.59-1.62,49.92-1.29,63.67c0.73,28.57,3.19,39.47,3.19,39.47h-38.35
		c0,0,2.46-58.81,3.13-69.04c0.73-10.17-2.46-81.68-2.46-81.68h37.68c0,0,34.88,67.36,65.13,102.92c0.45-9.73,0.84-17.94,1.06-21.24
		c0.73-10.17-2.46-81.68-2.46-81.68h37.68C539.04,125.75,535.19,208.49,535.91,237z"/>
	<path class="st0" d="M1236.89,237.22c0.67,28.51,3.13,39.47,3.13,39.47h-38.35c0,0,2.46-58.81,3.19-69.04
		c0.22-3.35,0-13.42-0.34-25.32c-1.51,3.13-3.58,7.49-6.32,13.53c-9.5,21.24-27.11,81.01-27.11,81.01h-19.79
		c0,0-5.59-16.77-10.34-32.7c-9.34-30.97-17.39-50.15-22.92-61.38c-0.73,20.96-1.23,42.49-0.95,54.45
		c0.73,28.51,3.19,39.47,3.19,39.47h-38.35c0,0,2.46-58.81,3.13-69.04c0.73-10.23-2.46-81.68-2.46-81.68h37.68
		c13.42,44.5,40.81,101.75,40.81,101.75l41.26-101.75h37.68C1240.03,125.97,1236.17,208.71,1236.89,237.22z"/>
	<path class="st0" d="M1524.03,125.95h6.7h30.98c0,0-3.87,82.75-3.17,111.27s3.17,39.44,3.17,39.44h-38.38
		c0,0,2.46-58.81,3.17-69.02C1527.2,197.44,1524.03,125.95,1524.03,125.95z"/>
	<path class="st0" d="M2015.25,237.22c0.73,28.51,3.19,39.47,3.19,39.47h-38.41c0,0-9.67-18.84-18.73-33.99
		c-7.04-11.74-34.77-50.82-46.96-67.81c-0.84,23.2-1.56,48.86-1.23,62.33c0.73,28.51,3.19,39.47,3.19,39.47h-38.35
		c0,0,2.46-58.81,3.13-69.04c0.73-10.23-2.46-81.68-2.46-81.68h37.68c0,0,17.83,30.58,36.51,59.43
		c12.13,18.73,23.14,33.54,29.41,41.59c0.45-8.89,0.78-16.27,1.01-19.34c0.67-10.23-2.46-81.68-2.46-81.68h37.68
		C2018.43,125.97,2014.52,208.71,2015.25,237.22z"/>
	<path class="st0" d="M624.47,148.39c-1.12,26.61-2.68,69.66-2.24,88.61c0.73,28.57,3.19,39.47,3.19,39.47h-38.41
		c0,0,2.46-58.81,3.19-69.04c0.45-6.48-0.67-37.85-1.51-59.76c-16.21-0.67-33.21-1.34-33.21-1.34l-3.41-20.57h107.9l-4.14,21.3
		C655.83,147.05,636.32,147.94,624.47,148.39z"/>
	<path class="st0" d="M710.95,146.32c-0.5,12.3-1.18,28.62-1.62,44.5c19.12,0,55.68,0,55.68,0v20.57h-56.18
		c-0.22,10.23-0.28,19.23-0.11,25.6c0.17,7.44,0.45,13.7,0.84,18.84c24.71,0,64.9,0,64.9,0v20.63H673.49c0,0,2.46-58.81,3.19-69.04
		c0.67-10.17-2.52-81.68-2.52-81.68h37.68c14.76,0,62.61,0,62.61,0v20.57H710.95z"/>
	<path class="st0" d="M1305.04,146.32c-0.5,12.3-1.17,28.62-1.62,44.5c19.12,0,55.62,0,55.62,0v20.57h-56.13
		c-0.22,10.23-0.28,19.23-0.11,25.6c0.17,7.44,0.45,13.7,0.84,18.84c24.65,0,64.91,0,64.91,0v20.63h-100.96
		c0,0,2.46-58.81,3.13-69.04c0.73-10.17-2.46-81.68-2.46-81.68h37.68c14.81,0,62.61,0,62.61,0v20.57H1305.04z"/>
	<path class="st0" d="M870.39,204.52c0,0,1.45-2.35,4.53-3.41c3.08-1.06,18.73-5.81,21.8-19.73c1.96-5.31,6.09-24.82,0-35.16
		c-6.15-10.34-14.03-21.91-62.84-20.46H796.2c0,0,3.13,71.5,2.46,81.68c-0.73,10.23-3.19,69.04-3.19,69.04h38.41
		c0,0-2.46-10.9-3.19-39.47c-0.28-10.4,0.11-27.95,0.61-46.12c2.57,2.68,5.98,7.38,10.12,15.32c8.67,16.77,26.78,49.53,35.44,70.27
		c0.56,0.89,37.12,0,37.12,0L870.39,204.52z M858.98,188.59c-3.13,0.5-19.57-0.56-27.45-5.14c0.45-13.47,1.01-26.78,1.45-37.18
		c8.61-0.17,23.7,0.06,27.39,2.29c5.31,3.19,15.65,12.97,11.18,24.99C869.6,179.14,862.62,188.03,858.98,188.59z"/>
	<path class="st0" d="M1464.2,204.52c0,0,1.45-2.35,4.53-3.41c3.07-1.06,18.67-5.81,21.75-19.73c1.96-5.31,6.15-24.82,0-35.16
		c-6.15-10.34-13.98-21.91-62.84-20.46h-37.68c0,0,3.19,71.5,2.46,81.68c-0.67,10.23-3.13,69.04-3.13,69.04h38.35
		c0,0-2.46-10.9-3.13-39.47c-0.28-10.4,0.06-28.01,0.62-46.18c2.46,2.68,5.98,7.38,10.06,15.37c8.67,16.77,26.83,49.53,35.5,70.27
		c0.56,0.89,37.12,0,37.12,0L1464.2,204.52z M1452.79,188.59c-3.19,0.5-19.62-0.56-27.45-5.14c0.45-13.47,0.95-26.72,1.4-37.18
		c8.61-0.17,23.7,0.06,27.45,2.29c5.31,3.19,15.65,12.97,11.18,24.99C1463.42,179.14,1456.43,188.03,1452.79,188.59z"/>
	<path class="st0" d="M1067.84,276.47c-6.43-11.57-56.13-150.66-56.13-150.66h-36.84c0,0,0,0-6.99,18.95
		c-16.49,56.69-51.94,131.21-52.77,131.71c-0.84,0.45,36.28,0,36.28,0l17.89-48.75h46.01l15.43,48.75l37.68,0.34
		C1068.4,276.8,1068.4,276.8,1067.84,276.47z M976.1,208.99l17.83-48.58l15.37,48.58H976.1z"/>
	<path class="st0" d="M1861.57,276.47c-6.43-11.57-56.13-150.66-56.13-150.66h-36.84c0,0,0,0-6.99,18.95
		c-16.44,56.69-51.94,131.21-52.77,131.71c-0.84,0.45,36.34,0,36.34,0l17.83-48.75h46.01l15.43,48.75l37.68,0.34
		C1862.13,276.8,1862.13,276.8,1861.57,276.47z M1769.88,208.99l17.78-48.58l15.37,48.58H1769.88z"/>
	<path class="st0" d="M1707.23,134.02l-7.96,25.1c0,0-10.38-10.14-25.58-12.55c-9.65-0.72-37.65-0.97-48.27,18.1
		c-7.24,12.55-13.52,43.02-4.1,63.02c2.41,6,16.65,27.73,36.69,27.73c17.86,0,35.48-4.1,41.51-7.96s9.33-5.31,9.33-5.31l-1.85,23.65
		c0,0-14,6.52-20.03,7.96s-38.62,8.45-54.3,1.21c-15.69-7.24-44.65-23.17-48.99-53.34c-1.93-21.24-5.07-44.89,11.58-66.61
		C1603.21,147.29,1628.03,104.32,1707.23,134.02z"/>
</g>
</svg>
