<?xml version="1.0" encoding="utf-8"?>
<!-- Generator: Adobe Illustrator 24.0.1, SVG Export Plug-In . SVG Version: 6.00 Build 0)  -->
<svg version="1.0" id="Layer_1" xmlns="http://www.w3.org/2000/svg" xmlns:xlink="http://www.w3.org/1999/xlink" x="0px" y="0px"
	 viewBox="0 0 1920 238.77" style="enable-background:new 0 0 1920 238.77;" xml:space="preserve">
<style type="text/css">
	.st0{fill:#E82429;}
</style>
<g>
	<polygon class="st0" points="37.2,89.05 69.01,121.19 134.28,54.94 102.14,23.13 	"/>
	<polygon class="st0" points="146.08,194.99 177.9,227.13 243.16,160.88 211.02,129.07 	"/>
	<polygon class="st0" points="30.97,97.25 103.45,167.11 176.26,95.28 176.26,153.66 103.86,226.06 31.87,154.07 	"/>
	<polygon class="st0" points="103.61,153.58 176.09,83.72 248.9,155.55 248.9,97.17 176.5,24.77 104.51,96.76 	"/>
	<path class="st0" d="M320.24,55.27h35.09c0,0-3.61,77.07-2.95,103.64s2.95,36.73,2.95,36.73h-35.75c0,0,2.3-54.77,2.95-64.28
		C323.19,121.85,320.24,55.27,320.24,55.27z"/>
	<path class="st0" d="M510.15,158.89c0.62,26.61,2.92,36.76,2.92,36.76h-35.72c0,0-39.73-66.59-47.23-77.74
		c-4.79-7.03-10.1-14.11-13.28-18.33c-0.83,21.97-1.51,46.5-1.2,59.3c0.68,26.61,2.97,36.76,2.97,36.76H382.9
		c0,0,2.29-54.78,2.91-64.3c0.68-9.48-2.29-76.07-2.29-76.07h35.09c0,0,32.49,62.74,60.66,95.86c0.42-9.06,0.78-16.71,0.99-19.79
		c0.68-9.48-2.29-76.07-2.29-76.07h35.09C513.07,55.28,509.48,132.34,510.15,158.89z"/>
	<path class="st0" d="M1163.03,159.1c0.62,26.55,2.92,36.76,2.92,36.76h-35.72c0,0,2.29-54.78,2.97-64.3
		c0.21-3.12,0-12.5-0.31-23.59c-1.41,2.92-3.33,6.98-5.88,12.6c-8.85,19.79-25.25,75.45-25.25,75.45h-18.43
		c0,0-5.21-15.62-9.63-30.46c-8.69-28.85-16.19-46.7-21.35-57.17c-0.68,19.53-1.15,39.57-0.88,50.71
		c0.68,26.55,2.97,36.76,2.97,36.76h-35.72c0,0,2.29-54.78,2.92-64.3c0.68-9.53-2.29-76.07-2.29-76.07h35.09
		c12.5,41.45,38.01,94.76,38.01,94.76l38.43-94.76h35.09C1165.95,55.49,1162.35,132.55,1163.03,159.1z"/>
	<path class="st0" d="M1430.46,55.47h6.24h28.85c0,0-3.61,77.07-2.95,103.64c0.66,26.57,2.95,36.73,2.95,36.73h-35.75
		c0,0,2.3-54.77,2.95-64.28C1433.42,122.04,1430.46,55.47,1430.46,55.47z"/>
	<path class="st0" d="M1887.97,159.1c0.68,26.55,2.97,36.76,2.97,36.76h-35.77c0,0-9.01-17.55-17.44-31.66
		c-6.56-10.93-32.39-47.33-43.74-63.16c-0.78,21.61-1.46,45.51-1.15,58.06c0.68,26.55,2.97,36.76,2.97,36.76h-35.72
		c0,0,2.29-54.78,2.91-64.3c0.68-9.53-2.29-76.07-2.29-76.07h35.09c0,0,16.61,28.48,34,55.35c11.3,17.44,21.56,31.24,27.39,38.74
		c0.42-8.28,0.73-15.15,0.94-18.02c0.62-9.53-2.29-76.07-2.29-76.07h35.09C1890.94,55.49,1887.29,132.55,1887.97,159.1z"/>
	<path class="st0" d="M592.63,76.36c-1.04,24.78-2.5,64.88-2.08,82.53c0.68,26.61,2.97,36.76,2.97,36.76h-35.77
		c0,0,2.29-54.78,2.97-64.3c0.42-6.04-0.63-35.25-1.41-55.66c-15.1-0.62-30.93-1.25-30.93-1.25l-3.18-19.16h100.49l-3.85,19.84
		C621.84,75.12,603.67,75.95,592.63,76.36z"/>
	<path class="st0" d="M673.18,74.44c-0.47,11.45-1.09,26.66-1.51,41.45c17.81,0,51.86,0,51.86,0v19.16H671.2
		c-0.21,9.53-0.26,17.91-0.1,23.85c0.16,6.93,0.42,12.76,0.78,17.55c23.01,0,60.45,0,60.45,0v19.21h-94.03c0,0,2.29-54.78,2.97-64.3
		c0.62-9.48-2.34-76.07-2.34-76.07h35.09c13.75,0,58.32,0,58.32,0v19.16H673.18z"/>
	<path class="st0" d="M1226.5,74.44c-0.47,11.45-1.09,26.66-1.51,41.45c17.81,0,51.81,0,51.81,0v19.16h-52.28
		c-0.21,9.53-0.26,17.91-0.1,23.85c0.16,6.93,0.42,12.76,0.78,17.55c22.96,0,60.45,0,60.45,0v19.21h-94.03c0,0,2.29-54.78,2.92-64.3
		c0.68-9.48-2.29-76.07-2.29-76.07h35.09c13.8,0,58.32,0,58.32,0v19.16H1226.5z"/>
	<path class="st0" d="M821.67,128.64c0,0,1.35-2.19,4.22-3.18c2.86-0.99,17.44-5.42,20.31-18.38c1.82-4.95,5.67-23.12,0-32.75
		c-5.73-9.63-13.07-20.41-58.53-19.06h-35.09c0,0,2.91,66.59,2.29,76.07c-0.68,9.53-2.97,64.3-2.97,64.3h35.77
		c0,0-2.29-10.15-2.97-36.76c-0.26-9.68,0.1-26.03,0.57-42.96c2.39,2.5,5.57,6.87,9.42,14.27c8.07,15.62,24.94,46.13,33.01,65.45
		c0.52,0.83,34.57,0,34.57,0L821.67,128.64z M811.05,113.8c-2.92,0.47-18.22-0.52-25.57-4.79c0.42-12.55,0.94-24.94,1.35-34.63
		c8.02-0.16,22.08,0.05,25.51,2.13c4.95,2.97,14.58,12.08,10.41,23.27C820.95,105,814.44,113.28,811.05,113.8z"/>
	<path class="st0" d="M1374.74,128.64c0,0,1.36-2.19,4.22-3.18c2.86-0.99,17.39-5.42,20.26-18.38c1.82-4.95,5.73-23.12,0-32.75
		c-5.73-9.63-13.02-20.41-58.53-19.06h-35.09c0,0,2.97,66.59,2.29,76.07c-0.63,9.53-2.92,64.3-2.92,64.3h35.72
		c0,0-2.29-10.15-2.91-36.76c-0.26-9.68,0.05-26.09,0.57-43.01c2.29,2.5,5.57,6.87,9.37,14.32c8.07,15.62,24.99,46.13,33.06,65.45
		c0.52,0.83,34.57,0,34.57,0L1374.74,128.64z M1364.12,113.8c-2.97,0.47-18.27-0.52-25.56-4.79c0.42-12.55,0.89-24.89,1.3-34.63
		c8.02-0.16,22.08,0.05,25.56,2.13c4.95,2.97,14.58,12.08,10.41,23.27C1374.01,105,1367.5,113.28,1364.12,113.8z"/>
	<path class="st0" d="M1005.58,195.65c-5.99-10.78-52.28-140.32-52.28-140.32h-34.31c0,0,0,0-6.51,17.65
		c-15.36,52.8-48.37,122.2-49.15,122.67c-0.78,0.42,33.79,0,33.79,0l16.66-45.4h42.85l14.37,45.4l35.09,0.31
		C1006.1,195.97,1006.1,195.97,1005.58,195.65z M920.14,132.81l16.61-45.25l14.32,45.25H920.14z"/>
	<path class="st0" d="M1744.84,195.65c-5.99-10.78-52.28-140.32-52.28-140.32h-34.31c0,0,0,0-6.51,17.65
		c-15.31,52.8-48.37,122.2-49.15,122.67c-0.78,0.42,33.84,0,33.84,0l16.61-45.4h42.85l14.37,45.4l35.09,0.31
		C1745.36,195.97,1745.36,195.97,1744.84,195.65z M1659.45,132.81L1676,87.56l14.32,45.25H1659.45z"/>
	<path class="st0" d="M1601.09,62.98l-7.42,23.38c0,0-9.67-9.44-23.83-11.69c-8.99-0.67-35.07-0.9-44.96,16.86
		c-6.74,11.69-12.59,40.07-3.82,58.7c2.25,5.59,15.51,25.82,34.17,25.82c16.63,0,33.04-3.82,38.66-7.42
		c5.62-3.6,8.69-4.95,8.69-4.95l-1.72,22.03c0,0-13.04,6.07-18.66,7.42c-5.62,1.35-35.97,7.87-50.58,1.12
		c-14.61-6.74-41.59-21.58-45.63-49.68c-1.8-19.78-4.72-41.81,10.79-62.04C1504.21,75.34,1527.32,35.32,1601.09,62.98z"/>
</g>
</svg>
