<?xml version="1.0" encoding="utf-8"?>
<!-- Generator: Adobe Illustrator 24.0.1, SVG Export Plug-In . SVG Version: 6.00 Build 0)  -->
<svg version="1.0" id="Layer_1" xmlns="http://www.w3.org/2000/svg" xmlns:xlink="http://www.w3.org/1999/xlink" x="0px" y="0px"
	 viewBox="0 0 14255.39 2297.88" style="enable-background:new 0 0 14255.39 2297.88;" xml:space="preserve">
<style type="text/css">
	.st0{fill:#E8282B;}
</style>
<g>
	<polygon class="st0" points="256.53,906.51 491.87,1144.28 974.68,654.19 736.92,418.85 	"/>
	<polygon class="st0" points="1062.03,1690.17 1297.37,1927.94 1780.18,1437.85 1542.41,1202.51 	"/>
	<polygon class="st0" points="210.44,967.17 746.62,1483.94 1285.24,952.61 1285.24,1384.47 749.66,1920.05 217.11,1387.5 	"/>
	<polygon class="st0" points="747.84,1383.86 1284.02,867.09 1822.63,1398.42 1822.63,966.56 1287.06,430.98 754.51,963.53 	"/>
	<path class="st0" d="M2350.33,656.62h259.6c0,0-26.69,570.15-21.84,766.67c4.85,196.52,21.84,271.73,21.84,271.73h-264.45
		c0,0,16.98-405.17,21.84-475.53C2372.17,1149.13,2350.33,656.62,2350.33,656.62z"/>
	<path class="st0" d="M3755.27,1423.15c4.62,196.83,21.57,271.94,21.57,271.94h-264.24c0,0-293.89-492.64-349.36-575.07
		c-35.43-52-74.72-104.39-98.22-135.58c-6.16,162.54-11.16,343.96-8.86,438.71c5.01,196.83,21.96,271.94,21.96,271.94H2813.9
		c0,0,16.95-405.21,21.56-475.7c5.01-70.1-16.95-562.74-16.95-562.74h259.61c0,0,240.35,464.13,448.73,709.11
		c3.08-67.02,5.78-123.64,7.32-146.37c5.01-70.1-16.95-562.74-16.95-562.74h259.62C3776.84,656.65,3750.26,1226.71,3755.27,1423.15z
		"/>
	<path class="st0" d="M8584.99,1424.69c4.62,196.44,21.57,271.94,21.57,271.94h-264.24c0,0,16.95-405.21,21.96-475.7
		c1.54-23.11,0-92.44-2.31-174.49c-10.4,21.57-24.65,51.62-43.52,93.21c-65.48,146.37-186.81,558.13-186.81,558.13h-136.35
		c0,0-38.52-115.55-71.25-225.33c-64.32-213.39-119.79-345.5-157.93-422.92c-5,144.44-8.47,292.73-6.54,375.16
		c5,196.44,21.95,271.94,21.95,271.94h-264.23c0,0,16.95-405.21,21.57-475.7c5-70.49-16.95-562.74-16.95-562.74h259.6
		c92.45,306.6,281.18,701.02,281.18,701.02l284.27-701.02h259.61C8606.57,658.19,8579.98,1228.25,8584.99,1424.69z"/>
	<path class="st0" d="M10563.35,658.05h46.17h213.43c0,0-26.69,570.15-21.84,766.67c4.85,196.52,21.84,271.73,21.84,271.73h-264.45
		c0,0,16.98-405.17,21.84-475.53C10585.19,1150.57,10563.35,658.05,10563.35,658.05z"/>
	<path class="st0" d="M13947.81,1424.69c5.01,196.44,21.96,271.94,21.96,271.94h-264.62c0,0-66.63-129.81-129.03-234.19
		c-48.53-80.89-239.58-350.12-323.55-467.22c-5.77,159.85-10.78,336.65-8.47,429.47c5.01,196.44,21.96,271.94,21.96,271.94h-264.23
		c0,0,16.95-405.21,21.56-475.7c5.01-70.49-16.95-562.74-16.95-562.74h259.61c0,0,122.87,210.7,251.52,409.44
		c83.58,129.04,159.46,231.11,202.6,286.57c3.08-61.24,5.39-112.08,6.93-133.27c4.62-70.49-16.95-562.74-16.95-562.74h259.61
		C13969.76,658.19,13942.8,1228.25,13947.81,1424.69z"/>
	<path class="st0" d="M4365.38,812.65c-7.7,183.34-18.49,479.93-15.4,610.5c5,196.83,21.95,271.94,21.95,271.94h-264.61
		c0,0,16.95-405.21,21.96-475.7c3.08-44.68-4.63-260.76-10.4-411.75c-111.7-4.62-228.79-9.24-228.79-9.24l-23.5-141.74h743.39
		l-28.5,146.75C4581.47,803.4,4447.04,809.57,4365.38,812.65z"/>
	<path class="st0" d="M4961.26,798.4c-3.47,84.74-8.1,197.21-11.17,306.6c131.73,0,383.63,0,383.63,0v141.75h-387.1
		c-1.54,70.49-1.93,132.5-0.77,176.41c1.16,51.23,3.08,94.37,5.78,129.81c170.25,0,447.18,0,447.18,0v142.13h-695.63
		c0,0,16.95-405.21,21.96-475.7c4.62-70.1-17.33-562.74-17.33-562.74h259.61c101.68,0,431.4,0,431.4,0V798.4H4961.26z"/>
	<path class="st0" d="M9054.52,798.4c-3.46,84.74-8.09,197.21-11.16,306.6c131.73,0,383.25,0,383.25,0v141.75h-386.72
		c-1.54,70.49-1.93,132.5-0.77,176.41c1.16,51.23,3.08,94.37,5.77,129.81c169.87,0,447.19,0,447.19,0v142.13h-695.63
		c0,0,16.95-405.21,21.57-475.7c5-70.1-16.95-562.74-16.95-562.74h259.61c102.07,0,431.4,0,431.4,0V798.4H9054.52z"/>
	<path class="st0" d="M6059.77,1199.37c0,0,10.02-16.18,31.2-23.5c21.19-7.32,129.04-40.06,150.22-135.97
		c13.48-36.59,41.98-171.02,0-242.28c-42.37-71.26-96.69-150.99-432.95-140.97h-259.6c0,0,21.56,492.64,16.95,562.74
		c-5.01,70.49-21.96,475.7-21.96,475.7h264.61c0,0-16.95-75.11-21.95-271.94c-1.93-71.64,0.77-192.59,4.23-317.77
		c17.72,18.49,41.22,50.85,69.72,105.54c59.7,115.55,184.5,341.27,244.21,484.17c3.85,6.16,255.75,0,255.75,0L6059.77,1199.37z
		 M5981.21,1089.59c-21.57,3.47-134.81-3.86-189.13-35.44c3.08-92.83,6.94-184.5,10.02-256.14c59.32-1.16,163.31,0.39,188.74,15.79
		c36.59,21.95,107.84,89.36,77.04,172.17C6054.39,1024.49,6006.24,1085.74,5981.21,1089.59z"/>
	<path class="st0" d="M10151.12,1199.37c0,0,10.02-16.18,31.2-23.5c21.19-7.32,128.65-40.06,149.84-135.97
		c13.48-36.59,42.36-171.02,0-242.28c-42.37-71.26-96.29-150.99-432.95-140.97h-259.6c0,0,21.95,492.64,16.95,562.74
		c-4.63,70.49-21.57,475.7-21.57,475.7h264.23c0,0-16.95-75.11-21.56-271.94c-1.93-71.64,0.38-192.97,4.24-318.16
		c16.95,18.49,41.21,50.85,69.32,105.92c59.71,115.55,184.89,341.27,244.59,484.17c3.86,6.16,255.75,0,255.75,0L10151.12,1199.37z
		 M10072.54,1089.59c-21.95,3.47-135.19-3.86-189.12-35.44c3.08-92.83,6.55-184.12,9.63-256.14c59.32-1.16,163.32,0.39,189.12,15.79
		c36.6,21.95,107.86,89.36,77.04,172.17C10145.73,1024.49,10097.58,1085.74,10072.54,1089.59z"/>
	<path class="st0" d="M7420.22,1695.09c-44.29-79.73-386.72-1038.05-386.72-1038.05h-253.83c0,0,0,0-48.15,130.57
		c-113.63,390.57-357.83,904.01-363.61,907.48c-5.77,3.08,249.98,0,249.98,0l123.26-335.87h317l106.3,335.87l259.62,2.31
		C7424.08,1697.4,7424.08,1697.4,7420.22,1695.09z M6788.15,1230.18l122.87-334.72l105.92,334.72H6788.15z"/>
	<path class="st0" d="M12888.96,1695.09c-44.29-79.73-386.72-1038.05-386.72-1038.05h-253.83c0,0,0,0-48.15,130.57
		c-113.24,390.57-357.83,904.01-363.6,907.48c-5.78,3.08,250.36,0,250.36,0l122.87-335.87h317l106.31,335.87l259.61,2.31
		C12892.81,1697.4,12892.81,1697.4,12888.96,1695.09z M12257.27,1230.18l122.48-334.72l105.92,334.72H12257.27z"/>
	<path class="st0" d="M11825.61,713.62l-54.88,172.94c0,0-71.5-69.84-176.27-86.47c-66.52-4.99-259.41-6.65-332.58,124.72
		c-49.89,86.47-93.12,296.39-28.27,434.21c16.63,41.37,114.74,191.03,252.76,191.03c123.05,0,244.44-28.27,286.02-54.88
		s64.29-36.58,64.29-36.58l-12.74,162.96c0,0-96.45,44.9-138.02,54.88c-41.57,9.98-266.06,58.2-374.15,8.31
		c-108.09-49.89-307.63-159.64-337.57-367.5c-13.3-146.33-34.92-309.3,79.82-458.96
		C11108.91,805.08,11279.89,508.98,11825.61,713.62z"/>
</g>
</svg>
