<?xml version="1.0" encoding="utf-8"?>
<!-- Generator: Adobe Illustrator 24.0.1, SVG Export Plug-In . SVG Version: 6.00 Build 0)  -->
<svg version="1.0" id="Layer_1" xmlns="http://www.w3.org/2000/svg" xmlns:xlink="http://www.w3.org/1999/xlink" x="0px" y="0px"
	 viewBox="0 0 2442.25 741.04" style="enable-background:new 0 0 2442.25 741.04;" xml:space="preserve">
<style type="text/css">
	.st0{fill:#FFFFFF;}
	.st1{fill:#A27AFC;}
	.st2{opacity:0.42;fill:#2D187A;}
	.st3{fill:#F6B1B5;}
	.st4{fill:#161E2B;}
	.st5{fill:#003162;}
	.st6{fill:#971A1F;}
	.st7{fill:#E0949B;}
	.st8{fill:#035AAF;}
	.st9{fill:#DA1E03;}
</style>
<rect y="0.92" class="st0" width="2442.25" height="741.04"/>
<rect y="0.92" class="st1" width="2442.25" height="741.04"/>
<path class="st1" d="M1676.25,452.8C694.05,651.02,222.42,585.03,0.27,496.56V0.92h1955
	C1992.98,102.48,2052.48,369.95,1676.25,452.8z"/>
<path class="st2" d="M491.12,47.27C479.36,311.16,224.22,488.74,0,594.36V0.92h489.11C491.19,15.34,491.84,30.77,491.12,47.27z"/>
<path class="st2" d="M2442.25,0.92v741.04h-497.37c2.56-30.04,68.68-143.74,78.52-197.88c40.16-220.95-409.12-427.43-546-543.16
	H2442.25z"/>
<path class="st2" d="M2153.59,499.45c-26.75,73.57-86.08,111.62-101.21,122.44c-1.98,1.42-3.97,2.82-6,4.15
	c-20.53,13.38-40.99,23.7-60.54,31.66c-62.4,25.35-115.69,26.55-133.39,26.27h-0.16c-0.29-0.01-0.58-0.01-0.88-0.01
	c-2.28-0.02-4.58,0-6.86,0.03c-15.04,0.28-29.55-0.6-43.45-2.34c-26.7-3.34-51.05-9.88-72.24-17.53
	c-15.87-5.72-29.97-12.08-41.95-18.15c-8.89-4.52-16.61-8.9-23.02-12.75c-11.67-7.05-18.99-12.41-21.12-13.93
	c-3.53-2.32-6.97-4.69-10.31-7.11c-67.16-48.51-96.06-115.44-101.76-126.5c-39.71-85.6-19.59-178.25-13.06-214.15
	c4.3-23.64,25.57-60.24,39.61-82.5c9.19-14.57,20.38-27.81,33.3-39.22c36.52-32.25,67.15-43.76,80.04-48.93
	c4.76-1.91,9.58-3.64,14.48-5.14c55.97-17.04,98.85-10.21,112.18-9.18c63.59,4.77,106.02,37.93,155.94,82.88
	c2.68,2.41,5.25,4.91,7.78,7.47c49.38,49.58,111.44,79.32,143.11,95.14c35.43,17.69,52.76,52.8,60.39,72.37
	C2186.23,410.24,2158.48,484.76,2153.59,499.45z"/>
<g>
	<path class="st3" d="M1806.96,320.14c-15.36-17.44-24.77-13.94-31.76-13.25c-5.69,0.55-16.4,6.63-20.24,8.92l-1.38,0.83
		l-4.59-29.07c-0.03,0-0.03,0-0.03,0l-1.68-10.68c0,0,0.15-0.17,0.44-0.52c0.96-1.16,3.46-4.07,6.21-6.81
		c3.5-3.49,6.96-10.83,8.03-15.36c1.03-4.53,1.38-43.24,1.38-43.24l1.38-1.77c0,0,0.03-0.15,0.11-0.4c0.53-1.82,2.87-9.73,4.07-12.5
		c1.42-3.11,1.77-7.3,3.85-12.55c2.1-5.23-0.7-9.76-2.08-14.64c-1.38-4.88-5.6-4.88-9.41-8.03c-3.83-3.14-5.6-8.37-6.98-13.25
		c-1.38-4.91-2.8-4.91-8.38-5.95c-5.57-1.03-10.48,1.03-15.7-1.03c-5.23-2.11-7.33-2.46-16.06-2.11
		c-8.72,0.35-10.8,10.48-12.9,12.91c-2.08,2.45-8.73,2.1-23.74,8.03c-14.98,5.94-10.45,11.52-12.21,17.81
		c-1.73,6.26,1.77,12.9-4.88,24.76c-6.6,11.86-0.69,11.86-2.42,21.97c-1.77,10.11,8.72,26.88,14.63,38.02
		c4.27,8.03,15.34,11.52,21.25,12.88c2.34,0.52,3.87,0.72,3.87,0.72v41.55c0,0-14.29-2.11-31.04-1.77
		c-16.74,0.35-30.71,8.03-37.32,16.05c-6.65,8.03-34.56,73.27-35.25,75.01c-0.2,0.49,0.31,1.1,1.21,1.73
		c2.25,1.68,6.81,3.5,6.81,3.5s-6.15,18.27-10.63,33.47c-1.77,5.88-3.24,11.31-4.01,15.04c-2.8,13.25-2.8,13.94,4.53,26.5
		c0.17,0.29,0.35,0.58,0.55,0.9c0.18,0.28,0.37,0.57,0.58,0.87c0.13,0.2,0.29,0.42,0.44,0.63c0.24,0.33,0.47,0.65,0.74,0.99
		c0.14,0.19,0.28,0.37,0.43,0.56c0.28,0.37,0.58,0.75,0.91,1.15c1.01,1.26,2.16,2.61,3.42,4.04c0.71,0.81,1.45,1.64,2.24,2.49
		c1.45,1.61,3.01,3.27,4.66,4.98c0.62,0.65,1.25,1.32,1.9,1.97c0.63,0.66,1.28,1.33,1.95,2v0.01c0.29,0.3,0.58,0.6,0.88,0.89
		c0.3,0.29,0.6,0.6,0.89,0.89c7.42,7.48,15.42,15.11,21.39,20.71c1.03,0.96,1.99,1.87,2.89,2.7c0.54,0.49,1.05,0.98,1.53,1.43
		c0.02,0.02,0.06,0.05,0.08,0.07c0.03,0.02,0.06,0.04,0.07,0.06c0,0,0,0,0.01,0.02c0.01,0,0.02,0.01,0.05,0.03
		c0.03,0.02,0.07,0.04,0.11,0.08c0.18,0.17,0.35,0.33,0.51,0.48c2.51,2.33,4.03,3.71,4.03,3.71s0,0-0.05,0.33
		c-0.01,0.05-0.02,0.09-0.02,0.16c-0.08,0.46-0.21,1.41-0.5,3.26c-0.01,0.15-0.05,0.31-0.07,0.48c-0.03,0.26-0.08,0.54-0.12,0.84
		c-0.03,0.21-0.07,0.44-0.1,0.67c-0.05,0.28-0.09,0.57-0.14,0.89c-0.02,0.15-0.05,0.3-0.07,0.47c-0.03,0.25-0.07,0.49-0.11,0.75
		c-0.03,0.26-0.08,0.53-0.12,0.8c-0.05,0.35-0.1,0.73-0.17,1.12c-0.06,0.39-0.11,0.81-0.18,1.24c-0.1,0.6-0.19,1.24-0.28,1.91
		c-0.27,1.75-0.56,3.73-0.9,5.99c-0.14,0.91-0.28,1.86-0.43,2.84c0,0.01,0,0.03-0.01,0.06v0.03c-0.25,1.7-0.52,3.52-0.82,5.5
		c-0.07,0.48-0.15,0.99-0.22,1.5c-0.27,1.84-0.56,3.8-0.88,5.89c-0.13,0.94-0.28,1.91-0.43,2.91c-0.15,0.99-0.3,2-0.45,3.05
		c-0.2,1.29-0.41,2.63-0.61,4.01c-0.21,1.44-0.44,2.92-0.66,4.46c-0.11,0.78-0.23,1.55-0.34,2.34c-0.08,0.58-0.16,1.16-0.24,1.74
		c-0.18,1.34-0.35,2.69-0.51,4.04c-0.08,0.67-0.16,1.35-0.23,2.02c-0.07,0.62-0.14,1.23-0.19,1.84c-0.11,1.08-0.21,2.17-0.32,3.25
		c-0.16,1.7-0.29,3.4-0.42,5.09c-0.08,1.12-0.17,2.22-0.22,3.35c-0.01,0.25-0.03,0.51-0.05,0.75c3.34,2.42,6.78,4.79,10.31,7.11
		c2.13,1.52,9.45,6.88,21.12,13.93c6.41,3.86,14.12,8.23,23.02,12.75c11.98,6.07,26.08,12.43,41.95,18.15
		c21.19,7.65,45.54,14.19,72.24,17.53l-1.11-44.01l-0.66-28.12l-0.11-4.64l-0.96-41.89l0.44-11.75l0.82-22.25v-0.01l0.12-3.32
		l-1.64-18.11c0,0,0-0.07-0.01-0.19c-0.01-0.11-0.02-0.26-0.03-0.44l-0.65-7.08v-0.01l-0.17-1.79l-0.64-7.04v-0.03l-4.79-52.93
		l-0.52-5.67l-2.37-26.02v-30.7l16.87,23.28l2.34,3.23l4.33,2.01l9.95,4.63l19.89-22.69l2.55-20.61l0.54-4.44l0.06-0.42
		C1845.33,360.62,1822.29,337.59,1806.96,320.14z M1642.14,428.12h5.03c0,0,1.99-4.01,3.5-11.75c1.5-7.71,6.56-17.79,6.56-17.79
		c2.53,67.53-6.07,95.08-6.07,95.08s-0.02-0.01-0.05-0.03c-0.01-0.02-0.03-0.03-0.07-0.06c-0.08-0.07-0.18-0.16-0.33-0.28
		c-0.09-0.08-0.2-0.17-0.33-0.28c-0.91-0.79-2.55-2.25-4.57-4.19c-0.4-0.39-0.83-0.81-1.27-1.25c-0.45-0.45-0.92-0.92-1.41-1.42
		c-0.06-0.06-0.11-0.11-0.16-0.17c-0.11-0.12-0.24-0.24-0.35-0.38c-0.31-0.31-0.61-0.63-0.92-0.94c-1.64-1.71-3.32-3.59-4.9-5.63
		c-0.18-0.2-0.35-0.4-0.49-0.57c-0.29-0.35-0.5-0.61-0.66-0.81c-6.99-9.01-2.52-19.52-2.52-19.52L1642.14,428.12z"/>
	<path class="st4" d="M1772.75,183.74c-2.08,5.25-2.42,9.44-3.84,12.56c-1.21,2.77-3.55,10.68-4.07,12.5
		c-0.95-1.33-2.05-2.94-3.12-4.82c-3.03-5.23-4.5-8.98-7.01-13.48c-2.48-4.5-6.5-3-12.5,0c-6.01,3-26.01,5.49-38.02,4.99
		c-12.01-0.49-10.28,4.13-10.28,4.13l-0.23,26.39c0,0,0,0-3.49-1.01c-8.52-0.49-10.51,5.02-10.51,11.52c0,6.99,12.01,11,12.01,11
		s1.5,4.5,1.99,15.5c0.23,4.71,0.26,8.89,0.2,12.1c-5.92-1.36-16.98-4.85-21.25-12.88c-5.92-11.14-16.4-27.92-14.64-38.02
		c1.73-10.1-4.19-10.1,2.42-21.97c6.64-11.87,3.15-18.51,4.88-24.77c1.76-6.29-2.77-11.87,12.21-17.81
		c15.01-5.92,21.65-5.57,23.73-8.03c2.11-2.42,4.19-12.56,12.91-12.9c8.72-0.35,10.83,0,16.05,2.11c5.23,2.08,10.13,0,15.71,1.04
		c5.57,1.04,6.99,1.04,8.37,5.95c1.39,4.88,3.15,10.1,6.99,13.25c3.81,3.15,8.03,3.15,9.41,8.03
		C1772.06,173.98,1774.86,178.51,1772.75,183.74z"/>
	<path class="st5" d="M1801.09,681.65c-26.7-3.34-51.05-9.88-72.24-17.53c-15.87-5.72-29.97-12.08-41.95-18.15
		c-8.89-4.52-16.61-8.9-23.02-12.75c-11.67-7.05-18.99-12.41-21.12-13.93c-3.53-2.32-6.97-4.69-10.31-7.11
		c0.01-0.25,0.03-0.51,0.05-0.75c0.06-1.14,0.15-2.23,0.22-3.35h0.01l11.98-3.96l5.03,0.48l65.82,6.27l10.68-0.89l5.69-0.48
		l64.6-5.39l2.66,0.75l0.11,4.64l0.66,28.12L1801.09,681.65z"/>
	<path class="st6" d="M1845.33,360.62l-3.15,25.46l-19.89,22.69l-14.29-6.64l-19.2-26.5v30.69l2.89,31.7l7.94,87.62l-1.39,37.33
		l1.07,46.54l-4.07,1.18c0,0-8,2.51-91.06,3c-41.23,0.26-61.61-0.98-71.68-2.28c0.49-7.88,1.27-15.85,2.45-23.67
		c7.33-49.19,7.33-49.19,7.33-49.19s-3.78-3.44-9.27-8.57l8.69-45.33c5.05,5.37,9.44,9.01,9.44,9.01s8.6-27.54,6.06-95.07
		c0,0-5.05,10.08-6.55,17.78c-1.5,7.74-3.49,11.75-3.49,11.75h-3.78c-2.83-1.96-6.64-4.07-11.66-6
		c-9.32-3.64-25.12-10.02-36.38-13.71c-0.9-0.64-1.41-1.24-1.21-1.73c0.69-1.73,28.61-66.98,35.25-75
		c6.61-8.03,20.58-15.71,37.33-16.05c16.74-0.35,31.04,1.76,31.04,1.76c17.06,12.33,30.95,8.69,37.96,8.17
		c6.99-0.49,17.87-8.89,17.87-8.89l1.39-0.84c3.84-2.28,14.55-8.37,20.24-8.92c6.99-0.69,16.4-4.19,31.76,13.25
		C1822.3,337.58,1845.33,360.62,1845.33,360.62z"/>
	<path class="st7" d="M1748.96,287.58c-24.89-0.4-30.52-7.1-32.77-9.09c-2.43-2.17,0.4-2.19,8.6-1.18
		c7.88,0.95,13.89,1.41,22.92-0.92c-0.29,0.35-0.43,0.52-0.43,0.52L1748.96,287.58z"/>
	<path class="st3" d="M2116.16,472.64c-1.25-4.01-2.02-5.12-7.77-16.43c-5.75-11.32-33.8-36.75-45.32-46.97
		c-11.53-10.26-9.88-21.4-9.88-27c0-5.57,3.59-7.44,7.14-13.34c3.58-5.88,2.65-13.48,2.65-32.7c0-19.23-26.36-35.97-26.36-35.97
		s-35.51-15.36-38-17.07c-2.47-1.7-1.7-2.77-2.01-5.71c-0.33-2.95-2.02-18.94-5.75-35.51c-3.72-16.6-33.63-28.7-43.88-29.29
		c-10.22-0.64-17.35-9.79-21.55-22.49c-4.18-12.71-15.04-18.62-23.1-25.27c-8.07-6.67-23.27-7.13-34.26-7.44
		c-11.03-0.31-22.34,8.69-25.29,11.31c-2.95,2.63-30.37,30.37-36.75,38.11c-6.35,7.71,0,16.63,2.49,20.82
		c2.49,4.18,18.15,11.6,18.15,11.6l0.03,0.78l0.57,11.49c0,0,0.33,19.84,0.64,30.43c0.29,10.59,2.02,11.58,5.25,16.86
		c3.26,5.23,14.5,9.13,18.88,9.94h0.11c4.27,0.78,3.18,3.69,3.18,3.69s0.09,0.64,0.09,4.31c0,1.47-0.03,3.46-0.09,6.08
		c-0.15,9.15-3.41,25.9-4.1,32.75c-0.41,3.95-2.01,5.02-5.97,5.43c-1.71,0.17-3.88,0.22-6.58,0.34c-1.93,0.09-4.14,0.2-6.65,0.4
		c-11.92,0.98-16.69,6.18-19.71,12.76c-0.55,1.18-1.07,2.43-1.54,3.7c-1.55,4.13-3.53,12.93-5.13,20.67
		c-0.4,1.95-0.78,3.81-1.11,5.53c-1,5.06-1.66,8.76-1.66,8.76l8.38,8.88l1.61,5.29l12.59,41.37c0,0,0.15,0.78,0.33,1.83
		c0.16,0.92,0.35,2.07,0.48,3.07c0.28,2.14,0,16.08-0.81,22.64c-0.84,6.56-4.91,20.19-7.66,26.74c-0.84,2.04-1.18,5.09-1.26,8.37
		v0.01c-0.03,1.5-0.01,3.03,0.06,4.52c0.21,5.72,0.94,10.85,0.94,10.85l3,7.34l4.91,16.65l13.91,81.01l12.02,32.17
		c0.29,0,0.59,0,0.88,0.01h0.16c17.7,0.28,70.99-0.92,133.39-26.27c2.27-21.06,1.95-40.25,1.95-40.25l2.23-0.2l6.47-0.55
		c0,0,0.15-0.02,0.43-0.02c2.6-0.26,16.46-1.62,23.74-2.45c8.09-0.96,7.44-2.17,18.76-4.51c11.32-2.34,10.54-4.96,23.28-11.46
		c12.7-6.52,17.81-11.81,23.56-18.77c5.74-6.98,18.61-22.95,18.61-22.95s2.78-10.24,5.89-15.82c3.09-5.57,7.46-22.77,8.52-28.7
		c1.09-5.88,1.87-4.94,3.26-13.94C2123.9,489.09,2117.4,476.68,2116.16,472.64z M1934.59,488.86l-0.05-0.06l-7.94-10.36l-4.53-12.16
		l-1.51-28.79l2.58-6.61l3.46-8.34c0,0.02,0,0.05,0.01,0.07c0.03,0.09,0.1,0.28,0.2,0.55c0,0,0,0,0,0.01l0.29,0.75
		c0.15,0.4,0.34,0.89,0.55,1.43l0.74,1.9c0,0,0.16,0.42,0.43,1.11c0.07,0.18,0.15,0.37,0.23,0.58c0.02,0.06,0.05,0.12,0.08,0.19
		c0.83,2.1,1.73,4.43,2.52,6.48c0.29,0.74,0.65,2.01,1.06,3.64c0.03,0.11,0.07,0.24,0.1,0.38c0.34,1.36,0.7,2.96,1.08,4.71
		c0.19,0.9,0.39,1.88,0.61,2.91c1.82,8.63,3.86,19.65,4.94,25.81c0.01,0.09,0.02,0.18,0.04,0.27c0.09,0.48,0.17,0.96,0.25,1.39
		c0.08,0.46,0.15,0.89,0.21,1.3c0.01,0.07,0.02,0.14,0.03,0.2c0.11,0.64,0.19,1.1,0.23,1.35c0.04,0.31,0.08,0.64,0.1,0.98
		c0.01,0.03,0.01,0.08,0.01,0.11c0.24,2.87-0.11,6.36-0.11,6.36l-5.57,3.87C1934.63,488.92,1934.62,488.9,1934.59,488.86z"/>
	<path class="st7" d="M1873.39,309.41c-1.47,1.47-4.91,5.89-17.96,7.36c0-3.67-0.09-4.3-0.09-4.3s1.1-2.92-3.18-3.7
		c5.54,0.52,9.35,0.32,14.52-0.38C1873.08,307.53,1875.27,307.53,1873.39,309.41z"/>
	<path class="st8" d="M1998.35,589.33l-1.45,27.34c-0.28,0-0.43,0.02-0.43,0.02l-6.47,0.55l-2.23,0.2c0,0,0.33,19.18-1.95,40.25
		c-62.4,25.35-115.69,26.55-133.39,26.27h-0.16c-0.29-0.01-0.58-0.01-0.88-0.01l-12.02-32.17l-13.91-81.01l-4.91-16.65l-3-7.34
		c0,0-0.73-5.13-0.94-10.85c-0.07-1.5-0.09-3.02-0.06-4.52v-0.01c0.08-3.27,0.42-6.33,1.26-8.37c2.74-6.56,6.81-20.19,7.66-26.74
		c0.81-6.56,1.09-20.5,0.81-22.64c-0.14-1-0.33-2.15-0.48-3.07c-0.18-1.06-0.33-1.83-0.33-1.83l-12.59-41.37l-0.54-13.19v-39.64
		c3.03-6.58,7.79-11.79,19.71-12.76c2.51-0.2,4.71-0.31,6.65-0.4c1.61,1.55,3.65,2.91,6.04,4.1c20.11,10.04,63.91,7.85,67.06,7.33
		c2.26-0.37,9.57-2.19,14.54-3.46c0.01,0,0.01,0,0.01,0c2.79-0.72,4.82-1.25,4.82-1.25l20.23,12.34c0,0,0,0-5.59,0.73
		c-0.98,0.12-2.14,0.27-3.5,0.45c-9.7,1.18-14.38,10.85-16.15,15.04c-1.46,3.53-0.06,20.56,0.44,25.9c0,0.02,0,0.05,0.01,0.07
		c0.03,0.49,0.08,0.89,0.1,1.15v0.01c0.02,0.24,0.03,0.37,0.03,0.37s-0.97,6.24-2.42,13.45c-0.08,0.43-0.15,0.78-0.2,1.05
		c-0.01,0.07-0.03,0.14-0.05,0.21c-0.44,2.16-0.92,4.37-1.44,6.51c-0.66,2.77-0.64,6.43-0.27,10.27c0,0.03,0.01,0.07,0.01,0.1
		c0.17,1.77,0.42,3.56,0.7,5.32c0.02,0.04,0.02,0.09,0.02,0.15c1.28,7.83,3.35,14.88,3.35,14.88l7.97,12.56
		c0.01,0.02,0.02,0.03,0.03,0.05l0.08,0.12l0.05,0.06c0.03,0.05,0.05,0.07,0.05,0.07l14.23,22.42h0.01
		c0.16,0.25,0.51,0.82,1.03,1.66L1998.35,589.33z"/>
	<path class="st9" d="M2122.51,498.07c-1.39,9.01-2.17,8.05-3.26,13.94c-1.07,5.92-5.43,23.12-8.52,28.7
		c-3.12,5.57-5.89,15.82-5.89,15.82s-12.88,15.97-18.62,22.95c-5.75,6.96-10.86,12.24-23.56,18.77
		c-12.73,6.5-11.95,9.12-23.27,11.46c-11.32,2.34-10.68,3.55-18.77,4.5c-7.28,0.84-21.13,2.19-23.73,2.45
		c-0.29,0-0.43,0.03-0.43,0.03l-6.47,0.55c-0.29-1.67-0.52-3-0.58-3.75c0.32-11.26-3.98-34.12-5.51-41.2
		c-1.53-7.04-35.13-61.09-35.13-61.09s18.85-14.41,20.38-17.47c1.56-3.09,0-15.65,0-22.11c0-6.44-2.74-32.82-4.91-45.85
		c-2.14-12.99-11.95-36.69-15.33-41.6c-3.38-4.91-22.58-14.84-22.58-14.84s-15.19-6.64-21.02-10.94c-5.8-4.3-7.36-8.6-12.88-21.48
		c-5.51-12.9-6.15-33.78-6.15-33.78s0.92-14.12,1.24-21.16c0.29-7.04,3.98-2.77,10.74-10.13c6.76-7.36,3.67-3.06,5.83-9.82
		c2.14-6.76-5.54-6.76-5.54-6.76s-7.36,1.53-13.19,0s-4.59-5.83-4.91-12.59c-0.29-6.76-0.29-7.04-1.85-7.97
		c-7.04-1.53-19.92,2.77-28.21,4.91c-5.66,1.47-17.06,0.92-23.7,0.43l-0.03-0.78c0,0-15.68-7.42-18.16-11.61
		c-2.48-4.19-8.83-13.11-2.48-20.82c6.38-7.74,33.81-35.48,36.75-38.11c2.94-2.63,14.26-11.63,25.29-11.32
		c11,0.32,26.18,0.78,34.27,7.45c8.05,6.64,18.91,12.56,23.1,25.26c4.19,12.7,11.32,21.85,21.54,22.49
		c10.25,0.61,40.16,12.7,43.88,29.3c3.72,16.57,5.43,32.56,5.75,35.51c0.32,2.94-0.46,4.01,2.02,5.72
		c2.48,1.7,37.99,17.06,37.99,17.06s26.36,16.74,26.36,35.97c0,19.23,0.92,26.82-2.66,32.71c-3.55,5.89-7.13,7.77-7.13,13.34
		c0,5.6-1.65,16.74,9.87,26.99c11.52,10.22,39.58,35.65,45.32,46.97c5.75,11.32,6.53,12.41,7.77,16.43
		C2117.4,476.68,2123.9,489.09,2122.51,498.07z"/>
	<path class="st9" d="M1926.82,423.17c0,0-2.09,12.63-2.69,15.47s-3.31,7.11-1.74,17.1c1.56,9.99,1.22,18.47,6.35,25.24
		c5.13,6.78,5.89,7.95,5.89,7.95l5.57-3.87c0,0,1.39-0.2-0.81-12.19s-5.63-29.95-6.68-33.59s-4.31-12.01-4.31-12.01L1926.82,423.17z
		"/>
	<path class="st3" d="M1916.12,537.36c0,0-2.05,30.76-5.31,49.95c-3.24,19.2-15.65,52-15.65,52c-7.39,19.49-18.02,10.91-26.3,2.93
		c-5.75-5.53-15.96-20.15-22.34-29.7c-2.77-4.16-4.79-7.33-5.42-8.43c-2.06-3.58-2.34,3.58-2.06,10.94
		c0.21,5.44,8.76,47.24,13.25,68.91c-0.29-0.01-0.58-0.01-0.88-0.01c-2.28-0.02-4.58,0-6.86,0.03c-15.04,0.28-29.55-0.6-43.45-2.34
		c-26.7-3.34-51.05-9.88-72.24-17.53l2.86-50.69l0.22-3.92l0.17-2.99h-3.26c0,0-0.96,1.3-2.6,3.46V610c-0.78,1.01-1.7,2.2-2.74,3.53
		c-5.76,7.3-15.3,18.75-24.48,26.64c-4.28,3.67-8.34,5.36-12.11,5.79c-8.89-4.52-16.61-8.9-23.02-12.75
		c-3.19-4.85-7.14-12.85-10.47-20.21c-1.36-3-2.62-5.89-3.68-8.41c-1.43-3.4-2.51-6.12-3-7.56c-1.36-3.85-5.1-22.85-7.71-36.63
		v-0.03c-1.38-7.3-2.44-13.1-2.65-14.44c-0.57-3.85-13.85-11.81-20.96-18.62c-7.1-6.78-4.42-9.15-4.42-9.15l-1.12-10.68
		c0.11,0.11,0.22,0.21,0.34,0.33c2.23,2.16,14.72,14.3,22.83,22.07c1.87,1.78,3.5,3.33,4.72,4.48c6.85,6.41,15.01,8.97,15.59,9.14
		c0.01,0.01,0.02,0.01,0.03,0.02l4.31,10.39l27.45,53.46l12.71-21.85l1.73-2.54l2.69-3.96c0,0,1.43-2.55,3.55-6.33
		c3.22-5.72,8.04-14.28,11.91-21.13c2.19-3.89,4.09-7.22,5.23-9.18c4.42-7.68,14.75-10.91,21.57-11.81c0.29-0.03,0.58-0.07,0.88-0.1
		c3.99-0.43,9.38-0.31,13.19-0.17c0.18,0.01,0.27,0.02,0.27,0.02c2.63,0.11,4.45,0.25,4.45,0.25s0.38-15.97,0.29-24.77
		c0-3.34-0.09-5.66-0.29-5.66c-0.37-0.08-0.72-0.15-1.07-0.26c-10.89-2.54-16.05-9.36-18.33-14.5c-2.36-5.34-0.57-18.33,0.61-27.76
		c1.16-9.47,2.65-19.52,2.65-19.52l0.58-6.5c0,0-0.07-0.34-0.12-0.94c-0.22-1.93-0.63-6.59-0.17-11.75
		c0.57-6.79,1.47-10.33,5.03-18.01c3.54-7.68,17.12-2.65,21.85-2.32c0.24,0.02,0.47,0.03,0.71,0.06c0.24,0.02,0.47,0.04,0.71,0.08
		c0.24,0.02,0.48,0.05,0.72,0.08c0.24,0.02,0.47,0.06,0.72,0.09c2.91,0.4,6.18,1.1,11.6,2.25c0.06,0.01,0.11,0.02,0.17,0.03
		c0.56,0.12,1.15,0.25,1.77,0.37c0.75,0.16,1.53,0.33,2.36,0.49c0.27,0.06,0.53,0.11,0.81,0.17c0.27,0.06,0.54,0.11,0.82,0.17
		c4,0.82,7.11,1.43,9.83,2.07c0.27,0.07,0.53,0.13,0.8,0.19c0.43,0.11,0.83,0.21,1.24,0.33c2,0.53,3.83,1.12,5.75,1.9
		c2.02,0.81,4.13,1.83,6.61,3.19c8.57,4.73,10.62,17.43,13.88,31.32c0.57,2.44,0.76,4.87,0.67,7.24c-0.01,0.39-0.03,0.79-0.07,1.17
		c-0.02,0.38-0.06,0.76-0.1,1.15c-0.03,0.29-0.07,0.58-0.11,0.89c-0.07,0.49-0.15,1.01-0.24,1.51c-0.1,0.57-0.22,1.15-0.35,1.71
		c-0.14,0.6-0.29,1.19-0.45,1.77c-0.09,0.29-0.17,0.58-0.26,0.87c-0.08,0.28-0.17,0.55-0.26,0.83c-0.08,0.26-0.17,0.53-0.26,0.79
		c-0.27,0.78-0.55,1.52-0.83,2.24c-0.11,0.26-0.21,0.52-0.33,0.78c-0.06,0.15-0.12,0.28-0.17,0.42c-0.18,0.39-0.36,0.79-0.53,1.16
		c-0.11,0.24-0.21,0.46-0.33,0.69c-0.1,0.22-0.21,0.44-0.32,0.65c-0.75,1.51-1.5,2.81-2.14,3.86c-0.19,0.29-0.36,0.56-0.52,0.81
		c-0.17,0.26-0.31,0.49-0.46,0.7c-0.27,0.4-0.5,0.72-0.65,0.93c-1.75,2.34-10.04,13.57-12.7,19.21
		c-2.65,5.6-14.46,16.82-14.46,16.82l1.52,21.42v0.01l0.01,0.14l17.04,2.28v0.01l0.63,0.08c0,0,0.55,0.06,1.47,0.11
		c3.76,0.35,13.76,1.3,19.2,2.25c6.78,1.18,13.6,6.79,18.31,10.63c2.33,1.88,6.23,8.86,9.6,15.45v0.01
		c3.46,6.79,6.35,13.18,6.35,13.18l3.85,8.57l-2.23,3.64l-0.15,0.2c0,0,0.29,1.47,2.66,6.21c2.36,4.73,5.92,1.47,5.92,1.47
		s8.25-28.07,10.91-33.67c0.69-1.45,1.05-3.25,1.18-5.11c0.43-5.31-0.85-11.14-0.85-11.14l-0.33-12.1l0.03-0.05
		c0.3-0.51,2.89-4.72,6.78-9.72c2.44-3.14,6.72-6.48,9.83-8.7h0.01c2.15-1.53,3.73-2.52,3.73-2.52s0.61,18.62,0.61,21.85
		C1914.08,535.31,1916.12,537.36,1916.12,537.36z"/>
	<path class="st4" d="M1825.15,471.51c-1.76,2.34-10.05,13.57-12.7,19.2c-2.66,5.6-14.46,16.83-14.46,16.83s-0.61-9.47-1.5-12.41
		c-0.87-2.94,1.18-10.05,2.97-15.07c1.76-5.02,2.37-5.89,6.21-9.15c3.84-3.23,4.71-5.92,6.18-10.97c1.5-5.05-4.13-7.65-10.48-7.04
		c-6.35,0.58-2.8-8.29-2.51-13.89c0.29-5.6-7.68-7.39-19.49-8.26c-9.15-0.69-25.06-0.32-31.73-0.09c-0.23-1.93-0.63-6.58-0.17-11.75
		c0.58-6.78,1.47-10.34,5.02-18.01c3.55-7.68,17.12-2.66,21.85-2.31c4.74,0.35,8.86,1.42,20.38,3.78
		c11.52,2.37,15.65,2.97,24.22,7.68c8.57,4.73,10.62,17.44,13.89,31.32C1836.09,455.26,1826.91,469.14,1825.15,471.51z"/>
	<path class="st7" d="M1786.09,500.38c-1.76,1.1-5.95,4.53-22.49,5.43c0-3.35-0.09-5.66-0.29-5.66c-0.37-0.09-0.72-0.14-1.07-0.26
		c6.15,0.38,10.42,0.23,16.23-0.26C1785.75,498.99,1788.23,498.99,1786.09,500.38z"/>
	<path class="st0" d="M1839.04,615.05c0.21,5.44,8.76,47.24,13.25,68.91c-0.29-0.01-0.58-0.01-0.88-0.01
		c-2.28-0.02-4.58,0-6.86,0.03c-15.04,0.28-29.55-0.6-43.45-2.34c-26.7-3.34-51.05-9.88-72.24-17.53l2.86-50.69l0.22-3.92l0.17-2.99
		h-3.26c0,0-0.96,1.3-2.6,3.46l-26.67-26.99l2.69-3.96c0,0,1.43-2.55,3.55-6.33c3.22-5.72,8.04-14.28,11.91-21.13
		c2.19-3.89,4.09-7.22,5.23-9.18c4.42-7.68,14.75-10.91,21.57-11.81c0.29-0.03,0.58-0.07,0.88-0.1c5.78-0.65,11.86-0.26,13.19-0.17
		c0.18,0.01,0.27,0.02,0.27,0.02s1.33,6.98,6.88,14.1c5.72,7.73,22.9,8.31,32.95,6.79c3.17-0.47,5.63-1.17,6.8-1.91
		c4.23-2.69,8.13-7.74,11.12-13.39c0.43-0.82,0.84-1.66,1.24-2.51c0.32-0.64,0.57-1.27,0.81-1.82c3.76,0.35,13.76,1.3,19.2,2.25
		c6.78,1.18,13.6,6.79,18.31,10.63c2.33,1.88,6.23,8.86,9.6,15.45v0.01c3.46,6.79,6.35,13.18,6.35,13.18l3.85,8.57l-2.23,3.64
		l-27.22,27.23c-2.77-4.16-4.79-7.33-5.42-8.43C1839.04,600.53,1838.75,607.69,1839.04,615.05z"/>
	<path class="st3" d="M1770.01,582.6c-0.9,3.09-2.66,3.52-3.55,5.74s-3.98,4.45-3.98,4.45s-4.45,0.87-6.21,1.33
		c-1.79,0.43-3.98,0.87-6.64,0.43c-2.66-0.43-4.01,0-11.09-2.22c-7.1-2.19-8.43-3.52-16.83-10.19c-8.43-6.64-11.98-7.07-16.4-9.73
		c-4.39-2.63-63.28-34.76-67.56-38.05c-0.09-0.06-0.14-0.11-0.17-0.14c-0.03-0.03-0.09-0.09-0.14-0.12c-1.3-1.21-2.77-2.6-4.42-4.13
		c-5.97-5.6-13.97-13.23-21.39-20.72c-0.59-0.6-1.18-1.19-1.76-1.79c-8.09-8.24-15.21-16.08-17.81-20.57
		c-7.33-12.56-7.33-13.25-4.53-26.5c0.78-3.72,2.25-9.15,4.01-15.04c14.55,4.47,41.6,12.76,41.6,12.76s-4.47,10.51,2.51,19.52
		c0.17,0.2,0.37,0.46,0.66,0.81c0.15,0.17,0.32,0.37,0.49,0.58c1.3,1.5,3.35,3.84,5.83,6.58c0.12,0.14,0.23,0.26,0.35,0.37
		c6.93,7.77,16.92,18.56,22.43,23.5c8.43,7.53,58.49,46.97,58.49,46.97s8.43,3.55,13.74,3.55s20.84-3.98,18.62,0
		c-2.22,3.98-5.77,2.22-8.43,5.31c-2.66,3.09-0.43,5.31,6.21,7.97C1760.69,575.93,1770.88,579.48,1770.01,582.6z"/>
	<path class="st3" d="M1850.1,578.62c0,0,4.56-0.27,4.29-4.02s0.54-6.97-4.29-3.75c-4.83,3.22-10.46,2.19-5.9-1.32
		c4.56-3.51,8.04-6.99,12.33-7.26c4.29-0.27,9.54-1.72,9.22-2.34c-0.32-0.62,27.32-28.74,27.32-28.74l28.82-31.96
		c0,0,8.81-7.58,12.72-10.3c3.92-2.72,18.86,18.62,18.86,18.62l-15.18,12.5l-22.18,17.32c0,0-26.34,20.35-27.15,21.42
		c-0.8,1.07-15.47,12.03-16.85,14.32c-1.38,2.3-5.94,10.61-8.62,13.02s-4.02,5.09-7.77,6.43c-3.75,1.34-4.56,3.54-6.97,2.17
		s-2.3,0.78-3.43-2.44c-1.13-3.22,1.4-4.83,0-6.7c-1.4-1.88-1.66,0-1.4-1.88c0.27-1.88,0.65-1.88,1.4-2.95
		S1847.13,579.66,1850.1,578.62z"/>
</g>
</svg>
