<?xml version="1.0" encoding="utf-8"?>
<!-- Generator: Adobe Illustrator 24.0.1, SVG Export Plug-In . SVG Version: 6.00 Build 0)  -->
<svg version="1.0" id="Layer_1" xmlns="http://www.w3.org/2000/svg" xmlns:xlink="http://www.w3.org/1999/xlink" x="0px" y="0px"
	 viewBox="0 0 2442.25 741.04" style="enable-background:new 0 0 2442.25 741.04;" xml:space="preserve">
<style type="text/css">
	.st0{fill:#FFFFFF;}
	.st1{opacity:0.43;fill:#DB4187;}
	.st2{opacity:0.5;fill:#DB4187;}
	.st3{fill:#DB4187;}
	.st4{fill:#125C99;}
	.st5{fill:#4ECEC0;}
	.st6{fill:#F6B1B5;}
	.st7{fill:#E0949B;}
	.st8{fill:#3AC0B7;}
	.st9{fill:#AFAFAF;}
	.st10{fill:#B3DCF5;}
	.st11{fill:#ED6000;}
	.st12{fill:#E3B58E;}
</style>
<rect class="st0" width="2442.25" height="741.04"/>
<rect class="st1" width="2442.25" height="741.04"/>
<path class="st2" d="M1676.25,451.88C694.05,650.09,222.42,584.11,0.27,495.63V0h1955C1992.98,101.56,2052.48,369.03,1676.25,451.88
	z"/>
<path class="st3" d="M491.12,46.35C479.36,310.24,224.22,487.82,0,593.44V0h489.11C491.19,14.42,491.84,29.85,491.12,46.35z"/>
<path class="st3" d="M2442.25,0v741.04h-497.37c2.56-30.04,68.68-143.74,78.52-197.88c40.16-220.95-409.12-427.43-546-543.16
	H2442.25z"/>
<g>
	<g>
		<path class="st4" d="M1861.99,131.75c1.31,0.92-1.07,49.43-8.96,66.98c-5.37,18.98-9.67,48-5.37,68.78
			c0,18.27-1.75,20.42-1.75,20.42l290.47,67.7c0,0,9.31-30.45,0-49.79c-3.94-9.67-5.73-20.06,9.31-9.67
			c8.6,5.37,9.76,8.24,9.76,8.24s1.7-27.22-12.27-46.21s-41.91-36.54-51.22-44.42c-9.31-7.88-41.91-27.25-58.03-73.44
			c-15.76-44.76-28.66-80.94-70.92-92.41c-13.97-3.22-59.1-9.31-87.04,8.24c-4.66,3.22-25.07,21.49-26.51,40.84
			C1848.73,104.52,1851.24,124.22,1861.99,131.75z"/>
		<path class="st0" d="M1478.79,307.25c0,0,0.71,5.76,15.37,23.25c15.06,17.59,41.35,29.42,55.7,43.77
			c4.75,4.75,8.49,10.61,11.32,16.28c1.42,2.83,2.63,5.56,3.54,8.09c1.41,3.64,2.43,6.77,3.03,9.2c0.61,2.32,1.01,3.84,1.11,4.45
			c-0.81,12.74,1.11,15.67,4.85,23.05c65.91,96.54,138.5,115.65,155.68,117.57s42.96-22.95,44.89-28.71
			c-1.11,12.23-2.83,84.01-4.04,141.63c-0.2,3.64-0.2,7.28-0.3,10.72c-0.81,36.19-1.31,64.5-1.31,64.5h320.87
			c0,0-1.42-172.87-0.91-175.3c20.52,0,48.22-12.43,48.22-12.43c30.13-14.76,15.27-114.13,13.34-142.74
			c-7.08-108.47-81.58-136.58-97.86-141.43c-6.37-1.92-17.79-2.93-29.42-3.64c-9-0.51-17.99-0.81-25.07-0.91l-12.84-0.2l-1.01-42.46
			c17.19-12.43,13.45-22.95,14.36-32.96c1.01-10.11-19.61-1.52-19.61-1.52s0.51-15.27-2.32-30.53
			c-2.93-15.27-10.01-16.58-10.01-16.58h-96.54c0.51,0,1.72,0.4,0.81,5.36c-1.72,32.65,2.22,65.61,10.11,80.27
			c13.95,25.37,37.91,24.36,38.62,31.54c1.11,7.88-3.94,11.83-3.94,11.83s0,0-1.01-0.81c-0.1-0.1-0.3-0.2-0.4-0.3
			c-0.71,0.71-1.92,1.41-3.24,1.92c-6.27,2.43-17.19,2.73-17.19,2.73s-1.92,0.3-4.95,1.01c-10.51,1.82-34.98,6.47-45.49,8.69
			c-61.16,23.25-133.85,156.9-134.76,156.9c-26.49-16.48-91.19-61.46-108.57-77.74c-1.11-1.11-2.12-2.12-2.83-2.93
			c-5.46-6.37-10.21-8.9-13.65-9.91c-3.54-1.01-5.66-0.4-5.66-0.4s-14.36-11.83-13.95-14.05c2.12-21.43-5.36-35.79-8.29-42.26
			c-2.83-6.37-8.59-2.53-7.89,11.83c4.35,22.95-9.3,7.58-9.3,7.58s-32.96-34.07-38.31-39.43c-5.36-5.36-10.41-7.88-11.42-6.47
			c-1.11,1.41,1.72,7.88,1.72,7.88s13.65,21.53,17.29,26.49c3.54,5.05-0.81,3.94-14.05-6.07c-13.24-10.01-12.54-1.82-10.01,3.54
			c16.88,13.34,17.59,17.99,13.65,17.29c-3.94-0.81-4.35-1.82-11.12-7.58C1479.2,301.48,1478.79,307.25,1478.79,307.25z"/>
		<path class="st5" d="M1830.18,741.04h121.82l4.25-171.45c0,0,0,0-7.58-1.92c-7.68-1.92,0-5.26,0-5.26h17.69c0,0,0,0,0-2.32
			c-2.43-30.13-26.79-44.99-37.3-49.74c-10.51-4.75-2.43-7.18-2.43-7.18h39.22c0,0,0,0,8.09-67.33
			c7.48-59.04,38.42-142.24,48.93-170.34c-9-0.51-17.99-0.81-25.07-0.91c-0.2,2.43-0.51,5.46-0.91,9.4
			c-32.05,65.41-79.76,60.15-85.02,51.05c-4.04-6.98-2.22-39.83-1.11-54.89c-3.44,1.31-8.19,2.02-11.83,2.33
			c-3.03,0.3-5.36,0.4-5.36,0.4s-1.92,0.3-4.95,1.01c-15.06,20.62-24.26,61.87-31.24,99.88c-8.09,44.89-21.03,224.93-21.03,224.93
			L1830.18,741.04z"/>
		<path class="st6" d="M1870.61,145.7c-1.72,32.65,2.22,65.61,10.11,80.27c11.93,21.74,31.24,24.16,37,28.91
			c0.91,0.81,1.52,1.62,1.62,2.63c0.81,6.07-2.22,9.3-4.95,11.02c-0.91,0.51-1.72,0.91-2.33,1.11c-0.81,0.4-1.31,0.51-1.31,0.51
			s-0.71,10.21-1.41,34.88c-2.12,24.77,5.76,22.75,7.58,23.66c31.44,8.29,51.46-15.67,68.04-34.37
			c16.48-18.7,12.84-29.72,12.84-29.72l-12.84-0.2l-1.01-42.46c17.19-12.43,13.45-22.95,14.36-32.96
			c1.01-10.11-19.61-1.52-19.61-1.52s0.51-15.26-2.33-30.53c-2.93-15.27-10.01-16.58-10.01-16.58h-96.54
			C1870.31,140.34,1871.52,140.75,1870.61,145.7z"/>
		<path class="st7" d="M1911.56,274.39c0.3,5.05,2.43,6.67,4.55,8.09c1.72,1.17,2.53,1.02,10.61-0.56
			c8.86-1.73,17.23-6.03,23.15-12.84c9.97-11.45,14.72-25.94,15.27-28.85c0.91-4.87-1.6-3.52-8.22,1.49
			c-14.51,12-34.24,13.47-39.19,13.17c0.91,0.81,1.52,1.62,1.62,2.63c0.81,6.07-2.22,9.3-4.95,11.02c-0.91,0.51-1.72,0.91-2.33,1.11
			C1911.76,271.56,1911.56,273.28,1911.56,274.39z"/>
		<path class="st8" d="M1830.18,741.04h10.61c1.72-44.68,6.37-154.47,14.05-274.87c7.99-125.05,33.76-177.52,44.08-193.69
			c-3.03,0.3-5.36,0.4-5.36,0.4s-1.92,0.3-4.95,1.01c-15.06,20.62-24.26,61.87-31.24,99.88c-8.09,44.89-21.03,224.93-21.03,224.93
			L1830.18,741.04z"/>
		<path class="st9" d="M1824.83,374.6c0,0,1.98,1.14,1.17,1.32c-1.57,0.35-6.69,0.18-8.36,2.85c-2.53,4.04-3.14,13.27-2.24,15.85
			s-0.55,6.08-2.44,2.48c-2.04-3.88-0.8-9.82-0.48-13.42C1812.81,380.06,1819.23,370.43,1824.83,374.6"/>
		<g>
			<path class="st4" d="M1958.28,479.71c23.25,9.3,51.96-7.08,65.81-37c0.61-1.31,1.11-2.63,1.72-4.04
				c13.04-32.35,3.94-66.52-20.22-76.22c-24.26-9.81-54.49,8.59-67.53,40.94c-1.62,4.14-2.93,8.29-3.84,12.33
				C1927.54,444.03,1937.15,471.12,1958.28,479.71z M1939.47,417.34c0.1,0,0.1,0,0.1,0c0.71-3.94,1.92-7.99,3.54-11.93
				c11.52-28.61,38.31-44.89,59.75-36.29c21.43,8.69,29.42,38.92,17.89,67.53c-0.61,1.52-1.21,2.93-2.02,4.45
				c-12.33,25.88-37.4,40.03-57.72,31.84C1942.51,465.56,1934.01,442.11,1939.47,417.34z"/>
			<path class="st4" d="M1958.28,479.71c23.25,9.3,51.96-7.08,65.81-37c0.61-1.31,1.11-2.63,1.72-4.04
				c13.04-32.35,3.94-66.52-20.22-76.22c-24.26-9.81-54.49,8.59-67.53,40.94c-1.62,4.14-2.93,8.29-3.84,12.33
				C1927.54,444.03,1937.15,471.12,1958.28,479.71z M1939.47,417.34c0.1,0,0.1,0,0.1,0c0.71-3.94,1.92-7.99,3.54-11.93
				c11.52-28.61,38.31-44.89,59.75-36.29c21.43,8.69,29.42,38.92,17.89,67.53c-0.61,1.52-1.21,2.93-2.02,4.45
				c-12.33,25.88-37.4,40.03-57.72,31.84C1942.51,465.56,1934.01,442.11,1939.47,417.34z"/>
			<path class="st4" d="M2006.52,366.07c0,0,13.25-67.7,0-92.24c-5.37-12.18-6.27-13.61-6.27-13.61h-12.72
				c0,0,14.69,7.88,15.94,30.81c0.36,6.63,3.02,32.42-3.5,69.67C1998.28,364.1,2006.52,366.07,2006.52,366.07z"/>
			<path class="st9" d="M1958.28,479.71c23.25,9.3,51.96-7.08,65.81-37c-1.82-0.51-3.54-1.01-5.36-1.62
				c-12.33,25.88-37.4,40.03-57.72,31.84c-18.5-7.38-26.99-30.83-21.53-55.6c-1.72-0.51-3.54-1.01-5.26-1.62
				C1927.54,444.03,1937.15,471.12,1958.28,479.71z"/>
			
				<ellipse transform="matrix(0.1543 -0.988 0.988 0.1543 1201.1754 2364.8606)" class="st4" cx="1981.94" cy="480.8" rx="4.48" ry="7.61"/>
			
				<ellipse transform="matrix(0.319 -0.9478 0.9478 0.319 881.1378 2161.4844)" class="st4" cx="1944.6" cy="467.62" rx="4.48" ry="7.61"/>
			<path class="st4" d="M1914.82,264.69c-1.25,1.07-58.75,26.98-78.81,106.27c-2.15,5.49-2.15,5.49-2.15,5.49s6.21,3.1,3.34,17.43
				c-3.82,7.4-13.61,17.19-22.45,8.12c-1.91-5.01-2.39-6.69-2.39-6.69s4.54,3.34,8.84,3.1s10.75-3.58,9.55-14.33
				c-1.43-7.88-4.06-9.55-8.84-7.4c-2.15,0-4.3-2.39-1.19-3.34c3.1-0.96,7.16,0.26,9.31-6.56c2.15-6.81,10.75-28.07,15.52-37.86
				c4.78-9.79,26.75-46.33,44.18-56.36C1907.18,262.55,1914.82,264.69,1914.82,264.69z"/>
		</g>
		<path class="st6" d="M1478.79,307.28c0,0,0.71,5.76,15.37,23.25c15.06,17.59,41.35,29.42,55.7,43.77
			c4.75,4.75,8.49,10.61,11.32,16.28c1.42,2.83,2.63,5.56,3.54,8.09h30.83c3.34-10.92,4.14-26.49,4.25-36.9
			c-1.11-1.11-2.12-2.12-2.83-2.93c-5.46-6.37-10.21-8.9-13.65-9.91c-3.54-1.01-5.66-0.4-5.66-0.4s-14.36-11.83-13.95-14.05
			c2.12-21.43-5.36-35.79-8.29-42.26c-2.83-6.37-8.59-2.53-7.89,11.83c4.35,22.95-9.3,7.58-9.3,7.58s-32.96-34.07-38.31-39.43
			c-5.36-5.36-10.41-7.88-11.42-6.47c-1.11,1.41,1.72,7.88,1.72,7.88s13.65,21.53,17.29,26.49c3.54,5.05-0.81,3.94-14.05-6.07
			c-13.24-10.01-12.54-1.82-10.01,3.54c16.88,13.34,17.59,17.99,13.65,17.29c-3.94-0.81-4.35-1.82-11.12-7.58
			C1479.2,301.52,1478.79,307.28,1478.79,307.28z"/>
		<path class="st5" d="M1561.18,390.58l6.57,17.29c1.42,2.63,2.83,5.05,3.84,6.57c3.64,5.56,5.26,3.74,17.19-4.35
			c2.93-2.22,5.16-6.27,6.77-11.42c3.34-10.92,4.14-26.49,4.25-36.9c-1.11-1.11-2.12-2.12-2.83-2.93
			c-5.46-6.37-10.21-8.9-13.65-9.91c-0.51,0.3-0.61,0.81-0.3,1.52C1586.46,366.42,1567.55,384.92,1561.18,390.58z"/>
		<path class="st10" d="M1998.33,498.7c-0.19,0.02,34.89-5.54,55.86-11.06c6.99-1.84,12.45-3.68,14.6-5.32
			c1.91-0.81,0.48-67.82-16.24-99.03c-1.43,0.31-1.91,95.36-1.91,95.36S2007.15,497.75,1998.33,498.7z"/>
		
			<rect x="1978.11" y="665.86" transform="matrix(-1 -4.510893e-11 4.510893e-11 -1 4043.5535 1342.4716)" class="st10" width="87.34" height="10.75"/>
		<path class="st10" d="M1769.94,676.54h26.59v-10.72h-26.28C1770.04,669.47,1770.04,673.1,1769.94,676.54z"/>
		<polyline class="st11" points="1849.71,498.7 1826.88,415.72 1679.12,415.72 1736.91,598.52 1887.35,598.52 1826.88,415.72 		"/>
		<polygon class="st12" points="1782.66,412.06 1782.66,423.73 1724.63,423.71 1724.63,410.63 1782.66,410.63 		"/>
		<polygon class="st12" points="1768.33,406.72 1768.33,418.39 1740.86,418.37 1740.86,405.28 1768.33,405.28 		"/>
		<path class="st6" d="M1898.67,505.52l2.63,0.36c0,0,19.7,8.24,21.13,26.51c-0.72,10.75,8.96,13.97-12.18,11.46
			c-21.13-2.51-30.45-4.66-48.72-5.37s-23.64,1.43-31.52-7.16s-15.76-23.28-16.48-25.43s0-4.66,0-4.66h41.63l-6.88-20.42
			c0,0,11.86,1.43,22.05,12.9c7.68,7.52,17.35,10.03,24.16,11.1S1898.67,505.52,1898.67,505.52"/>
	</g>
	<g>
		<polygon class="st0" points="1791.35,517.97 1760.79,517.97 1758.58,509.99 1788.72,509.99 		"/>
		<polygon class="st0" points="1783.48,529.38 1774.69,529.38 1766.45,498.72 1775.23,498.7 		"/>
	</g>
</g>
</svg>
