<?xml version="1.0" encoding="utf-8"?>
<!-- Generator: Adobe Illustrator 24.0.1, SVG Export Plug-In . SVG Version: 6.00 Build 0)  -->
<svg version="1.0" id="Layer_1" xmlns="http://www.w3.org/2000/svg" xmlns:xlink="http://www.w3.org/1999/xlink" x="0px" y="0px"
	 viewBox="0 0 68 63" style="enable-background:new 0 0 68 63;" xml:space="preserve">
<style type="text/css">
	.st0{fill:#05B1CA;}
</style>
<g>
	<path class="st0" d="M16.49,19.59c0-2.27,1.9-4.17,4.17-4.17c2.27,0,4.17,1.9,4.17,4.17s-1.9,4.17-4.17,4.17
		C18.39,23.76,16.49,21.86,16.49,19.59z M17.19,25.8h6.96V49h-6.96V25.8z"/>
	<path class="st0" d="M51.51,34.76V49h-6.96V35.78c0-2.88-1.81-4.22-4.04-4.22c-2.55,0-4.31,1.48-4.31,4.78V49h-6.96V25.8h6.96v2.18
		c1.25-1.72,3.57-2.83,6.63-2.83C47.52,25.15,51.51,28.49,51.51,34.76z"/>
</g>
</svg>
