<?xml version="1.0" encoding="utf-8"?>
<!-- Generator: Adobe Illustrator 24.0.1, SVG Export Plug-In . SVG Version: 6.00 Build 0)  -->
<svg version="1.0" id="Layer_1" xmlns="http://www.w3.org/2000/svg" xmlns:xlink="http://www.w3.org/1999/xlink" x="0px" y="0px"
	 viewBox="0 0 68 63" style="enable-background:new 0 0 68 63;" xml:space="preserve">
<style type="text/css">
	.st0{fill:#05B1CA;}
</style>
<path class="st0" d="M34,14.56c-5.69,0-10.22,4.6-10.22,10.22c0,0.98,0.11,1.95,0.46,2.81c0,0.23,0.06,0.4,0.17,0.63
	c0.06,0.11,0.12,0.29,0.17,0.46c0.06,0.12,0.17,0.29,0.23,0.52c0.06,0.17,0.17,0.4,0.29,0.63C27.57,35.7,34,50.93,34,50.93l8.9-21.2
	l0.75-1.78l0.12-0.23c0-0.06,0-0.06,0-0.12c0.34-0.86,0.46-1.84,0.46-2.81C44.23,19.16,39.63,14.56,34,14.56z M38.31,27.6
	c-0.98,1.44-2.53,2.36-4.31,2.36s-3.33-0.92-4.31-2.36c-0.52-0.8-0.8-1.78-0.8-2.81c0-2.81,2.3-5.11,5.11-5.11s5.11,2.3,5.11,5.11
	C39.11,25.82,38.83,26.8,38.31,27.6z"/>
</svg>
