<?xml version="1.0" encoding="utf-8"?>
<!-- Generator: Adobe Illustrator 24.0.1, SVG Export Plug-In . SVG Version: 6.00 Build 0)  -->
<svg version="1.0" id="Layer_1" xmlns="http://www.w3.org/2000/svg" xmlns:xlink="http://www.w3.org/1999/xlink" x="0px" y="0px"
	 viewBox="0 0 222 63" style="enable-background:new 0 0 222 63;" xml:space="preserve">
<style type="text/css">
	.st0{fill:#0A5A6B;}
	.st1{font-family:'Gilroy-ExtraBold';}
	.st2{font-size:15.6462px;}
	.st3{fill:#05B1CA;stroke:#05B1CA;stroke-miterlimit:10;}
	.st4{font-family:'Gilroy-Light';}
	.st5{font-size:16.0012px;}
	.st6{fill:#05B1CA;}
	.st7{fill:#F2F6FC;}
</style>
<g>
	<g>
		<text transform="matrix(1 0 0 1 56.0002 29)" class="st0 st1 st2">Athanasios Efthymiou</text>
	</g>
	<g>
		<text transform="matrix(1 0 0 1 55.1677 45.3833)" class="st3 st4 st5">Insurance Group</text>
	</g>
	<g>
		<path class="st6" d="M21.95,28.4c-0.84,0.79-0.85,2.13-0.02,2.94c0.01,0.02,0.03,0.03,0.04,0.04c0.79,0.77,2.04,0.78,2.83,0.02
			l3.65-3.48c0.63-0.52,1.28-1,2-1.02c0.73-0.02,1.23,0.3,1.99,0.97c1.11,0.99,5.85,5.76,9.23,9.18c-0.04,0.08-0.07,0.17-0.11,0.25
			c-2.39,5.23-7.67,8.86-13.79,8.86c-8.38,0-15.17-6.79-15.17-15.17c0-0.35,0.01-0.7,0.04-1.04l8.07,8.2
			c0.95,0.97,2.15,1.67,3.48,1.95c0.85,0.18,1.8,0.2,2.64-0.19c1.24-0.62,4.83-3.91,6.91-5.87c0.85-0.8,0.85-2.15,0-2.96
			c-0.05-0.05-0.11-0.1-0.16-0.15c-0.81-0.77-2.08-0.74-2.86,0.05L27,34.77c-0.52,0.53-1.22,0.86-1.96,0.84
			c-0.62,0-1.35-0.23-2.02-0.98c-1.01-1.13-5.85-5.94-9.31-9.36c2.26-5.54,7.7-9.45,14.06-9.45c8.38,0,15.17,6.79,15.17,15.17
			c0,0.56-0.03,1.11-0.1,1.66l-8.1-8.24c-0.94-0.95-1.92-1.73-3.17-2.02c-0.84-0.19-1.7-0.24-2.87,0.29
			C27.49,23.28,24,26.46,21.95,28.4z"/>
		<path class="st7" d="M42.84,32.65c0,0.04-0.01,0.08-0.02,0.12C42.83,32.73,42.83,32.69,42.84,32.65
			C42.83,32.65,42.84,32.65,42.84,32.65z"/>
	</g>
</g>
</svg>
