<?xml version="1.0" encoding="utf-8"?>
<!-- Generator: Adobe Illustrator 24.0.1, SVG Export Plug-In . SVG Version: 6.00 Build 0)  -->
<svg version="1.0" id="Layer_1" xmlns="http://www.w3.org/2000/svg" xmlns:xlink="http://www.w3.org/1999/xlink" x="0px" y="0px"
	 viewBox="0 0 79 79" style="enable-background:new 0 0 79 79;" xml:space="preserve">
<style type="text/css">
	.st0{fill:#FFFFFF;}
</style>
<path class="st0" d="M52.58,21.33h-14c-0.87,0-1.65,0.61-1.65,1.48v32.78c0,0.78,0.78,1.48,1.65,1.48h14c0.96,0,1.65-0.7,1.65-1.48
	V22.81C54.23,21.94,53.53,21.33,52.58,21.33z M45.62,56.29c-0.96,0-1.74-0.7-1.74-1.65c0-0.96,0.78-1.74,1.74-1.74
	c0.87,0,1.65,0.78,1.65,1.74C47.27,55.59,46.49,56.29,45.62,56.29z M51.45,51.85H39.71V24.72h11.74V51.85z"/>
</svg>
