<?xml version="1.0" encoding="utf-8"?>
<!-- Generator: Adobe Illustrator 24.0.1, SVG Export Plug-In . SVG Version: 6.00 Build 0)  -->
<svg version="1.0" id="Layer_1" xmlns="http://www.w3.org/2000/svg" xmlns:xlink="http://www.w3.org/1999/xlink" x="0px" y="0px"
	 viewBox="0 0 110.91 96.14" style="enable-background:new 0 0 110.91 96.14;" xml:space="preserve">
<style type="text/css">
	.st0{fill:#05B1CA;}
	.st1{fill:#F2F6FC;}
</style>
<g>
	<path class="st0" d="M41.25,41.58c-2.13,2-2.15,5.37-0.06,7.41c0.03,0.04,0.07,0.07,0.11,0.11c1.98,1.94,5.14,1.96,7.14,0.04
		l9.2-8.77c1.59-1.31,3.22-2.51,5.05-2.56c1.85-0.05,3.1,0.75,5.01,2.44c2.81,2.5,14.76,14.52,23.26,23.14
		c-0.09,0.21-0.18,0.42-0.28,0.62c-6.03,13.18-19.33,22.34-34.77,22.34c-21.13,0-38.25-17.13-38.25-38.25
		c0-0.88,0.02-1.76,0.09-2.61l20.34,20.68c2.4,2.44,5.43,4.22,8.78,4.91c2.15,0.45,4.53,0.5,6.66-0.47
		c3.12-1.56,12.17-9.85,17.41-14.8c2.14-2.02,2.15-5.43,0.01-7.46c-0.13-0.13-0.27-0.26-0.4-0.38c-2.03-1.93-5.24-1.87-7.2,0.13
		l-9.37,9.54c-1.31,1.33-3.08,2.16-4.94,2.13c-1.56-0.01-3.4-0.58-5.09-2.48c-2.54-2.85-14.75-14.98-23.48-23.61
		C26.16,19.71,39.89,9.86,55.91,9.86c21.12,0,38.24,17.12,38.24,38.24c0,1.42-0.08,2.81-0.24,4.18L73.49,31.51
		c-2.37-2.4-4.83-4.37-8-5.09c-2.11-0.48-4.28-0.61-7.23,0.72C55.22,28.66,46.43,36.69,41.25,41.58z"/>
	<path class="st1" d="M93.92,52.29c-0.01,0.1-0.02,0.2-0.04,0.3c0.02-0.1,0.03-0.2,0.03-0.31C93.91,52.29,93.92,52.29,93.92,52.29z"
		/>
</g>
</svg>
