<?xml version="1.0" encoding="utf-8"?>
<!-- Generator: Adobe Illustrator 24.0.1, SVG Export Plug-In . SVG Version: 6.00 Build 0)  -->
<svg version="1.0" id="Layer_1" xmlns="http://www.w3.org/2000/svg" xmlns:xlink="http://www.w3.org/1999/xlink" x="0px" y="0px"
	 viewBox="0 0 68 63" style="enable-background:new 0 0 68 63;" xml:space="preserve">
<style type="text/css">
	.st0{fill:#05B1CA;}
</style>
<path class="st0" d="M47.24,42.03l-3.78,3.36c-1.05,0.88-2.35,1.39-3.7,1.09c-6.3-1.51-11.88-7.47-11.88-7.47s-5.8-5.75-7.1-12.14
	c-0.25-1.34,0.29-2.6,1.22-3.65l3.44-3.65c0,0,1.34-0.34,2.02,1.13c1.01,1.81,2.73,5.38,2.73,5.38s0.67,1.01-0.38,1.97
	c-1.09,1.01-1.85,1.39-1.22,2.52c0.67,1.13,1.43,2.35,2.27,3.28c0.55,0.63,0.92,0.97,1.09,1.13c0.04,0.04,0.08,0.08,0.08,0.08
	l1.09,1.09c0.92,0.88,2.1,1.72,3.19,2.39c1.13,0.67,1.55-0.04,2.56-1.13c1.01-1.05,1.97-0.34,1.97-0.34s3.53,1.85,5.33,2.9
	C47.61,40.73,47.24,42.03,47.24,42.03z"/>
</svg>
