<?xml version="1.0" encoding="utf-8"?>
<!-- Generator: Adobe Illustrator 24.0.1, SVG Export Plug-In . SVG Version: 6.00 Build 0)  -->
<svg version="1.0" id="Layer_1" xmlns="http://www.w3.org/2000/svg" xmlns:xlink="http://www.w3.org/1999/xlink" x="0px" y="0px"
	 viewBox="0 0 2442.25 741.04" style="enable-background:new 0 0 2442.25 741.04;" xml:space="preserve">
<style type="text/css">
	.st0{fill:#FFFFFF;}
	.st1{opacity:0.55;fill:#6ECED6;}
	.st2{fill:#64CCCC;}
	.st3{fill:#5D721C;}
	.st4{fill:#FDF1A9;}
	.st5{fill:#E3D899;}
	.st6{fill:#764D42;}
	.st7{fill:#BEB481;}
	.st8{fill:#FF6018;}
	.st9{fill:#CF5017;}
	.st10{fill:#FDFAE6;}
	.st11{fill:#639A97;}
	.st12{fill:#A2E7EC;}
	.st13{fill:#B1936E;}
	.st14{opacity:0.48;fill:#FDFAE6;}
	.st15{fill:#A4534D;}
	.st16{fill:#FD7D73;}
</style>
<rect class="st0" width="2442.25" height="741.04"/>
<rect class="st1" width="2442.25" height="741.04"/>
<path class="st1" d="M1676.25,451.88C694.05,650.09,222.42,584.11,0.27,495.63V0h1955C1992.98,101.56,2052.48,369.03,1676.25,451.88
	z"/>
<path class="st2" d="M491.12,46.35C479.36,310.24,224.22,487.82,0,593.44V0h489.11C491.19,14.42,491.84,29.85,491.12,46.35z"/>
<path class="st2" d="M2442.25,0v741.04h-497.37c2.56-30.04,68.68-143.74,78.52-197.88c40.16-220.95-409.12-427.43-546-543.16
	H2442.25z"/>
<g>
	<path class="st3" d="M2053.9,599.14c0,0,44.54,17.21,74.27-19.94c9.91-11.38,16.65-26.52,17.44-37.38
		c0.79-11.66,1.59-9.92,1.59-9.92s23.19-10.8,26.16-41.15c2.97-30.35-7.39-69.44-30.45-82.6c-17.12-10.19-17.12-10.19-17.12-10.19
		s-30.43-42.22-55.35-46.38c-24.92-4.16-68.33-6.54-87.36,9.51s-33.89,51.31-33.89,51.31l-19.62,12.32c0,0-16.4,133.73,6.96,152.79
		c20.39,15.49,86.07,19.49,86.07,19.49L2053.9,599.14z"/>
	<path class="st4" d="M1394.99,704.16c-2.02,2.01,547.34,0,547.34,0V450.83l-97.26-136.19h-349.98l-99.5,144.59
		c0.04,9.14,0.07,18.43,0.09,27.79C1395.99,591.15,1396.07,703.08,1394.99,704.16z"/>
	<polygon class="st5" points="1942.53,488.73 1942.33,704.16 1617.14,704.16 1617.14,480.63 	"/>
	<path class="st6" d="M1250.1,714.72h838.27c1.27,0,2.3-1.03,2.3-2.3v-5.06c0-1.27-1.03-2.3-2.3-2.3H1250.1
		c-1.27,0-2.3,1.03-2.3,2.3v5.06C1247.8,713.69,1248.83,714.72,1250.1,714.72z"/>
	<path class="st7" d="M1942.53,490.8l-0.2,25.07l-325.49-15.08c0,0-0.38-3.96,0-7.92c0.38-3.96-0.17-4.15-0.17-4.15"/>
	<polygon class="st8" points="1376.46,487.03 1394.97,488.04 1506.64,327.21 1617.14,487.41 1617.22,487.53 1617.22,494.08 
		1968.54,494.08 1968.54,487.53 1968.46,487.41 1942.33,450.83 1845.07,314.64 1495.08,314.64 1395.59,459.23 	"/>
	<polygon class="st9" points="1617.14,487.41 1617.22,487.53 1617.22,494.08 1968.54,494.08 1968.54,487.53 1968.46,487.41 	"/>
	<rect x="1665.22" y="529.5" class="st10" width="231.45" height="91.22"/>
	<g>
		<rect x="1825.8" y="541.82" class="st11" width="60.06" height="65.84"/>
		<rect x="1825.8" y="547.35" class="st12" width="53.28" height="60.31"/>
		<rect x="1852.44" y="547.35" class="st10" width="3.39" height="60.31"/>
		<rect x="1825.8" y="575.81" class="st10" width="53.28" height="3.39"/>
	</g>
	<g>
		<rect x="1751.98" y="541.82" class="st11" width="60.06" height="65.84"/>
		<rect x="1751.98" y="547.35" class="st12" width="53.28" height="60.31"/>
		<rect x="1778.62" y="547.35" class="st10" width="3.39" height="60.31"/>
		<rect x="1751.98" y="575.81" class="st10" width="53.28" height="3.39"/>
	</g>
	<g>
		<rect x="1676.9" y="541.82" class="st11" width="60.06" height="65.84"/>
		<rect x="1676.9" y="547.35" class="st12" width="53.28" height="60.31"/>
		<rect x="1703.54" y="547.35" class="st10" width="3.39" height="60.31"/>
		<rect x="1676.9" y="575.81" class="st10" width="53.28" height="3.39"/>
	</g>
	<path class="st10" d="M1531.77,401.59c-0.75,0-53.28,0-53.28,0v60.06h53.28v-58.81V401.59z"/>
	<path class="st11" d="M1521.22,412.4c-0.45,0-31.66,0-31.66,0v38.95h31.66v-38.14V412.4z"/>
	<path class="st12" d="M1521.22,417.42c-0.35,0-24.63,0-24.63,0v33.93h24.63v-33.22V417.42z"/>
	<path class="st10" d="M1510.22,417.42c-0.04,0-2.89,0-2.89,0v33.93h2.89v-33.22V417.42z"/>
	<path class="st10" d="M1521.22,435.7c0-0.04,0-2.89,0-2.89h-24.63v2.89h24.11H1521.22z"/>
	<polygon class="st13" points="1376.46,487.03 1394.97,488.04 1506.64,327.21 1497.32,314.64 1495.08,314.64 1395.59,459.23 	"/>
	<rect x="1470.2" y="596.99" class="st14" width="72.63" height="108.06"/>
	<rect x="1480.26" y="609.81" class="st15" width="50.26" height="95.24"/>
	<rect x="1487.04" y="615.09" class="st16" width="43.48" height="89.97"/>
	<circle class="st10" cx="1493.58" cy="656.55" r="2.26"/>
	<g>
		<path class="st6" d="M2059.49,709.89c1.59-2.38,0-185.52,0-185.52h-11.89v185.52H2059.49z"/>
		<path class="st6" d="M2053.9,592.55c0,0-24.14-6.34-32.07-17.05c-7.93-10.7-12.29-17.44-13.08-19.82s2.38-27.35,2.38-27.35
			l1.59-13.08l0.79-5.15l-4.88-1.98c0,0,0.52-6.74-1.85,2.77s-3.17,35.68-3.17,35.68v2.61l-7.53-8.55l-4.76,2.77l12.29,21.01
			l9.12,12.69c0,0,10.7,18.24,36.87,25.77C2050.77,602.06,2053.9,592.55,2053.9,592.55z"/>
		<path class="st6" d="M2056.72,531.89c2.83-1.19,12.69,1.98,17.05-7.53s9.51-18.57,9.51-18.57l-1.98-5.22h-4.76l-0.4,5.22
			c0,0-4.76,18.57-16.65,18.57c-8.72,1.98-8.72,1.98-8.72,1.98"/>
		<path class="st6" d="M2056.72,568.36c0,0,10.31,0.4,17.05-9.91s11.5-13.87,12.69-13.48s0,6.74,0,6.74l-3.17,7.53l-6.34,9.12
			l-7.93,5.55l-9.13,2.77l-5.98,0.8L2056.72,568.36z"/>
	</g>
</g>
<path class="st0" d="M1278.98,259.02h188.12c0,0,4.99-38.84-39.95-39.95c0,0-10.54-31.08-28.86-36.07
	c-4.99-1.66-52.16-22.2-74.91,31.08c-2.22,8.32-2.22,8.32-2.22,8.32S1280.09,211.86,1278.98,259.02z"/>
<path class="st0" d="M1298.96,330.61H1191.3c0,0,1.66-19.98,23.31-19.42c1.66,1.66,9.43-29.41,38.84-12.21
	c1.66,2.22,21.64-12.98,31.08,13.21C1285.08,313.96,1298.4,313.96,1298.96,330.61z"/>
</svg>
