<?xml version="1.0" encoding="utf-8"?>
<!-- Generator: Adobe Illustrator 24.0.1, SVG Export Plug-In . SVG Version: 6.00 Build 0)  -->
<svg version="1.0" id="Layer_1" xmlns="http://www.w3.org/2000/svg" xmlns:xlink="http://www.w3.org/1999/xlink" x="0px" y="0px"
	 viewBox="0 0 2442.25 741.04" style="enable-background:new 0 0 2442.25 741.04;" xml:space="preserve">
<style type="text/css">
	.st0{fill:#FFFFFF;}
	.st1{fill:#F4F7FD;}
	.st2{fill:#E5E9FA;}
	.st3{fill:#F7BE89;}
	.st4{fill:#F8AA6C;}
	.st5{fill:#203A38;}
	.st6{fill:#FBFFFF;}
	.st7{fill:#01B1CA;}
	.st8{fill:#F5CB4F;}
	.st9{fill:#DB4187;}
	.st10{fill:#D7D36C;}
	.st11{fill:#1BC0ED;}
	.st12{fill:#B83CCE;}
	.st13{fill:#D1D1D1;}
</style>
<g>
	<rect y="0" class="st0" width="2442.25" height="741.04"/>
	<path class="st1" d="M1676.25,451.88C694.05,650.09,222.42,584.11,0.27,495.63V0h1955
		C1992.98,101.56,2052.48,369.03,1676.25,451.88z"/>
	<path class="st2" d="M491.12,46.35C479.36,310.24,224.22,487.82,0,593.44V0h489.11C491.19,14.42,491.84,29.85,491.12,46.35z"/>
	<path class="st2" d="M2442.25,0v741.04h-497.37c2.56-30.04,68.68-143.74,78.52-197.88c40.16-220.95-409.12-427.43-546-543.16
		H2442.25z"/>
</g>
<g>
	<path d="M2111.12,492.7h-430.61c-9.28,0-16.8-7.52-16.8-16.8V325.81V154.65c0-9.28,7.52-16.8,16.8-16.8h430.61
		c9.28,0,16.8,7.52,16.8,16.8V475.9C2127.93,485.18,2120.4,492.7,2111.12,492.7z"/>
	<rect x="1692.76" y="165.76" class="st0" width="406.68" height="299.03"/>
	<path class="st3" d="M1712.61,492.7c0,0-9.86,38.27-17.92,47.22c-2.49,2.77-4.94,5.88-7.4,9.04c-5.51,7.09-11.01,14.27-16.81,17.57
		c-8.37,4.79-17.65,11.36-17.65,11.36l-6.07,5.09l16.97,16.43l-0.28,0.24l-26.86,25.02l-0.49,0.43l0.84,1.23l4.54,6.56
		l-110.16,108.13h-205.59l215.3-210.07l7.95,6.49l1.89,1.54l0.15-0.15l26.17-27.63l4.48,4.79c0,0,0.12-0.12,0.34-0.37
		c2.15-2.35,14.15-15.62,15.5-19.97c1.5-4.79,4.79-17.94,3.29-24.21c-1.49-6.26,0.3-63.98,6.29-77.72
		c5.97-13.76,29.3-59.19,31.08-63.68c1.8-4.48,9.23-16.43,25.54-18.22h0.01v6.47c0,3.68,0,7.51,0,7.51s1.81-0.73,4.49-0.65
		c3.33,0.07,7.97,1.39,12.03,6.93c0,0,5.13,15.37,5.13,22.21c0,6.83-0.26,20.3-9.81,29.57c-5.99,7.18-8.67,13.46-9.58,16.75
		c-0.89,3.29,0,45.14,0,49.63c0,4.49,12.24,10.77,13.16,42.41v0.05h1.38C1686.91,492.7,1712.61,492.7,1712.61,492.7z"/>
	<path class="st4" d="M1668.21,325.16c-2.47,2.89-5.48,6.43-8.12,9.6c-5.59,6.71-5.23,15.67-8.2,19.76
		c-3,4.11-7.85,8.96-13.82,13.44c-5.97,4.49-10.44,10.84-12.68,17.55c-2.24,6.71-0.38,12.32-4.85,18.29
		c-4.49,5.97-8.96,9.32-11.2,17.17c-2.24,7.83-2.62,13.06-2.62,13.06s-2.24-24.26,5.97-42.54c8.21-18.29,16.05-30.96,18.67-37.69
		c2.62-6.71,11.56-25.37,14.91-28.73c2.74-2.72,5.84-7.19,17.44-6.75c0,3.67,0,7.51,0,7.51S1665.53,325.08,1668.21,325.16z"/>
	<polygon class="st5" points="1641.47,632.91 1531.31,741.04 1325.72,741.04 1541.02,530.97 1548.98,537.46 1550.87,539 
		1551.02,538.86 1636.56,624.67 1636.57,624.68 1636.09,625.12 1636.93,626.35 	"/>
	<path class="st6" d="M1636.09,625.12l0.84,1.22l-87.96-88.88l1.9,1.54l26.32-27.78l4.47,4.79c0,0,0.13-0.13,0.34-0.36l60.83,63
		l20.89,20.76L1636.09,625.12z"/>
	<path class="st4" d="M1712.61,492.7c0,0-9.87,38.26-17.93,47.23c-2.49,2.76-4.94,5.88-7.4,9.03c0.42-3.21,0.97-7.4,1.67-12.89
		c2.26-27.15-9.81-43.37-9.81-43.37C1680.51,492.7,1712.61,492.7,1712.61,492.7z"/>
	<path class="st7" d="M1815.37,285.54h-103.24c-2.51,0-4.55-2.04-4.55-4.55v-90.03c0-2.51,2.04-4.55,4.55-4.55h103.24
		c2.51,0,4.55,2.04,4.55,4.55v90.03C1819.92,283.5,1817.88,285.54,1815.37,285.54z"/>
	<path class="st8" d="M1947.93,285.54H1844.7c-2.51,0-4.55-2.04-4.55-4.55v-90.03c0-2.51,2.04-4.55,4.55-4.55h103.24
		c2.51,0,4.55,2.04,4.55,4.55v90.03C1952.48,283.5,1950.45,285.54,1947.93,285.54z"/>
	<path class="st9" d="M2078.53,285.54h-103.24c-2.51,0-4.55-2.04-4.55-4.55v-90.03c0-2.51,2.04-4.55,4.55-4.55h103.24
		c2.51,0,4.55,2.04,4.55,4.55v90.03C2083.08,283.5,2081.04,285.54,2078.53,285.54z"/>
	<path class="st10" d="M1816.35,400.28h-103.24c-2.51,0-4.55-2.04-4.55-4.55v-90.03c0-2.51,2.04-4.55,4.55-4.55h103.24
		c2.51,0,4.55,2.04,4.55,4.55v90.03C1820.9,398.24,1818.86,400.28,1816.35,400.28z"/>
	<path class="st11" d="M1948.92,400.28h-103.24c-2.51,0-4.55-2.04-4.55-4.55v-90.03c0-2.51,2.04-4.55,4.55-4.55h103.24
		c2.51,0,4.55,2.04,4.55,4.55v90.03C1953.47,398.24,1951.43,400.28,1948.92,400.28z"/>
	<path class="st12" d="M2079.51,400.28h-103.24c-2.51,0-4.55-2.04-4.55-4.55v-90.03c0-2.51,2.04-4.55,4.55-4.55h103.24
		c2.51,0,4.55,2.04,4.55,4.55v90.03C2084.06,398.24,2082.03,400.28,2079.51,400.28z"/>
	<g>
		<path class="st0" d="M1736.26,240.13c-2.32,0.76-3.81,3-3.81,5.45v0.02c0,0.78,0.16,1.53,0.46,2.2h10.5
			c0.3-0.69,0.44-1.45,0.44-2.22v-0.02C1743.85,241.77,1740.21,238.87,1736.26,240.13z M1786.59,240.13c-2.31,0.76-3.81,3-3.81,5.45
			v0.02c0,0.78,0.16,1.53,0.46,2.2h10.5c0.3-0.69,0.44-1.45,0.44-2.22v-0.02C1794.18,241.77,1790.55,238.87,1786.59,240.13z
			 M1801.99,236.52c-2.09-2.89-7.17-3.32-10.3-3.78c-4.68-0.8-6.49-1.84-8.3-3.25c-2.96-2.64-5.94-4.29-8.96-5.68
			c-7.25-3.35-12.91-3.17-17.65-3.1c-9.51-0.12-13.53,3.48-16.16,5.32c-3.41,2.31-8.18,4.52-10.94,5.37
			c-6.15,1.12-5.48,6.9-5.48,6.9c-1.56,1.84-1.51,3.81-1.38,5.84c0.59,3.14,5.36,3.64,5.36,3.64h2.64
			c-0.21-0.69-0.34-1.42-0.34-2.18v-0.04c0-3.26,2.02-6.3,5.14-7.31c5.3-1.7,10.2,2.22,10.2,7.29v0.04c0,0.74-0.11,1.49-0.32,2.2
			h0.35c0,0,20.13,0,35.3,0c-0.21-0.69-0.34-1.42-0.34-2.18v-0.04c0-3.26,2.02-6.3,5.14-7.31c5.3-1.7,10.2,2.22,10.2,7.29v0.04
			c0,0.74-0.11,1.49-0.32,2.2h0.89c5.07,0,6.49-1.58,7.02-2.16C1806.3,243.03,1803.03,238.07,1801.99,236.52z M1758.98,231.79
			c-0.25,0-18.85-0.35-18.85-0.35c6.35-6.88,18.89-6.93,18.89-6.93l0.21,7.29C1759.22,231.79,1759.22,231.79,1758.98,231.79z
			 M1762.49,231.79l-0.34-7.29c11.74,0.21,18.25,7.29,18.25,7.29H1762.49z"/>
		<path class="st0" d="M1743.85,245.55v0.02c0,0.76-0.14,1.53-0.44,2.22c-0.51,1.33-1.53,2.43-2.89,2.98
			c-3.28,1.35-6.46-0.28-7.61-2.98c-0.3-0.67-0.46-1.42-0.46-2.2v-0.02c0-2.45,1.49-4.68,3.81-5.45
			C1740.21,238.87,1743.85,241.77,1743.85,245.55z"/>
		<path class="st0" d="M1794.18,245.55v0.02c0,0.76-0.14,1.53-0.44,2.22c-0.51,1.33-1.53,2.43-2.89,2.98
			c-3.28,1.35-6.46-0.28-7.61-2.98c-0.3-0.67-0.46-1.42-0.46-2.2v-0.02c0-2.45,1.51-4.68,3.81-5.45
			C1790.55,238.87,1794.18,241.77,1794.18,245.55z"/>
	</g>
	<g>
		<path class="st0" d="M1875.57,236.17l20.84-15.59l20.73,15.59v17.32c0,0-0.08,5.61-5.03,5.77c-4.95,0.16-10.72,0-10.72,0v-12.87
			h-11.22v12.94h-8.24c0,0-6.36,0.09-6.36-7.08S1875.57,236.17,1875.57,236.17z"/>
		<path class="st0" d="M1898.3,215.96l-25.25,19.7c-0.37,0.29-0.9,0.22-1.19-0.15l-1.53-1.96c-0.29-0.37-0.22-0.9,0.15-1.19
			l25.25-19.7c0.37-0.29,0.9-0.22,1.19,0.15l1.53,1.96C1898.73,215.14,1898.67,215.68,1898.3,215.96z"/>
		<path class="st0" d="M1893.91,215.96l25.25,19.7c0.37,0.29,0.9,0.22,1.19-0.15l1.53-1.96c0.29-0.37,0.22-0.9-0.15-1.19
			l-25.25-19.7c-0.37-0.29-0.9-0.22-1.19,0.15l-1.53,1.96C1893.47,215.14,1893.54,215.68,1893.91,215.96z"/>
		<rect x="1908.56" y="218.6" class="st0" width="3.63" height="7.26"/>
	</g>
	<g>
		<g>
			<path class="st0" d="M1787.17,356.66c-2.62,2.49-16.81,15.97-20.56,19.63c-0.07,0.07-0.13,0.13-0.18,0.18
				c-0.95,0.93-1.78,1.4-2.49,1.55c-0.78-0.04-1.75-0.47-2.91-1.6c-0.09-0.09-0.18-0.16-0.27-0.24c-0.02-0.02-0.02-0.02-0.02-0.02
				s0,0,0-0.02c-3.91-3.8-17.7-16.9-20.41-19.47h12.37c1,0,1.91-0.67,2.18-1.69l0.71-2.78l1.8-6.99l1.78,6.99l1.13,4.46l3,11.72
				c0.16,0.6,0.56,1.07,1.04,1.35c0.13,0.09,0.27,0.16,0.42,0.2c0.11,0.04,0.22,0.07,0.33,0.09c0.13,0.02,0.27,0.02,0.4,0.02h0.09
				c1,0.02,1.89-0.6,2.15-1.62l3-11.77l0.84-3.29l0.29,1.15l0.24,0.89c0.36,0.73,1.11,1.24,2,1.24H1787.17z"/>
			<path class="st0" d="M1791.26,352.19h-15.39l-2.09-8.19c-0.27-1.07-1.22-1.73-2.29-1.64c-0.11,0-0.22,0-0.33,0.02h-0.02
				c-0.09,0.02-0.16,0.04-0.24,0.07l-0.18,0.07c-0.11,0.04-0.22,0.11-0.33,0.18c-0.09,0.07-0.2,0.13-0.29,0.22
				c-0.36,0.27-0.6,0.67-0.73,1.13l-2.09,8.15l-1.13,4.46l-0.6,2.4l-0.62-2.4l-1.15-4.46l-4.11-16.08l-0.2-0.78
				c-0.18-0.73-0.69-1.29-1.35-1.53c-0.02-0.02-0.07-0.02-0.11-0.04c-1.18-0.31-2.4,0.42-2.71,1.6l-0.18,0.69l-4.13,16.14h-14.77
				c-2.75-3.77-5.75-9.9-3.73-17.3c0.44-1.8,3.18-12.21,17.28-11.46c2.64,0.13,5.2,0.98,7.44,2.4c1.64,1.04,3.77,2.62,6.55,5.06
				c3-2.62,5.24-4.26,6.93-5.29c2.11-1.29,4.55-2.02,7.02-2.13c14.1-0.75,16.83,9.68,17.3,11.46
				C1796.99,342.29,1794.01,348.42,1791.26,352.19z"/>
			<g>
				<path class="st0" d="M1764.76,369.94c0.11,0.04,0.22,0.07,0.33,0.09h-0.07C1764.94,370,1764.85,369.98,1764.76,369.94z"/>
			</g>
		</g>
	</g>
	<g>
		<path class="st0" d="M1927.13,348.29c-2.73-1.31-3.75-4.3-4.52-6.08c-5.06-10.29-13.32-9.91-13.32-9.91s0,0-0.18-0.56
			c-0.2-1.55-1.06-4.79-1.35-6.23c-0.18-1.73-0.95-1.26-1.53-0.97c-0.86,0.47-2.97,4.32-3.53,6.01c-0.58,2-1.73,1.95-2.31,1.84
			c-0.67,0-4.12-0.56-8.23-1.44c-9.96-1.91-16.58,3.55-18.02,4.7c-12.26,12.64-3.24,24.52-3.24,24.52c3.11,4.9,0.56,9.44,0.05,10.97
			c-0.51,1.53,0.46,2.35,0.46,2.35s2.68,1.42,4.08,2.06c1.48,0.69,1.6,0.31,2.04,0.13c0.84-0.51,1.73-3.08,2.5-5.25
			s3.01-1.02,3.57-0.82c5.94,2.3,13.35,1.97,15.23,1.79c1.86-0.2,1.69,0.51,1.69,0.51s2.57,3.64,3.08,4.41
			c0.44,1.28,1.97,0.77,4.26,0.69c2.7-0.38,2.19-1.07,2.24-1.79c-0.31-0.84-0.38-4.08-0.51-5.05c1.86-9.89,12.26-10.69,13.46-10.88
			c4.34-0.31,3.95-0.77,4.21-0.98c0.6-0.31,1.33-2.95,1.66-3.57c0.62-1.29,0.98-2.9,1-3.3
			C1930.04,350.32,1927.62,348.59,1927.13,348.29z M1897.91,335.2c0,0-0.89,1.33-1.15,1.28c-4.79-2.44-10.09,0-10.09,0l-1.09-1.6
			C1893.45,331.94,1897.91,335.2,1897.91,335.2z M1898.67,346.36c-0.87-0.49-1.88-0.75-2.93-0.75c-2.28,0-4.26,1.22-5.34,3.06h7.96
			v2.15h-8.71c-0.07,0.31-0.09,0.62-0.09,0.95c0,0.4,0.04,0.8,0.13,1.18h8.67v2.15h-7.82c1.11,1.69,3.02,2.82,5.19,2.82
			c1.06,0,2.06-0.27,2.93-0.75v3.15c-0.93,0.33-1.91,0.49-2.93,0.49c-3.83,0-7.1-2.37-8.43-5.72h-2.5v-2.15h1.95
			c-0.07-0.38-0.09-0.78-0.09-1.18c0-0.33,0.02-0.64,0.05-0.95h-1.91v-2.15h2.4c1.26-3.48,4.61-5.96,8.53-5.96
			c1.02,0,2,0.16,2.93,0.47V346.36z"/>
	</g>
	<g>
		<rect x="2026.08" y="214.6" class="st0" width="3.63" height="40.21"/>
		
			<rect x="2026.32" y="190.3" transform="matrix(7.103924e-11 -1 1 7.103924e-11 1811.719 2244.0723)" class="st0" width="3.15" height="51.76"/>
		
			<rect x="2026.63" y="245.23" transform="matrix(3.745366e-11 -1 1 3.745366e-11 1771.8165 2283.9746)" class="st0" width="2.53" height="21.69"/>
		<path class="st0" d="M2016.66,233.52v-0.05l-0.99-2.88l-4.96-14.51l-4.96,14.51l-0.99,2.88v0.05c-0.01,0.12-0.02,0.25-0.02,0.37
			c0,3.29,2.67,5.96,5.96,5.96s5.96-2.67,5.96-5.96C2016.68,233.77,2016.67,233.64,2016.66,233.52z M2006.61,233.47l4.1-12.85
			l4.08,12.85H2006.61z"/>
		<polygon class="st0" points="2004.76,233.52 2004.77,233.48 2004.77,233.52 		"/>
		<polygon class="st0" points="2016.68,233.52 2016.67,233.52 2016.67,233.48 		"/>
		<path class="st0" d="M2051.2,233.52v-0.05l-0.99-2.88l-4.96-14.51l-4.96,14.51l-0.99,2.88v0.05c-0.01,0.12-0.02,0.25-0.02,0.37
			c0,3.29,2.67,5.96,5.96,5.96c3.29,0,5.96-2.67,5.96-5.96C2051.22,233.77,2051.21,233.64,2051.2,233.52z M2041.15,233.47l4.1-12.85
			l4.08,12.85H2041.15z"/>
		<polygon class="st0" points="2039.3,233.52 2039.31,233.48 2039.31,233.52 		"/>
		<polygon class="st0" points="2051.22,233.52 2051.21,233.52 2051.21,233.48 		"/>
	</g>
	<path class="st4" d="M2089.24,417.25c-0.23,3.27-0.7,8.18-1.54,13.54c-1.5,9.62-4.49,5.4-9.3,0c-1.77-1.77-3.25-4.2-4.43-6.56
		c2.21,0.23,9.22-2.47,10.31-4.01C2084.73,419.59,2086.63,418.2,2089.24,417.25z"/>
	<path class="st4" d="M2127.9,438.01c-3,2.7-4.49-0.3-6.9-1.48c-1.43-0.7-3.65-5.76-5.15-9.7c1.54-0.04,2.97-0.55,4.18-1.67
		c2.07-1.92,4.66-4.13,7.72-4.96c0.02,0,0.02,0,0.02,0c1.6,1.35,3.84,3.56,4.91,6.1C2134.51,430.5,2130.9,435.31,2127.9,438.01z"/>
	<path class="st4" d="M2156.95,428.45c0.76,1.37,1.56,3.1,2.15,5.04c1.56,5.1,2.7,5.1,1.79,8.1c-0.89,3.02-4.2,3.31-6.58,3.02
		c-2.4-0.32-4.22-3.31-6.31-8.08c-0.86-1.96-1.98-4.32-3.02-6.37L2156.95,428.45z"/>
	<path class="st4" d="M2186.1,453.91c-2.7,4.2-5.7-1.81-6.9-5.1c-0.72-1.96-2.17-7.55-3.23-11.73c3.04,0.68,5.97,0.76,7.64,0.59
		c0.7-0.06,1.56-0.08,2.55,0.04l1.14,5.08C2187.3,442.8,2188.8,449.69,2186.1,453.91z"/>
	<rect x="1708.56" y="420.21" class="st13" width="182.73" height="6.69"/>
	<rect x="1708.56" y="435.76" class="st13" width="317.52" height="3.34"/>
	<rect x="1708.56" y="446.94" class="st13" width="317.52" height="3.34"/>
	<rect x="1708.56" y="458.13" class="st13" width="317.52" height="3.34"/>
	<g>
		<polygon class="st0" points="2015.59,346.15 2015.59,378.73 2002.39,378.73 2002.39,361.02 2014.43,361.02 2014.43,359.56 
			2002.39,359.56 2002.39,353.32 2014.43,353.32 2014.43,351.86 2002.39,351.86 2002.39,346.15 		"/>
		<polygon class="st0" points="2043.87,344.49 2043.87,345.95 2055.89,345.95 2055.89,351.86 2043.84,351.86 2043.84,353.32 
			2055.89,353.32 2055.89,359.56 2043.84,359.56 2043.84,361.02 2055.89,361.02 2055.89,378.73 2042.68,378.73 2042.68,333.72 
			2055.89,333.72 2055.89,344.49 		"/>
		<path class="st0" d="M2015.58,323.84v54.89h10.65v-6.75h5.06v6.75h11.39v-54.89H2015.58z M2023.24,361.02h-4.58v-1.46h4.58V361.02
			z M2023.24,353.32h-4.58v-1.46h4.58V353.32z M2023.24,345.95h-4.58v-1.46h4.58V345.95z M2023.24,338.34h-4.58v-1.46h4.58V338.34z
			 M2023.24,330.97h-4.58v-1.46h4.58V330.97z M2039.98,361.02h-13.75v-1.46h13.75V361.02z M2039.98,353.32h-13.75v-1.46h13.75
			V353.32z M2039.98,345.95h-13.75v-1.46h13.75V345.95z M2039.98,338.34h-13.75v-1.46h13.75V338.34z M2039.98,330.97h-13.75v-1.46
			h13.75V330.97z"/>
	</g>
	<path class="st3" d="M2243.89,599.09l-83.34,53.36c-0.51-2.11-19.11-24.05-27-30.63c-7.91-6.6-25.37-18.46-31.64-27.02
		c-6.24-8.56-23.05-23.39-25.69-27.67c-2.07-3.35-16.98-14.93-24.83-29.59c-2.19-4.09-3.84-8.44-4.49-12.91
		c-1.73-12.02-3.04-33.16-3.8-48.53c-0.53-10.76-0.82-18.67-0.82-18.67l-19.09-59.95c0,0-12.19-49.08-13.52-56
		c-1.31-6.92-2.95-19.43,0-21.41c2.64-1.98,13.18-7.91,19.45,4.94c5.27,14.83,32.61,80.7,32.61,80.7s10.21,17.8,11.85,18.46
		c0.11,0.04,0.23,0.06,0.38,0.06c2.21,0.23,9.22-2.47,10.31-4.01c0.44-0.63,2.34-2.02,4.96-2.97c4.26-1.56,10.42-1.96,15.31,3.94
		c2.85,3.08,7.36,5.82,11.28,5.63h0.02c1.54-0.04,2.97-0.55,4.18-1.67c2.07-1.92,4.66-4.13,7.72-4.96c0.02,0,0.02,0,0.02,0
		c3.29-0.86,7.11-0.13,11.37,4.3c2.36,3.33,4.01,5.04,5.84,5.65c1.22,0.42,2.53,0.34,4.2-0.06c1.29-0.32,3.08-0.86,5.08-1.27
		l2.68-0.38c3.8-0.36,7.93,0.4,10.86,4.62c2.11,2.11,5.19,3.35,8.16,4.01c3.04,0.68,5.97,0.76,7.64,0.59
		c0.7-0.06,1.56-0.08,2.55,0.04c3.69,0.4,8.96,2.45,12.61,9.2c4.6,8.56,19.43,34.91,21.41,53.68c1.31,19.76,1.31,32.95,0,38.56
		c-1.31,5.59-1.98,19.76,6.92,32.27C2235.01,584.27,2243.89,599.09,2243.89,599.09z"/>
	<path class="st4" d="M2076.88,561.86c-3.94-2.3-17.38-12.4-25.48-24.32c-2.19-4.09-3.84-8.44-4.49-12.91
		c-1.73-12.02-3.04-33.16-3.8-48.53c2.76,4.77,5.51,9.96,7.09,14.28c3.97,10.88,19.45,49.74,20.76,51.38
		c1.33,1.67,8.56,17.8,8.56,17.8S2080.85,564.16,2076.88,561.86z"/>
	<path class="st6" d="M2171.43,691.66c0-1.32-22.25-34.26-22.25-34.26l100.65-65.22l23.72,37.55l-35.91,32.94L2171.43,691.66z"/>
	<path class="st5" d="M2354,741.04h-165.89c-9.09-13.42-31.5-46.09-31.5-46.09l12.31-7.68l101.13-63.09l7.47-4.67L2354,741.04z"/>
</g>
</svg>
