<?xml version="1.0" encoding="utf-8"?>
<!-- Generator: Adobe Illustrator 24.0.1, SVG Export Plug-In . SVG Version: 6.00 Build 0)  -->
<svg version="1.0" id="Layer_1" xmlns="http://www.w3.org/2000/svg" xmlns:xlink="http://www.w3.org/1999/xlink" x="0px" y="0px"
	 viewBox="0 0 2442.25 741.04" style="enable-background:new 0 0 2442.25 741.04;" xml:space="preserve">
<style type="text/css">
	.st0{fill:#FFFFFF;}
	.st1{fill:#85D7F5;}
	.st2{fill:#35BDEE;}
	.st3{fill:#00ABEA;}
	.st4{fill:#E0E3E8;}
	.st5{fill:#CDE3F8;}
	.st6{fill:#E4EEF7;}
	.st7{fill:#F8F9FB;}
	.st8{fill:#ABCAE6;}
	.st9{fill:#015297;}
	.st10{fill:#002F57;}
	.st11{fill:#0382C7;}
	.st12{fill:#00163E;}
	.st13{fill:#0C294B;}
	.st14{fill:#D8DEFF;}
	.st15{fill:#E92E00;}
	.st16{fill:#D6DFFF;}
	.st17{fill:#00387D;}
	.st18{fill:none;stroke:#00365E;stroke-miterlimit:10;}
	.st19{fill:#053264;}
	.st20{fill:#04172F;}
	.st21{fill:#F6B1B5;}
	.st22{fill:#ECB93B;}
	.st23{fill:#1C052A;}
	.st24{fill:#2B405F;}
	.st25{fill:#421CAC;}
	.st26{fill:#EDEDED;}
	.st27{fill:#1C2864;}
	.st28{fill:#E0949B;}
	.st29{fill:#AA0807;}
	.st30{fill:#2D2425;}
	.st31{fill:#F24E5E;}
	.st32{fill:#D39B1E;}
	.st33{fill:#012B4D;}
	.st34{fill:#29261E;}
</style>
<rect class="st0" width="2442.25" height="741.04"/>
<rect class="st1" width="2442.25" height="741.04"/>
<path class="st2" d="M1676.25,451.88C694.05,650.09,222.42,584.11,0.27,495.63V0h1955C1992.98,101.56,2052.48,369.03,1676.25,451.88
	z"/>
<path class="st3" d="M491.12,46.35C479.36,310.24,224.22,487.82,0,593.44V0h489.11C491.19,14.42,491.84,29.85,491.12,46.35z"/>
<path class="st3" d="M2442.25,0v741.04h-497.37c2.56-30.04,68.68-143.74,78.52-197.88c40.16-220.95-409.12-427.43-546-543.16
	H2442.25z"/>
<g>
	<rect y="631.53" class="st4" width="2442.25" height="109.11"/>
	<rect x="1294.98" y="402.58" class="st5" width="94.18" height="228.94"/>
	<rect x="1701.12" y="378.89" class="st5" width="75.59" height="252.64"/>
	<rect x="1965.67" y="355.19" class="st5" width="84.59" height="276.33"/>
	<rect x="2225.43" y="378.89" class="st5" width="84.59" height="252.64"/>
	<rect x="1815.7" y="402.58" class="st5" width="68.99" height="228.94"/>
	<path class="st6" d="M2244.63,268.81h114.58c0,0,1.2-16.2-6-18.6c-7.2-2.4-11.4-0.6-15.6,0c-4.2,0.6-9.6,1.2-9.6,1.2
		s-4.8-0.63-9.6-2.41c-4.8-1.79-10.2,0-10.2,0s-9.6-14.98-15.6-16.78c-6-1.8-15.6-5.4-24.9,4.2c-9.3,9.6-11.1,20.4-11.1,20.4
		S2246.43,258.61,2244.63,268.81z"/>
	<path class="st6" d="M1829.5,169.22c2.34,2.73-209.97,0-209.97,0s3.9-16.4,9-24.6c4.42-7.09,22.2-10.8,29.4-2.4
		c5.4,4.8,5.4,4.8,5.4,4.8s9.6-6,16.8-7.2c7.2-1.2,8.4-1.2,21,4.2c6.6,0.6,13.8-12.6,20.4-13.8c0,0,21-6.6,31.79,6
		c7.2,9,12,10.87,21,12.63c9,1.76,13.8,2.36,17.4,5.96c3.6,3.6,12,6,12,6S1822.3,160.82,1829.5,169.22z"/>
	<path class="st6" d="M2371.79,126.77c3.34,3.9-299.32,0-299.32,0s1.11-27.29,11.38-37.73c8.36-8.49,33.09-12.73,43.35-0.76
		c7.7,6.84,7.7,6.84,7.7,6.84s13.68-8.55,23.95-10.26c10.26-1.71,11.97-1.71,29.93,5.99c9.41,0.86,19.67-17.96,29.08-19.67
		c0,0,29.93-9.41,45.33,8.55c10.26,12.83,17.1,15.5,29.93,18.01c12.83,2.51,19.67,3.37,24.8,8.5c5.13,5.13,17.1,8.55,17.1,8.55
		S2361.53,114.8,2371.79,126.77z"/>
	<g>
		<rect x="1419.76" y="355.19" class="st5" width="109.78" height="276.33"/>
		<g>
			<rect x="1424.64" y="362.94" class="st7" width="8.1" height="36.28"/>
			
				<rect x="1436.18" y="362.94" transform="matrix(-1 -1.224647e-16 1.224647e-16 -1 2880.4573 762.1693)" class="st7" width="8.1" height="36.28"/>
			
				<rect x="1447.46" y="362.94" transform="matrix(-1 -1.224647e-16 1.224647e-16 -1 2903.0178 762.1693)" class="st7" width="8.1" height="36.28"/>
			<rect x="1505.03" y="362.94" class="st7" width="8.1" height="36.28"/>
			
				<rect x="1516.57" y="362.94" transform="matrix(-1 -1.224647e-16 1.224647e-16 -1 3041.2432 762.1693)" class="st7" width="8.1" height="36.28"/>
			<rect x="1481.88" y="362.94" class="st7" width="8.1" height="36.28"/>
			
				<rect x="1493.42" y="362.94" transform="matrix(-1 -1.224647e-16 1.224647e-16 -1 2994.9412 762.1693)" class="st7" width="8.1" height="36.28"/>
		</g>
		<g>
			<rect x="1424.64" y="406.52" class="st7" width="8.1" height="36.28"/>
			
				<rect x="1436.18" y="406.52" transform="matrix(-1 -1.224647e-16 1.224647e-16 -1 2880.4573 849.3241)" class="st7" width="8.1" height="36.28"/>
			
				<rect x="1447.46" y="406.52" transform="matrix(-1 -1.224647e-16 1.224647e-16 -1 2903.0178 849.3241)" class="st7" width="8.1" height="36.28"/>
			<rect x="1505.03" y="406.52" class="st7" width="8.1" height="36.28"/>
			
				<rect x="1516.57" y="406.52" transform="matrix(-1 -1.224647e-16 1.224647e-16 -1 3041.2432 849.3241)" class="st7" width="8.1" height="36.28"/>
			<rect x="1481.88" y="406.52" class="st7" width="8.1" height="36.28"/>
			
				<rect x="1493.42" y="406.52" transform="matrix(-1 -1.224647e-16 1.224647e-16 -1 2994.9412 849.3241)" class="st7" width="8.1" height="36.28"/>
		</g>
		<g>
			<rect x="1424.64" y="450.1" class="st7" width="8.1" height="36.28"/>
			
				<rect x="1436.18" y="450.1" transform="matrix(-1 -1.224647e-16 1.224647e-16 -1 2880.4573 936.4789)" class="st7" width="8.1" height="36.28"/>
			
				<rect x="1447.46" y="450.1" transform="matrix(-1 -1.224647e-16 1.224647e-16 -1 2903.0178 936.4789)" class="st7" width="8.1" height="36.28"/>
			<rect x="1505.03" y="450.1" class="st7" width="8.1" height="36.28"/>
			
				<rect x="1516.57" y="450.1" transform="matrix(-1 -1.224647e-16 1.224647e-16 -1 3041.2432 936.4789)" class="st7" width="8.1" height="36.28"/>
			<rect x="1481.88" y="450.1" class="st7" width="8.1" height="36.28"/>
			
				<rect x="1493.42" y="450.1" transform="matrix(-1 -1.224647e-16 1.224647e-16 -1 2994.9412 936.4789)" class="st7" width="8.1" height="36.28"/>
		</g>
		<g>
			<rect x="1424.64" y="493.68" class="st7" width="8.1" height="36.28"/>
			
				<rect x="1436.18" y="493.68" transform="matrix(-1 -1.224647e-16 1.224647e-16 -1 2880.4573 1023.6337)" class="st7" width="8.1" height="36.28"/>
			
				<rect x="1447.46" y="493.68" transform="matrix(-1 -1.224647e-16 1.224647e-16 -1 2903.0178 1023.6337)" class="st7" width="8.1" height="36.28"/>
			<rect x="1505.03" y="493.68" class="st7" width="8.1" height="36.28"/>
			
				<rect x="1516.57" y="493.68" transform="matrix(-1 -1.224647e-16 1.224647e-16 -1 3041.2432 1023.6337)" class="st7" width="8.1" height="36.28"/>
			<rect x="1481.88" y="493.68" class="st7" width="8.1" height="36.28"/>
			
				<rect x="1493.42" y="493.68" transform="matrix(-1 -1.224647e-16 1.224647e-16 -1 2994.9412 1023.6337)" class="st7" width="8.1" height="36.28"/>
		</g>
		<g>
			<rect x="1424.64" y="537.25" class="st7" width="8.1" height="36.28"/>
			
				<rect x="1436.18" y="537.25" transform="matrix(-1 -1.224647e-16 1.224647e-16 -1 2880.4573 1110.7885)" class="st7" width="8.1" height="36.28"/>
			
				<rect x="1447.46" y="537.25" transform="matrix(-1 -1.224647e-16 1.224647e-16 -1 2903.0178 1110.7885)" class="st7" width="8.1" height="36.28"/>
			<rect x="1505.03" y="537.25" class="st7" width="8.1" height="36.28"/>
			
				<rect x="1516.57" y="537.25" transform="matrix(-1 -1.224647e-16 1.224647e-16 -1 3041.2432 1110.7885)" class="st7" width="8.1" height="36.28"/>
			<rect x="1481.88" y="537.25" class="st7" width="8.1" height="36.28"/>
			
				<rect x="1493.42" y="537.25" transform="matrix(-1 -1.224647e-16 1.224647e-16 -1 2994.9412 1110.7885)" class="st7" width="8.1" height="36.28"/>
		</g>
		<g>
			<rect x="1424.64" y="580.83" class="st7" width="8.1" height="36.28"/>
			
				<rect x="1436.18" y="580.83" transform="matrix(-1 -1.224647e-16 1.224647e-16 -1 2880.4573 1197.9432)" class="st7" width="8.1" height="36.28"/>
			
				<rect x="1447.46" y="580.83" transform="matrix(-1 -1.224647e-16 1.224647e-16 -1 2903.0178 1197.9432)" class="st7" width="8.1" height="36.28"/>
			<rect x="1505.03" y="580.83" class="st7" width="8.1" height="36.28"/>
			
				<rect x="1516.57" y="580.83" transform="matrix(-1 -1.224647e-16 1.224647e-16 -1 3041.2432 1197.9432)" class="st7" width="8.1" height="36.28"/>
			<rect x="1481.88" y="580.83" class="st7" width="8.1" height="36.28"/>
			
				<rect x="1493.42" y="580.83" transform="matrix(-1 -1.224647e-16 1.224647e-16 -1 2994.9412 1197.9432)" class="st7" width="8.1" height="36.28"/>
		</g>
	</g>
	<g>
		<rect x="2348.95" y="429.58" class="st5" width="93.15" height="201.95"/>
		<g>
			<rect x="2353.08" y="435.24" class="st7" width="6.87" height="26.51"/>
			
				<rect x="2362.88" y="435.24" transform="matrix(-1 -1.224647e-16 1.224647e-16 -1 4732.6226 897.0043)" class="st7" width="6.87" height="26.51"/>
			
				<rect x="2372.45" y="435.24" transform="matrix(-1 -1.224647e-16 1.224647e-16 -1 4751.7656 897.0043)" class="st7" width="6.87" height="26.51"/>
			<rect x="2421.3" y="435.24" class="st7" width="6.87" height="26.51"/>
			
				<rect x="2431.09" y="435.24" transform="matrix(-1 -1.224647e-16 1.224647e-16 -1 4869.0508 897.0043)" class="st7" width="6.87" height="26.51"/>
			<rect x="2401.65" y="435.24" class="st7" width="6.87" height="26.51"/>
			
				<rect x="2411.45" y="435.24" transform="matrix(-1 -1.224647e-16 1.224647e-16 -1 4829.7632 897.0043)" class="st7" width="6.87" height="26.51"/>
		</g>
		<g>
			<rect x="2353.08" y="467.09" class="st7" width="6.87" height="26.51"/>
			
				<rect x="2362.88" y="467.09" transform="matrix(-1 -1.224647e-16 1.224647e-16 -1 4732.6226 960.6975)" class="st7" width="6.87" height="26.51"/>
			
				<rect x="2372.45" y="467.09" transform="matrix(-1 -1.224647e-16 1.224647e-16 -1 4751.7656 960.6975)" class="st7" width="6.87" height="26.51"/>
			<rect x="2421.3" y="467.09" class="st7" width="6.87" height="26.51"/>
			
				<rect x="2431.09" y="467.09" transform="matrix(-1 -1.224647e-16 1.224647e-16 -1 4869.0508 960.6975)" class="st7" width="6.87" height="26.51"/>
			<rect x="2401.65" y="467.09" class="st7" width="6.87" height="26.51"/>
			
				<rect x="2411.45" y="467.09" transform="matrix(-1 -1.224647e-16 1.224647e-16 -1 4829.7632 960.6975)" class="st7" width="6.87" height="26.51"/>
		</g>
		<g>
			<rect x="2353.08" y="498.94" class="st7" width="6.87" height="26.51"/>
			
				<rect x="2362.88" y="498.94" transform="matrix(-1 -1.224647e-16 1.224647e-16 -1 4732.6226 1024.3907)" class="st7" width="6.87" height="26.51"/>
			
				<rect x="2372.45" y="498.94" transform="matrix(-1 -1.224647e-16 1.224647e-16 -1 4751.7656 1024.3907)" class="st7" width="6.87" height="26.51"/>
			<rect x="2421.3" y="498.94" class="st7" width="6.87" height="26.51"/>
			
				<rect x="2431.09" y="498.94" transform="matrix(-1 -1.224647e-16 1.224647e-16 -1 4869.0508 1024.3907)" class="st7" width="6.87" height="26.51"/>
			<rect x="2401.65" y="498.94" class="st7" width="6.87" height="26.51"/>
			
				<rect x="2411.45" y="498.94" transform="matrix(-1 -1.224647e-16 1.224647e-16 -1 4829.7632 1024.3907)" class="st7" width="6.87" height="26.51"/>
		</g>
		<g>
			<rect x="2353.08" y="530.78" class="st7" width="6.87" height="26.51"/>
			
				<rect x="2362.88" y="530.78" transform="matrix(-1 -1.224647e-16 1.224647e-16 -1 4732.6226 1088.084)" class="st7" width="6.87" height="26.51"/>
			
				<rect x="2372.45" y="530.78" transform="matrix(-1 -1.224647e-16 1.224647e-16 -1 4751.7656 1088.084)" class="st7" width="6.87" height="26.51"/>
			<rect x="2421.3" y="530.78" class="st7" width="6.87" height="26.51"/>
			
				<rect x="2431.09" y="530.78" transform="matrix(-1 -1.224647e-16 1.224647e-16 -1 4869.0508 1088.084)" class="st7" width="6.87" height="26.51"/>
			<rect x="2401.65" y="530.78" class="st7" width="6.87" height="26.51"/>
			
				<rect x="2411.45" y="530.78" transform="matrix(-1 -1.224647e-16 1.224647e-16 -1 4829.7632 1088.084)" class="st7" width="6.87" height="26.51"/>
		</g>
		<g>
			<rect x="2353.08" y="562.63" class="st7" width="6.87" height="26.51"/>
			
				<rect x="2362.88" y="562.63" transform="matrix(-1 -1.224647e-16 1.224647e-16 -1 4732.6226 1151.7771)" class="st7" width="6.87" height="26.51"/>
			
				<rect x="2372.45" y="562.63" transform="matrix(-1 -1.224647e-16 1.224647e-16 -1 4751.7656 1151.7771)" class="st7" width="6.87" height="26.51"/>
			<rect x="2421.3" y="562.63" class="st7" width="6.87" height="26.51"/>
			
				<rect x="2431.09" y="562.63" transform="matrix(-1 -1.224647e-16 1.224647e-16 -1 4869.0508 1151.7771)" class="st7" width="6.87" height="26.51"/>
			<rect x="2401.65" y="562.63" class="st7" width="6.87" height="26.51"/>
			
				<rect x="2411.45" y="562.63" transform="matrix(-1 -1.224647e-16 1.224647e-16 -1 4829.7632 1151.7771)" class="st7" width="6.87" height="26.51"/>
		</g>
		<g>
			<rect x="2353.08" y="594.48" class="st7" width="6.87" height="26.51"/>
			
				<rect x="2362.88" y="594.48" transform="matrix(-1 -1.224647e-16 1.224647e-16 -1 4732.6226 1215.4703)" class="st7" width="6.87" height="26.51"/>
			
				<rect x="2372.45" y="594.48" transform="matrix(-1 -1.224647e-16 1.224647e-16 -1 4751.7656 1215.4703)" class="st7" width="6.87" height="26.51"/>
			<rect x="2421.3" y="594.48" class="st7" width="6.87" height="26.51"/>
			
				<rect x="2431.09" y="594.48" transform="matrix(-1 -1.224647e-16 1.224647e-16 -1 4869.0508 1215.4703)" class="st7" width="6.87" height="26.51"/>
			<rect x="2401.65" y="594.48" class="st7" width="6.87" height="26.51"/>
			
				<rect x="2411.45" y="594.48" transform="matrix(-1 -1.224647e-16 1.224647e-16 -1 4829.7632 1215.4703)" class="st7" width="6.87" height="26.51"/>
		</g>
	</g>
	<g>
		<rect x="1570.34" y="256.81" class="st5" width="98.38" height="24"/>
		<rect x="1552.94" y="280.8" class="st5" width="137.38" height="350.72"/>
		<g>
			<rect x="1558.8" y="295.2" class="st7" width="8.1" height="18"/>
			
				<rect x="1570.34" y="295.2" transform="matrix(-1 -1.224647e-16 1.224647e-16 -1 3148.7764 608.3993)" class="st7" width="8.1" height="18"/>
			
				<rect x="1581.62" y="295.2" transform="matrix(-1 -1.224647e-16 1.224647e-16 -1 3171.3367 608.3993)" class="st7" width="8.1" height="18"/>
			<rect x="1663.03" y="295.2" class="st7" width="8.1" height="18"/>
			
				<rect x="1674.57" y="295.2" transform="matrix(-1 -1.224647e-16 1.224647e-16 -1 3357.241 608.3993)" class="st7" width="8.1" height="18"/>
			<rect x="1639.19" y="295.2" class="st7" width="8.1" height="18"/>
			
				<rect x="1650.73" y="295.2" transform="matrix(-1 -1.224647e-16 1.224647e-16 -1 3309.562 608.3993)" class="st7" width="8.1" height="18"/>
			<rect x="1616.04" y="295.2" class="st7" width="8.1" height="18"/>
			
				<rect x="1627.58" y="295.2" transform="matrix(-1 -1.224647e-16 1.224647e-16 -1 3263.26 608.3993)" class="st7" width="8.1" height="18"/>
		</g>
		<g>
			<rect x="1558.8" y="320.78" class="st7" width="8.1" height="18"/>
			
				<rect x="1570.34" y="320.78" transform="matrix(-1 -1.224647e-16 1.224647e-16 -1 3148.7764 659.5601)" class="st7" width="8.1" height="18"/>
			
				<rect x="1581.62" y="320.78" transform="matrix(-1 -1.224647e-16 1.224647e-16 -1 3171.3367 659.5601)" class="st7" width="8.1" height="18"/>
			<rect x="1663.03" y="320.78" class="st7" width="8.1" height="18"/>
			
				<rect x="1674.57" y="320.78" transform="matrix(-1 -1.224647e-16 1.224647e-16 -1 3357.241 659.5601)" class="st7" width="8.1" height="18"/>
			<rect x="1639.19" y="320.78" class="st7" width="8.1" height="18"/>
			
				<rect x="1650.73" y="320.78" transform="matrix(-1 -1.224647e-16 1.224647e-16 -1 3309.562 659.5601)" class="st7" width="8.1" height="18"/>
			<rect x="1616.04" y="320.78" class="st7" width="8.1" height="18"/>
			
				<rect x="1627.58" y="320.78" transform="matrix(-1 -1.224647e-16 1.224647e-16 -1 3263.26 659.5601)" class="st7" width="8.1" height="18"/>
		</g>
		<g>
			<rect x="1558.8" y="346.36" class="st7" width="8.1" height="18"/>
			
				<rect x="1570.34" y="346.36" transform="matrix(-1 -1.224647e-16 1.224647e-16 -1 3148.7764 710.7208)" class="st7" width="8.1" height="18"/>
			
				<rect x="1581.62" y="346.36" transform="matrix(-1 -1.224647e-16 1.224647e-16 -1 3171.3367 710.7208)" class="st7" width="8.1" height="18"/>
			<rect x="1663.03" y="346.36" class="st7" width="8.1" height="18"/>
			
				<rect x="1674.57" y="346.36" transform="matrix(-1 -1.224647e-16 1.224647e-16 -1 3357.241 710.7208)" class="st7" width="8.1" height="18"/>
			<rect x="1639.19" y="346.36" class="st7" width="8.1" height="18"/>
			
				<rect x="1650.73" y="346.36" transform="matrix(-1 -1.224647e-16 1.224647e-16 -1 3309.562 710.7208)" class="st7" width="8.1" height="18"/>
			<rect x="1616.04" y="346.36" class="st7" width="8.1" height="18"/>
			
				<rect x="1627.58" y="346.36" transform="matrix(-1 -1.224647e-16 1.224647e-16 -1 3263.26 710.7208)" class="st7" width="8.1" height="18"/>
		</g>
		<g>
			<rect x="1558.8" y="371.94" class="st7" width="8.1" height="18"/>
			
				<rect x="1570.34" y="371.94" transform="matrix(-1 -1.224647e-16 1.224647e-16 -1 3148.7764 761.8815)" class="st7" width="8.1" height="18"/>
			
				<rect x="1581.62" y="371.94" transform="matrix(-1 -1.224647e-16 1.224647e-16 -1 3171.3367 761.8815)" class="st7" width="8.1" height="18"/>
			<rect x="1663.03" y="371.94" class="st7" width="8.1" height="18"/>
			
				<rect x="1674.57" y="371.94" transform="matrix(-1 -1.224647e-16 1.224647e-16 -1 3357.241 761.8815)" class="st7" width="8.1" height="18"/>
			<rect x="1639.19" y="371.94" class="st7" width="8.1" height="18"/>
			
				<rect x="1650.73" y="371.94" transform="matrix(-1 -1.224647e-16 1.224647e-16 -1 3309.562 761.8815)" class="st7" width="8.1" height="18"/>
			<rect x="1616.04" y="371.94" class="st7" width="8.1" height="18"/>
			
				<rect x="1627.58" y="371.94" transform="matrix(-1 -1.224647e-16 1.224647e-16 -1 3263.26 761.8815)" class="st7" width="8.1" height="18"/>
		</g>
		<g>
			<rect x="1558.8" y="397.52" class="st7" width="8.1" height="18"/>
			
				<rect x="1570.34" y="397.52" transform="matrix(-1 -1.224647e-16 1.224647e-16 -1 3148.7764 813.0422)" class="st7" width="8.1" height="18"/>
			
				<rect x="1581.62" y="397.52" transform="matrix(-1 -1.224647e-16 1.224647e-16 -1 3171.3367 813.0422)" class="st7" width="8.1" height="18"/>
			<rect x="1663.03" y="397.52" class="st7" width="8.1" height="18"/>
			
				<rect x="1674.57" y="397.52" transform="matrix(-1 -1.224647e-16 1.224647e-16 -1 3357.241 813.0422)" class="st7" width="8.1" height="18"/>
			<rect x="1639.19" y="397.52" class="st7" width="8.1" height="18"/>
			
				<rect x="1650.73" y="397.52" transform="matrix(-1 -1.224647e-16 1.224647e-16 -1 3309.562 813.0422)" class="st7" width="8.1" height="18"/>
			<rect x="1616.04" y="397.52" class="st7" width="8.1" height="18"/>
			
				<rect x="1627.58" y="397.52" transform="matrix(-1 -1.224647e-16 1.224647e-16 -1 3263.26 813.0422)" class="st7" width="8.1" height="18"/>
		</g>
		<g>
			<rect x="1558.8" y="423.1" class="st7" width="8.1" height="18"/>
			
				<rect x="1570.34" y="423.1" transform="matrix(-1 -1.224647e-16 1.224647e-16 -1 3148.7764 864.2029)" class="st7" width="8.1" height="18"/>
			
				<rect x="1581.62" y="423.1" transform="matrix(-1 -1.224647e-16 1.224647e-16 -1 3171.3367 864.2029)" class="st7" width="8.1" height="18"/>
			<rect x="1663.03" y="423.1" class="st7" width="8.1" height="18"/>
			
				<rect x="1674.57" y="423.1" transform="matrix(-1 -1.224647e-16 1.224647e-16 -1 3357.241 864.2029)" class="st7" width="8.1" height="18"/>
			<rect x="1639.19" y="423.1" class="st7" width="8.1" height="18"/>
			
				<rect x="1650.73" y="423.1" transform="matrix(-1 -1.224647e-16 1.224647e-16 -1 3309.562 864.2029)" class="st7" width="8.1" height="18"/>
			<rect x="1616.04" y="423.1" class="st7" width="8.1" height="18"/>
			
				<rect x="1627.58" y="423.1" transform="matrix(-1 -1.224647e-16 1.224647e-16 -1 3263.26 864.2029)" class="st7" width="8.1" height="18"/>
		</g>
		<g>
			<rect x="1558.8" y="448.68" class="st7" width="8.1" height="18"/>
			
				<rect x="1570.34" y="448.68" transform="matrix(-1 -1.224647e-16 1.224647e-16 -1 3148.7764 915.3637)" class="st7" width="8.1" height="18"/>
			
				<rect x="1581.62" y="448.68" transform="matrix(-1 -1.224647e-16 1.224647e-16 -1 3171.3367 915.3637)" class="st7" width="8.1" height="18"/>
			<rect x="1663.03" y="448.68" class="st7" width="8.1" height="18"/>
			
				<rect x="1674.57" y="448.68" transform="matrix(-1 -1.224647e-16 1.224647e-16 -1 3357.241 915.3637)" class="st7" width="8.1" height="18"/>
			<rect x="1639.19" y="448.68" class="st7" width="8.1" height="18"/>
			
				<rect x="1650.73" y="448.68" transform="matrix(-1 -1.224647e-16 1.224647e-16 -1 3309.562 915.3637)" class="st7" width="8.1" height="18"/>
			<rect x="1616.04" y="448.68" class="st7" width="8.1" height="18"/>
			
				<rect x="1627.58" y="448.68" transform="matrix(-1 -1.224647e-16 1.224647e-16 -1 3263.26 915.3637)" class="st7" width="8.1" height="18"/>
		</g>
		<g>
			<rect x="1558.8" y="474.26" class="st7" width="8.1" height="18"/>
			
				<rect x="1570.34" y="474.26" transform="matrix(-1 -1.224647e-16 1.224647e-16 -1 3148.7764 966.5244)" class="st7" width="8.1" height="18"/>
			
				<rect x="1581.62" y="474.26" transform="matrix(-1 -1.224647e-16 1.224647e-16 -1 3171.3367 966.5244)" class="st7" width="8.1" height="18"/>
			<rect x="1663.03" y="474.26" class="st7" width="8.1" height="18"/>
			
				<rect x="1674.57" y="474.26" transform="matrix(-1 -1.224647e-16 1.224647e-16 -1 3357.241 966.5244)" class="st7" width="8.1" height="18"/>
			<rect x="1639.19" y="474.26" class="st7" width="8.1" height="18"/>
			
				<rect x="1650.73" y="474.26" transform="matrix(-1 -1.224647e-16 1.224647e-16 -1 3309.562 966.5244)" class="st7" width="8.1" height="18"/>
			<rect x="1616.04" y="474.26" class="st7" width="8.1" height="18"/>
			
				<rect x="1627.58" y="474.26" transform="matrix(-1 -1.224647e-16 1.224647e-16 -1 3263.26 966.5244)" class="st7" width="8.1" height="18"/>
		</g>
		<g>
			<rect x="1558.8" y="499.84" class="st7" width="8.1" height="18"/>
			
				<rect x="1570.34" y="499.84" transform="matrix(-1 -1.224647e-16 1.224647e-16 -1 3148.7764 1017.6852)" class="st7" width="8.1" height="18"/>
			
				<rect x="1581.62" y="499.84" transform="matrix(-1 -1.224647e-16 1.224647e-16 -1 3171.3367 1017.6852)" class="st7" width="8.1" height="18"/>
			<rect x="1663.03" y="499.84" class="st7" width="8.1" height="18"/>
			
				<rect x="1674.57" y="499.84" transform="matrix(-1 -1.224647e-16 1.224647e-16 -1 3357.241 1017.6852)" class="st7" width="8.1" height="18"/>
			<rect x="1639.19" y="499.84" class="st7" width="8.1" height="18"/>
			
				<rect x="1650.73" y="499.84" transform="matrix(-1 -1.224647e-16 1.224647e-16 -1 3309.562 1017.6852)" class="st7" width="8.1" height="18"/>
			<rect x="1616.04" y="499.84" class="st7" width="8.1" height="18"/>
			
				<rect x="1627.58" y="499.84" transform="matrix(-1 -1.224647e-16 1.224647e-16 -1 3263.26 1017.6852)" class="st7" width="8.1" height="18"/>
		</g>
		<g>
			<rect x="1558.8" y="525.42" class="st7" width="8.1" height="18"/>
			
				<rect x="1570.34" y="525.42" transform="matrix(-1 -1.224647e-16 1.224647e-16 -1 3148.7764 1068.8459)" class="st7" width="8.1" height="18"/>
			
				<rect x="1581.62" y="525.42" transform="matrix(-1 -1.224647e-16 1.224647e-16 -1 3171.3367 1068.8459)" class="st7" width="8.1" height="18"/>
			<rect x="1663.03" y="525.42" class="st7" width="8.1" height="18"/>
			
				<rect x="1674.57" y="525.42" transform="matrix(-1 -1.224647e-16 1.224647e-16 -1 3357.241 1068.8459)" class="st7" width="8.1" height="18"/>
			<rect x="1639.19" y="525.42" class="st7" width="8.1" height="18"/>
			
				<rect x="1650.73" y="525.42" transform="matrix(-1 -1.224647e-16 1.224647e-16 -1 3309.562 1068.8459)" class="st7" width="8.1" height="18"/>
			<rect x="1616.04" y="525.42" class="st7" width="8.1" height="18"/>
			
				<rect x="1627.58" y="525.42" transform="matrix(-1 -1.224647e-16 1.224647e-16 -1 3263.26 1068.8459)" class="st7" width="8.1" height="18"/>
		</g>
		<g>
			<rect x="1558.8" y="551" class="st7" width="8.1" height="18"/>
			
				<rect x="1570.34" y="551" transform="matrix(-1 -1.224647e-16 1.224647e-16 -1 3148.7764 1120.0066)" class="st7" width="8.1" height="18"/>
			
				<rect x="1581.62" y="551" transform="matrix(-1 -1.224647e-16 1.224647e-16 -1 3171.3367 1120.0066)" class="st7" width="8.1" height="18"/>
			<rect x="1663.03" y="551" class="st7" width="8.1" height="18"/>
			
				<rect x="1674.57" y="551" transform="matrix(-1 -1.224647e-16 1.224647e-16 -1 3357.241 1120.0066)" class="st7" width="8.1" height="18"/>
			<rect x="1639.19" y="551" class="st7" width="8.1" height="18"/>
			
				<rect x="1650.73" y="551" transform="matrix(-1 -1.224647e-16 1.224647e-16 -1 3309.562 1120.0066)" class="st7" width="8.1" height="18"/>
			<rect x="1616.04" y="551" class="st7" width="8.1" height="18"/>
			
				<rect x="1627.58" y="551" transform="matrix(-1 -1.224647e-16 1.224647e-16 -1 3263.26 1120.0066)" class="st7" width="8.1" height="18"/>
		</g>
		<g>
			<rect x="1558.8" y="576.59" class="st7" width="8.1" height="18"/>
			
				<rect x="1570.34" y="576.59" transform="matrix(-1 -1.224647e-16 1.224647e-16 -1 3148.7764 1171.1674)" class="st7" width="8.1" height="18"/>
			
				<rect x="1581.62" y="576.59" transform="matrix(-1 -1.224647e-16 1.224647e-16 -1 3171.3367 1171.1674)" class="st7" width="8.1" height="18"/>
			<rect x="1663.03" y="576.59" class="st7" width="8.1" height="18"/>
			
				<rect x="1674.57" y="576.59" transform="matrix(-1 -1.224647e-16 1.224647e-16 -1 3357.241 1171.1674)" class="st7" width="8.1" height="18"/>
			<rect x="1639.19" y="576.59" class="st7" width="8.1" height="18"/>
			
				<rect x="1650.73" y="576.59" transform="matrix(-1 -1.224647e-16 1.224647e-16 -1 3309.562 1171.1674)" class="st7" width="8.1" height="18"/>
			<rect x="1616.04" y="576.59" class="st7" width="8.1" height="18"/>
			
				<rect x="1627.58" y="576.59" transform="matrix(-1 -1.224647e-16 1.224647e-16 -1 3263.26 1171.1674)" class="st7" width="8.1" height="18"/>
		</g>
		<g>
			<rect x="1558.8" y="602.89" class="st7" width="8.1" height="18"/>
			
				<rect x="1570.34" y="602.89" transform="matrix(-1 -1.224647e-16 1.224647e-16 -1 3148.7764 1223.7767)" class="st7" width="8.1" height="18"/>
			
				<rect x="1581.62" y="602.89" transform="matrix(-1 -1.224647e-16 1.224647e-16 -1 3171.3367 1223.7767)" class="st7" width="8.1" height="18"/>
			<rect x="1663.03" y="602.89" class="st7" width="8.1" height="18"/>
			
				<rect x="1674.57" y="602.89" transform="matrix(-1 -1.224647e-16 1.224647e-16 -1 3357.241 1223.7767)" class="st7" width="8.1" height="18"/>
			<rect x="1639.19" y="602.89" class="st7" width="8.1" height="18"/>
			
				<rect x="1650.73" y="602.89" transform="matrix(-1 -1.224647e-16 1.224647e-16 -1 3309.562 1223.7767)" class="st7" width="8.1" height="18"/>
			<rect x="1616.04" y="602.89" class="st7" width="8.1" height="18"/>
			
				<rect x="1627.58" y="602.89" transform="matrix(-1 -1.224647e-16 1.224647e-16 -1 3263.26 1223.7767)" class="st7" width="8.1" height="18"/>
		</g>
	</g>
	<g>
		<rect x="2086.55" y="256.63" class="st5" width="98.38" height="24"/>
		<rect x="2069.16" y="280.63" class="st5" width="137.38" height="350.72"/>
		<g>
			<rect x="2075.01" y="295.03" class="st7" width="8.1" height="18"/>
			
				<rect x="2086.55" y="295.03" transform="matrix(-1 -1.224647e-16 1.224647e-16 -1 4181.2056 608.048)" class="st7" width="8.1" height="18"/>
			
				<rect x="2097.83" y="295.03" transform="matrix(-1 -1.224647e-16 1.224647e-16 -1 4203.7661 608.048)" class="st7" width="8.1" height="18"/>
			<rect x="2179.24" y="295.03" class="st7" width="8.1" height="18"/>
			
				<rect x="2190.79" y="295.03" transform="matrix(-1 -1.224647e-16 1.224647e-16 -1 4389.6704 608.048)" class="st7" width="8.1" height="18"/>
			<rect x="2155.41" y="295.03" class="st7" width="8.1" height="18"/>
			
				<rect x="2166.95" y="295.03" transform="matrix(-1 -1.224647e-16 1.224647e-16 -1 4341.9912 608.048)" class="st7" width="8.1" height="18"/>
			<rect x="2132.25" y="295.03" class="st7" width="8.1" height="18"/>
			
				<rect x="2143.8" y="295.03" transform="matrix(-1 -1.224647e-16 1.224647e-16 -1 4295.6895 608.048)" class="st7" width="8.1" height="18"/>
		</g>
		<g>
			<rect x="2075.01" y="320.61" class="st7" width="8.1" height="18"/>
			
				<rect x="2086.55" y="320.61" transform="matrix(-1 -1.224647e-16 1.224647e-16 -1 4181.2056 659.2088)" class="st7" width="8.1" height="18"/>
			
				<rect x="2097.83" y="320.61" transform="matrix(-1 -1.224647e-16 1.224647e-16 -1 4203.7661 659.2088)" class="st7" width="8.1" height="18"/>
			<rect x="2179.24" y="320.61" class="st7" width="8.1" height="18"/>
			
				<rect x="2190.79" y="320.61" transform="matrix(-1 -1.224647e-16 1.224647e-16 -1 4389.6704 659.2088)" class="st7" width="8.1" height="18"/>
			<rect x="2155.41" y="320.61" class="st7" width="8.1" height="18"/>
			
				<rect x="2166.95" y="320.61" transform="matrix(-1 -1.224647e-16 1.224647e-16 -1 4341.9912 659.2088)" class="st7" width="8.1" height="18"/>
			<rect x="2132.25" y="320.61" class="st7" width="8.1" height="18"/>
			
				<rect x="2143.8" y="320.61" transform="matrix(-1 -1.224647e-16 1.224647e-16 -1 4295.6895 659.2088)" class="st7" width="8.1" height="18"/>
		</g>
		<g>
			<rect x="2075.01" y="346.19" class="st7" width="8.1" height="18"/>
			
				<rect x="2086.55" y="346.19" transform="matrix(-1 -1.224647e-16 1.224647e-16 -1 4181.2056 710.3695)" class="st7" width="8.1" height="18"/>
			
				<rect x="2097.83" y="346.19" transform="matrix(-1 -1.224647e-16 1.224647e-16 -1 4203.7661 710.3695)" class="st7" width="8.1" height="18"/>
			<rect x="2179.24" y="346.19" class="st7" width="8.1" height="18"/>
			
				<rect x="2190.79" y="346.19" transform="matrix(-1 -1.224647e-16 1.224647e-16 -1 4389.6704 710.3695)" class="st7" width="8.1" height="18"/>
			<rect x="2155.41" y="346.19" class="st7" width="8.1" height="18"/>
			
				<rect x="2166.95" y="346.19" transform="matrix(-1 -1.224647e-16 1.224647e-16 -1 4341.9912 710.3695)" class="st7" width="8.1" height="18"/>
			<rect x="2132.25" y="346.19" class="st7" width="8.1" height="18"/>
			
				<rect x="2143.8" y="346.19" transform="matrix(-1 -1.224647e-16 1.224647e-16 -1 4295.6895 710.3695)" class="st7" width="8.1" height="18"/>
		</g>
		<g>
			<rect x="2075.01" y="371.77" class="st7" width="8.1" height="18"/>
			
				<rect x="2086.55" y="371.77" transform="matrix(-1 -1.224647e-16 1.224647e-16 -1 4181.2056 761.5303)" class="st7" width="8.1" height="18"/>
			
				<rect x="2097.83" y="371.77" transform="matrix(-1 -1.224647e-16 1.224647e-16 -1 4203.7661 761.5303)" class="st7" width="8.1" height="18"/>
			<rect x="2179.24" y="371.77" class="st7" width="8.1" height="18"/>
			
				<rect x="2190.79" y="371.77" transform="matrix(-1 -1.224647e-16 1.224647e-16 -1 4389.6704 761.5303)" class="st7" width="8.1" height="18"/>
			<rect x="2155.41" y="371.77" class="st7" width="8.1" height="18"/>
			
				<rect x="2166.95" y="371.77" transform="matrix(-1 -1.224647e-16 1.224647e-16 -1 4341.9912 761.5303)" class="st7" width="8.1" height="18"/>
			<rect x="2132.25" y="371.77" class="st7" width="8.1" height="18"/>
			
				<rect x="2143.8" y="371.77" transform="matrix(-1 -1.224647e-16 1.224647e-16 -1 4295.6895 761.5303)" class="st7" width="8.1" height="18"/>
		</g>
		<g>
			<rect x="2075.01" y="397.35" class="st7" width="8.1" height="18"/>
			
				<rect x="2086.55" y="397.35" transform="matrix(-1 -1.224647e-16 1.224647e-16 -1 4181.2056 812.691)" class="st7" width="8.1" height="18"/>
			
				<rect x="2097.83" y="397.35" transform="matrix(-1 -1.224647e-16 1.224647e-16 -1 4203.7661 812.691)" class="st7" width="8.1" height="18"/>
			<rect x="2179.24" y="397.35" class="st7" width="8.1" height="18"/>
			
				<rect x="2190.79" y="397.35" transform="matrix(-1 -1.224647e-16 1.224647e-16 -1 4389.6704 812.691)" class="st7" width="8.1" height="18"/>
			<rect x="2155.41" y="397.35" class="st7" width="8.1" height="18"/>
			
				<rect x="2166.95" y="397.35" transform="matrix(-1 -1.224647e-16 1.224647e-16 -1 4341.9912 812.691)" class="st7" width="8.1" height="18"/>
			<rect x="2132.25" y="397.35" class="st7" width="8.1" height="18"/>
			
				<rect x="2143.8" y="397.35" transform="matrix(-1 -1.224647e-16 1.224647e-16 -1 4295.6895 812.691)" class="st7" width="8.1" height="18"/>
		</g>
		<g>
			<rect x="2075.01" y="422.93" class="st7" width="8.1" height="18"/>
			
				<rect x="2086.55" y="422.93" transform="matrix(-1 -1.224647e-16 1.224647e-16 -1 4181.2056 863.8517)" class="st7" width="8.1" height="18"/>
			
				<rect x="2097.83" y="422.93" transform="matrix(-1 -1.224647e-16 1.224647e-16 -1 4203.7661 863.8517)" class="st7" width="8.1" height="18"/>
			<rect x="2179.24" y="422.93" class="st7" width="8.1" height="18"/>
			
				<rect x="2190.79" y="422.93" transform="matrix(-1 -1.224647e-16 1.224647e-16 -1 4389.6704 863.8517)" class="st7" width="8.1" height="18"/>
			<rect x="2155.41" y="422.93" class="st7" width="8.1" height="18"/>
			
				<rect x="2166.95" y="422.93" transform="matrix(-1 -1.224647e-16 1.224647e-16 -1 4341.9912 863.8517)" class="st7" width="8.1" height="18"/>
			<rect x="2132.25" y="422.93" class="st7" width="8.1" height="18"/>
			
				<rect x="2143.8" y="422.93" transform="matrix(-1 -1.224647e-16 1.224647e-16 -1 4295.6895 863.8517)" class="st7" width="8.1" height="18"/>
		</g>
		<g>
			<rect x="2075.01" y="448.51" class="st7" width="8.1" height="18"/>
			
				<rect x="2086.55" y="448.51" transform="matrix(-1 -1.224647e-16 1.224647e-16 -1 4181.2056 915.0125)" class="st7" width="8.1" height="18"/>
			
				<rect x="2097.83" y="448.51" transform="matrix(-1 -1.224647e-16 1.224647e-16 -1 4203.7661 915.0125)" class="st7" width="8.1" height="18"/>
			<rect x="2179.24" y="448.51" class="st7" width="8.1" height="18"/>
			
				<rect x="2190.79" y="448.51" transform="matrix(-1 -1.224647e-16 1.224647e-16 -1 4389.6704 915.0125)" class="st7" width="8.1" height="18"/>
			<rect x="2155.41" y="448.51" class="st7" width="8.1" height="18"/>
			
				<rect x="2166.95" y="448.51" transform="matrix(-1 -1.224647e-16 1.224647e-16 -1 4341.9912 915.0125)" class="st7" width="8.1" height="18"/>
			<rect x="2132.25" y="448.51" class="st7" width="8.1" height="18"/>
			
				<rect x="2143.8" y="448.51" transform="matrix(-1 -1.224647e-16 1.224647e-16 -1 4295.6895 915.0125)" class="st7" width="8.1" height="18"/>
		</g>
		<g>
			<rect x="2075.01" y="474.09" class="st7" width="8.1" height="18"/>
			
				<rect x="2086.55" y="474.09" transform="matrix(-1 -1.224647e-16 1.224647e-16 -1 4181.2056 966.1732)" class="st7" width="8.1" height="18"/>
			
				<rect x="2097.83" y="474.09" transform="matrix(-1 -1.224647e-16 1.224647e-16 -1 4203.7661 966.1732)" class="st7" width="8.1" height="18"/>
			<rect x="2179.24" y="474.09" class="st7" width="8.1" height="18"/>
			
				<rect x="2190.79" y="474.09" transform="matrix(-1 -1.224647e-16 1.224647e-16 -1 4389.6704 966.1732)" class="st7" width="8.1" height="18"/>
			<rect x="2155.41" y="474.09" class="st7" width="8.1" height="18"/>
			
				<rect x="2166.95" y="474.09" transform="matrix(-1 -1.224647e-16 1.224647e-16 -1 4341.9912 966.1732)" class="st7" width="8.1" height="18"/>
			<rect x="2132.25" y="474.09" class="st7" width="8.1" height="18"/>
			
				<rect x="2143.8" y="474.09" transform="matrix(-1 -1.224647e-16 1.224647e-16 -1 4295.6895 966.1732)" class="st7" width="8.1" height="18"/>
		</g>
		<g>
			<rect x="2075.01" y="499.67" class="st7" width="8.1" height="18"/>
			
				<rect x="2086.55" y="499.67" transform="matrix(-1 -1.224647e-16 1.224647e-16 -1 4181.2056 1017.3339)" class="st7" width="8.1" height="18"/>
			
				<rect x="2097.83" y="499.67" transform="matrix(-1 -1.224647e-16 1.224647e-16 -1 4203.7661 1017.3339)" class="st7" width="8.1" height="18"/>
			<rect x="2179.24" y="499.67" class="st7" width="8.1" height="18"/>
			
				<rect x="2190.79" y="499.67" transform="matrix(-1 -1.224647e-16 1.224647e-16 -1 4389.6704 1017.3339)" class="st7" width="8.1" height="18"/>
			<rect x="2155.41" y="499.67" class="st7" width="8.1" height="18"/>
			
				<rect x="2166.95" y="499.67" transform="matrix(-1 -1.224647e-16 1.224647e-16 -1 4341.9912 1017.3339)" class="st7" width="8.1" height="18"/>
			<rect x="2132.25" y="499.67" class="st7" width="8.1" height="18"/>
			
				<rect x="2143.8" y="499.67" transform="matrix(-1 -1.224647e-16 1.224647e-16 -1 4295.6895 1017.3339)" class="st7" width="8.1" height="18"/>
		</g>
		<g>
			<rect x="2075.01" y="525.25" class="st7" width="8.1" height="18"/>
			
				<rect x="2086.55" y="525.25" transform="matrix(-1 -1.224647e-16 1.224647e-16 -1 4181.2056 1068.4946)" class="st7" width="8.1" height="18"/>
			
				<rect x="2097.83" y="525.25" transform="matrix(-1 -1.224647e-16 1.224647e-16 -1 4203.7661 1068.4946)" class="st7" width="8.1" height="18"/>
			<rect x="2179.24" y="525.25" class="st7" width="8.1" height="18"/>
			
				<rect x="2190.79" y="525.25" transform="matrix(-1 -1.224647e-16 1.224647e-16 -1 4389.6704 1068.4946)" class="st7" width="8.1" height="18"/>
			<rect x="2155.41" y="525.25" class="st7" width="8.1" height="18"/>
			
				<rect x="2166.95" y="525.25" transform="matrix(-1 -1.224647e-16 1.224647e-16 -1 4341.9912 1068.4946)" class="st7" width="8.1" height="18"/>
			<rect x="2132.25" y="525.25" class="st7" width="8.1" height="18"/>
			
				<rect x="2143.8" y="525.25" transform="matrix(-1 -1.224647e-16 1.224647e-16 -1 4295.6895 1068.4946)" class="st7" width="8.1" height="18"/>
		</g>
		<g>
			<rect x="2075.01" y="550.83" class="st7" width="8.1" height="18"/>
			
				<rect x="2086.55" y="550.83" transform="matrix(-1 -1.224647e-16 1.224647e-16 -1 4181.2056 1119.6554)" class="st7" width="8.1" height="18"/>
			
				<rect x="2097.83" y="550.83" transform="matrix(-1 -1.224647e-16 1.224647e-16 -1 4203.7661 1119.6554)" class="st7" width="8.1" height="18"/>
			<rect x="2179.24" y="550.83" class="st7" width="8.1" height="18"/>
			
				<rect x="2190.79" y="550.83" transform="matrix(-1 -1.224647e-16 1.224647e-16 -1 4389.6704 1119.6554)" class="st7" width="8.1" height="18"/>
			<rect x="2155.41" y="550.83" class="st7" width="8.1" height="18"/>
			
				<rect x="2166.95" y="550.83" transform="matrix(-1 -1.224647e-16 1.224647e-16 -1 4341.9912 1119.6554)" class="st7" width="8.1" height="18"/>
			<rect x="2132.25" y="550.83" class="st7" width="8.1" height="18"/>
			
				<rect x="2143.8" y="550.83" transform="matrix(-1 -1.224647e-16 1.224647e-16 -1 4295.6895 1119.6554)" class="st7" width="8.1" height="18"/>
		</g>
		<g>
			<rect x="2075.01" y="576.41" class="st7" width="8.1" height="18"/>
			
				<rect x="2086.55" y="576.41" transform="matrix(-1 -1.224647e-16 1.224647e-16 -1 4181.2056 1170.8162)" class="st7" width="8.1" height="18"/>
			
				<rect x="2097.83" y="576.41" transform="matrix(-1 -1.224647e-16 1.224647e-16 -1 4203.7661 1170.8162)" class="st7" width="8.1" height="18"/>
			<rect x="2179.24" y="576.41" class="st7" width="8.1" height="18"/>
			
				<rect x="2190.79" y="576.41" transform="matrix(-1 -1.224647e-16 1.224647e-16 -1 4389.6704 1170.8162)" class="st7" width="8.1" height="18"/>
			<rect x="2155.41" y="576.41" class="st7" width="8.1" height="18"/>
			
				<rect x="2166.95" y="576.41" transform="matrix(-1 -1.224647e-16 1.224647e-16 -1 4341.9912 1170.8162)" class="st7" width="8.1" height="18"/>
			<rect x="2132.25" y="576.41" class="st7" width="8.1" height="18"/>
			
				<rect x="2143.8" y="576.41" transform="matrix(-1 -1.224647e-16 1.224647e-16 -1 4295.6895 1170.8162)" class="st7" width="8.1" height="18"/>
		</g>
		<g>
			<rect x="2075.01" y="602.71" class="st7" width="8.1" height="18"/>
			
				<rect x="2086.55" y="602.71" transform="matrix(-1 -1.224647e-16 1.224647e-16 -1 4181.2056 1223.4255)" class="st7" width="8.1" height="18"/>
			
				<rect x="2097.83" y="602.71" transform="matrix(-1 -1.224647e-16 1.224647e-16 -1 4203.7661 1223.4255)" class="st7" width="8.1" height="18"/>
			<rect x="2179.24" y="602.71" class="st7" width="8.1" height="18"/>
			
				<rect x="2190.79" y="602.71" transform="matrix(-1 -1.224647e-16 1.224647e-16 -1 4389.6704 1223.4255)" class="st7" width="8.1" height="18"/>
			<rect x="2155.41" y="602.71" class="st7" width="8.1" height="18"/>
			
				<rect x="2166.95" y="602.71" transform="matrix(-1 -1.224647e-16 1.224647e-16 -1 4341.9912 1223.4255)" class="st7" width="8.1" height="18"/>
			<rect x="2132.25" y="602.71" class="st7" width="8.1" height="18"/>
			
				<rect x="2143.8" y="602.71" transform="matrix(-1 -1.224647e-16 1.224647e-16 -1 4295.6895 1223.4255)" class="st7" width="8.1" height="18"/>
		</g>
	</g>
	<g>
		<rect x="1300.77" y="409.95" class="st7" width="5.39" height="11.97"/>
		
			<rect x="1308.45" y="409.95" transform="matrix(-1 -1.224647e-16 1.224647e-16 -1 2622.2798 831.876)" class="st7" width="5.39" height="11.97"/>
		
			<rect x="1315.95" y="409.95" transform="matrix(-1 -1.224647e-16 1.224647e-16 -1 2637.2908 831.876)" class="st7" width="5.39" height="11.97"/>
		<rect x="1370.12" y="409.95" class="st7" width="5.39" height="11.97"/>
		
			<rect x="1377.8" y="409.95" transform="matrix(-1 -1.224647e-16 1.224647e-16 -1 2760.9866 831.876)" class="st7" width="5.39" height="11.97"/>
		<rect x="1354.26" y="409.95" class="st7" width="5.39" height="11.97"/>
		
			<rect x="1361.94" y="409.95" transform="matrix(-1 -1.224647e-16 1.224647e-16 -1 2729.2622 831.876)" class="st7" width="5.39" height="11.97"/>
		<rect x="1338.85" y="409.95" class="st7" width="5.39" height="11.97"/>
		
			<rect x="1346.53" y="409.95" transform="matrix(-1 -1.224647e-16 1.224647e-16 -1 2698.4541 831.876)" class="st7" width="5.39" height="11.97"/>
	</g>
	<g>
		<rect x="1300.77" y="426.97" class="st7" width="5.39" height="11.97"/>
		
			<rect x="1308.45" y="426.97" transform="matrix(-1 -1.224647e-16 1.224647e-16 -1 2622.2798 865.917)" class="st7" width="5.39" height="11.97"/>
		
			<rect x="1315.95" y="426.97" transform="matrix(-1 -1.224647e-16 1.224647e-16 -1 2637.2908 865.917)" class="st7" width="5.39" height="11.97"/>
		<rect x="1370.12" y="426.97" class="st7" width="5.39" height="11.97"/>
		
			<rect x="1377.8" y="426.97" transform="matrix(-1 -1.224647e-16 1.224647e-16 -1 2760.9866 865.917)" class="st7" width="5.39" height="11.97"/>
		<rect x="1354.26" y="426.97" class="st7" width="5.39" height="11.97"/>
		
			<rect x="1361.94" y="426.97" transform="matrix(-1 -1.224647e-16 1.224647e-16 -1 2729.2622 865.917)" class="st7" width="5.39" height="11.97"/>
		<rect x="1338.85" y="426.97" class="st7" width="5.39" height="11.97"/>
		
			<rect x="1346.53" y="426.97" transform="matrix(-1 -1.224647e-16 1.224647e-16 -1 2698.4541 865.917)" class="st7" width="5.39" height="11.97"/>
	</g>
	<g>
		<rect x="1300.77" y="443.99" class="st7" width="5.39" height="11.97"/>
		
			<rect x="1308.45" y="443.99" transform="matrix(-1 -1.224647e-16 1.224647e-16 -1 2622.2798 899.9579)" class="st7" width="5.39" height="11.97"/>
		
			<rect x="1315.95" y="443.99" transform="matrix(-1 -1.224647e-16 1.224647e-16 -1 2637.2908 899.9579)" class="st7" width="5.39" height="11.97"/>
		<rect x="1370.12" y="443.99" class="st7" width="5.39" height="11.97"/>
		
			<rect x="1377.8" y="443.99" transform="matrix(-1 -1.224647e-16 1.224647e-16 -1 2760.9866 899.9579)" class="st7" width="5.39" height="11.97"/>
		<rect x="1354.26" y="443.99" class="st7" width="5.39" height="11.97"/>
		
			<rect x="1361.94" y="443.99" transform="matrix(-1 -1.224647e-16 1.224647e-16 -1 2729.2622 899.9579)" class="st7" width="5.39" height="11.97"/>
		<rect x="1338.85" y="443.99" class="st7" width="5.39" height="11.97"/>
		
			<rect x="1346.53" y="443.99" transform="matrix(-1 -1.224647e-16 1.224647e-16 -1 2698.4541 899.9579)" class="st7" width="5.39" height="11.97"/>
	</g>
	<g>
		<rect x="1300.77" y="461.01" class="st7" width="5.39" height="11.97"/>
		
			<rect x="1308.45" y="461.01" transform="matrix(-1 -1.224647e-16 1.224647e-16 -1 2622.2798 933.999)" class="st7" width="5.39" height="11.97"/>
		
			<rect x="1315.95" y="461.01" transform="matrix(-1 -1.224647e-16 1.224647e-16 -1 2637.2908 933.999)" class="st7" width="5.39" height="11.97"/>
		<rect x="1370.12" y="461.01" class="st7" width="5.39" height="11.97"/>
		
			<rect x="1377.8" y="461.01" transform="matrix(-1 -1.224647e-16 1.224647e-16 -1 2760.9866 933.999)" class="st7" width="5.39" height="11.97"/>
		<rect x="1354.26" y="461.01" class="st7" width="5.39" height="11.97"/>
		
			<rect x="1361.94" y="461.01" transform="matrix(-1 -1.224647e-16 1.224647e-16 -1 2729.2622 933.999)" class="st7" width="5.39" height="11.97"/>
		<rect x="1338.85" y="461.01" class="st7" width="5.39" height="11.97"/>
		
			<rect x="1346.53" y="461.01" transform="matrix(-1 -1.224647e-16 1.224647e-16 -1 2698.4541 933.999)" class="st7" width="5.39" height="11.97"/>
	</g>
	<g>
		<rect x="1300.77" y="478.03" class="st7" width="5.39" height="11.97"/>
		
			<rect x="1308.45" y="478.03" transform="matrix(-1 -1.224647e-16 1.224647e-16 -1 2622.2798 968.04)" class="st7" width="5.39" height="11.97"/>
		
			<rect x="1315.95" y="478.03" transform="matrix(-1 -1.224647e-16 1.224647e-16 -1 2637.2908 968.04)" class="st7" width="5.39" height="11.97"/>
		<rect x="1370.12" y="478.03" class="st7" width="5.39" height="11.97"/>
		
			<rect x="1377.8" y="478.03" transform="matrix(-1 -1.224647e-16 1.224647e-16 -1 2760.9866 968.04)" class="st7" width="5.39" height="11.97"/>
		<rect x="1354.26" y="478.03" class="st7" width="5.39" height="11.97"/>
		
			<rect x="1361.94" y="478.03" transform="matrix(-1 -1.224647e-16 1.224647e-16 -1 2729.2622 968.04)" class="st7" width="5.39" height="11.97"/>
		<rect x="1338.85" y="478.03" class="st7" width="5.39" height="11.97"/>
		
			<rect x="1346.53" y="478.03" transform="matrix(-1 -1.224647e-16 1.224647e-16 -1 2698.4541 968.04)" class="st7" width="5.39" height="11.97"/>
	</g>
	<g>
		<rect x="1300.77" y="495.05" class="st7" width="5.39" height="11.97"/>
		
			<rect x="1308.45" y="495.05" transform="matrix(-1 -1.224647e-16 1.224647e-16 -1 2622.2798 1002.0809)" class="st7" width="5.39" height="11.97"/>
		
			<rect x="1315.95" y="495.05" transform="matrix(-1 -1.224647e-16 1.224647e-16 -1 2637.2908 1002.0809)" class="st7" width="5.39" height="11.97"/>
		<rect x="1370.12" y="495.05" class="st7" width="5.39" height="11.97"/>
		
			<rect x="1377.8" y="495.05" transform="matrix(-1 -1.224647e-16 1.224647e-16 -1 2760.9866 1002.0809)" class="st7" width="5.39" height="11.97"/>
		<rect x="1354.26" y="495.05" class="st7" width="5.39" height="11.97"/>
		
			<rect x="1361.94" y="495.05" transform="matrix(-1 -1.224647e-16 1.224647e-16 -1 2729.2622 1002.0809)" class="st7" width="5.39" height="11.97"/>
		<rect x="1338.85" y="495.05" class="st7" width="5.39" height="11.97"/>
		
			<rect x="1346.53" y="495.05" transform="matrix(-1 -1.224647e-16 1.224647e-16 -1 2698.4541 1002.0809)" class="st7" width="5.39" height="11.97"/>
	</g>
	<g>
		<rect x="1300.77" y="512.07" class="st7" width="5.39" height="11.97"/>
		
			<rect x="1308.45" y="512.07" transform="matrix(-1 -1.224647e-16 1.224647e-16 -1 2622.2798 1036.1219)" class="st7" width="5.39" height="11.97"/>
		
			<rect x="1315.95" y="512.07" transform="matrix(-1 -1.224647e-16 1.224647e-16 -1 2637.2908 1036.1219)" class="st7" width="5.39" height="11.97"/>
		<rect x="1370.12" y="512.07" class="st7" width="5.39" height="11.97"/>
		
			<rect x="1377.8" y="512.07" transform="matrix(-1 -1.224647e-16 1.224647e-16 -1 2760.9866 1036.1219)" class="st7" width="5.39" height="11.97"/>
		<rect x="1354.26" y="512.07" class="st7" width="5.39" height="11.97"/>
		
			<rect x="1361.94" y="512.07" transform="matrix(-1 -1.224647e-16 1.224647e-16 -1 2729.2622 1036.1219)" class="st7" width="5.39" height="11.97"/>
		<rect x="1338.85" y="512.07" class="st7" width="5.39" height="11.97"/>
		
			<rect x="1346.53" y="512.07" transform="matrix(-1 -1.224647e-16 1.224647e-16 -1 2698.4541 1036.1219)" class="st7" width="5.39" height="11.97"/>
	</g>
	<g>
		<rect x="1300.77" y="529.09" class="st7" width="5.39" height="11.97"/>
		
			<rect x="1308.45" y="529.09" transform="matrix(-1 -1.224647e-16 1.224647e-16 -1 2622.2798 1070.163)" class="st7" width="5.39" height="11.97"/>
		
			<rect x="1315.95" y="529.09" transform="matrix(-1 -1.224647e-16 1.224647e-16 -1 2637.2908 1070.163)" class="st7" width="5.39" height="11.97"/>
		<rect x="1370.12" y="529.09" class="st7" width="5.39" height="11.97"/>
		
			<rect x="1377.8" y="529.09" transform="matrix(-1 -1.224647e-16 1.224647e-16 -1 2760.9866 1070.163)" class="st7" width="5.39" height="11.97"/>
		<rect x="1354.26" y="529.09" class="st7" width="5.39" height="11.97"/>
		
			<rect x="1361.94" y="529.09" transform="matrix(-1 -1.224647e-16 1.224647e-16 -1 2729.2622 1070.163)" class="st7" width="5.39" height="11.97"/>
		<rect x="1338.85" y="529.09" class="st7" width="5.39" height="11.97"/>
		
			<rect x="1346.53" y="529.09" transform="matrix(-1 -1.224647e-16 1.224647e-16 -1 2698.4541 1070.163)" class="st7" width="5.39" height="11.97"/>
	</g>
	<g>
		<rect x="1300.77" y="546.11" class="st7" width="5.39" height="11.97"/>
		
			<rect x="1308.45" y="546.11" transform="matrix(-1 -1.224647e-16 1.224647e-16 -1 2622.2798 1104.204)" class="st7" width="5.39" height="11.97"/>
		
			<rect x="1315.95" y="546.11" transform="matrix(-1 -1.224647e-16 1.224647e-16 -1 2637.2908 1104.204)" class="st7" width="5.39" height="11.97"/>
		<rect x="1370.12" y="546.11" class="st7" width="5.39" height="11.97"/>
		
			<rect x="1377.8" y="546.11" transform="matrix(-1 -1.224647e-16 1.224647e-16 -1 2760.9866 1104.204)" class="st7" width="5.39" height="11.97"/>
		<rect x="1354.26" y="546.11" class="st7" width="5.39" height="11.97"/>
		
			<rect x="1361.94" y="546.11" transform="matrix(-1 -1.224647e-16 1.224647e-16 -1 2729.2622 1104.204)" class="st7" width="5.39" height="11.97"/>
		<rect x="1338.85" y="546.11" class="st7" width="5.39" height="11.97"/>
		
			<rect x="1346.53" y="546.11" transform="matrix(-1 -1.224647e-16 1.224647e-16 -1 2698.4541 1104.204)" class="st7" width="5.39" height="11.97"/>
	</g>
	<g>
		<rect x="1300.77" y="563.62" class="st7" width="5.39" height="11.97"/>
		
			<rect x="1308.45" y="563.62" transform="matrix(-1 -1.224647e-16 1.224647e-16 -1 2622.2798 1139.2089)" class="st7" width="5.39" height="11.97"/>
		
			<rect x="1315.95" y="563.62" transform="matrix(-1 -1.224647e-16 1.224647e-16 -1 2637.2908 1139.2089)" class="st7" width="5.39" height="11.97"/>
		<rect x="1370.12" y="563.62" class="st7" width="5.39" height="11.97"/>
		
			<rect x="1377.8" y="563.62" transform="matrix(-1 -1.224647e-16 1.224647e-16 -1 2760.9866 1139.2089)" class="st7" width="5.39" height="11.97"/>
		<rect x="1354.26" y="563.62" class="st7" width="5.39" height="11.97"/>
		
			<rect x="1361.94" y="563.62" transform="matrix(-1 -1.224647e-16 1.224647e-16 -1 2729.2622 1139.2089)" class="st7" width="5.39" height="11.97"/>
		<rect x="1338.85" y="563.62" class="st7" width="5.39" height="11.97"/>
		
			<rect x="1346.53" y="563.62" transform="matrix(-1 -1.224647e-16 1.224647e-16 -1 2698.4541 1139.2089)" class="st7" width="5.39" height="11.97"/>
	</g>
	<g>
		<rect x="1300.87" y="580.31" class="st7" width="5.39" height="11.97"/>
		
			<rect x="1308.55" y="580.31" transform="matrix(-1 -1.224647e-16 1.224647e-16 -1 2622.4788 1172.5952)" class="st7" width="5.39" height="11.97"/>
		
			<rect x="1316.05" y="580.31" transform="matrix(-1 -1.224647e-16 1.224647e-16 -1 2637.4897 1172.5952)" class="st7" width="5.39" height="11.97"/>
		<rect x="1370.22" y="580.31" class="st7" width="5.39" height="11.97"/>
		
			<rect x="1377.9" y="580.31" transform="matrix(-1 -1.224647e-16 1.224647e-16 -1 2761.1855 1172.5952)" class="st7" width="5.39" height="11.97"/>
		<rect x="1354.36" y="580.31" class="st7" width="5.39" height="11.97"/>
		
			<rect x="1362.04" y="580.31" transform="matrix(-1 -1.224647e-16 1.224647e-16 -1 2729.4612 1172.5952)" class="st7" width="5.39" height="11.97"/>
		<rect x="1338.95" y="580.31" class="st7" width="5.39" height="11.97"/>
		
			<rect x="1346.63" y="580.31" transform="matrix(-1 -1.224647e-16 1.224647e-16 -1 2698.6531 1172.5952)" class="st7" width="5.39" height="11.97"/>
	</g>
	<g>
		<rect x="1300.87" y="597.33" class="st7" width="5.39" height="11.97"/>
		
			<rect x="1308.55" y="597.33" transform="matrix(-1 -1.224647e-16 1.224647e-16 -1 2622.4788 1206.6362)" class="st7" width="5.39" height="11.97"/>
		
			<rect x="1316.05" y="597.33" transform="matrix(-1 -1.224647e-16 1.224647e-16 -1 2637.4897 1206.6362)" class="st7" width="5.39" height="11.97"/>
		<rect x="1370.22" y="597.33" class="st7" width="5.39" height="11.97"/>
		
			<rect x="1377.9" y="597.33" transform="matrix(-1 -1.224647e-16 1.224647e-16 -1 2761.1855 1206.6362)" class="st7" width="5.39" height="11.97"/>
		<rect x="1354.36" y="597.33" class="st7" width="5.39" height="11.97"/>
		
			<rect x="1362.04" y="597.33" transform="matrix(-1 -1.224647e-16 1.224647e-16 -1 2729.4612 1206.6362)" class="st7" width="5.39" height="11.97"/>
		<rect x="1338.95" y="597.33" class="st7" width="5.39" height="11.97"/>
		
			<rect x="1346.63" y="597.33" transform="matrix(-1 -1.224647e-16 1.224647e-16 -1 2698.6531 1206.6362)" class="st7" width="5.39" height="11.97"/>
	</g>
	<g>
		<rect x="1300.87" y="614.83" class="st7" width="5.39" height="11.97"/>
		
			<rect x="1308.55" y="614.83" transform="matrix(-1 -1.224647e-16 1.224647e-16 -1 2622.4788 1241.6411)" class="st7" width="5.39" height="11.97"/>
		
			<rect x="1316.05" y="614.83" transform="matrix(-1 -1.224647e-16 1.224647e-16 -1 2637.4897 1241.6411)" class="st7" width="5.39" height="11.97"/>
		<rect x="1370.22" y="614.83" class="st7" width="5.39" height="11.97"/>
		
			<rect x="1377.9" y="614.83" transform="matrix(-1 -1.224647e-16 1.224647e-16 -1 2761.1855 1241.6411)" class="st7" width="5.39" height="11.97"/>
		<rect x="1354.36" y="614.83" class="st7" width="5.39" height="11.97"/>
		
			<rect x="1362.04" y="614.83" transform="matrix(-1 -1.224647e-16 1.224647e-16 -1 2729.4612 1241.6411)" class="st7" width="5.39" height="11.97"/>
		<rect x="1338.95" y="614.83" class="st7" width="5.39" height="11.97"/>
		
			<rect x="1346.63" y="614.83" transform="matrix(-1 -1.224647e-16 1.224647e-16 -1 2698.6531 1241.6411)" class="st7" width="5.39" height="11.97"/>
	</g>
	<rect x="1701.12" y="389.94" class="st7" width="75.59" height="3.98"/>
	<rect x="1701.12" y="413.53" class="st7" width="75.59" height="3.98"/>
	<rect x="1701.12" y="437.71" class="st7" width="75.59" height="3.98"/>
	<rect x="1701.12" y="461.3" class="st7" width="75.59" height="3.98"/>
	<rect x="1701.12" y="485.07" class="st7" width="75.59" height="3.98"/>
	<rect x="1701.12" y="508.66" class="st7" width="75.59" height="3.98"/>
	<rect x="1701.12" y="532.84" class="st7" width="75.59" height="3.98"/>
	<rect x="1701.12" y="556.42" class="st7" width="75.59" height="3.98"/>
	<rect x="1701.12" y="579.77" class="st7" width="75.59" height="3.98"/>
	<rect x="1701.12" y="603.36" class="st7" width="75.59" height="3.98"/>
	<g>
		<ellipse class="st8" cx="1947.08" cy="691.77" rx="393.59" ry="8.72"/>
		<g>
			<path class="st9" d="M2350.63,583.02c-1.7-17-16.53-27.91-16.53-27.91s0.25-31.58,0-35.69c-0.1-2.06-0.23-4.77-0.38-7.1
				c-0.15-2.36-0.33-4.31-0.58-4.82c-0.5-0.98-4.14-20.39-5.84-23.78c-1.68-3.41-4.84-11.41-5.09-15.07
				c-0.25-3.64-8.98-27.91-10.93-31.8c-1.93-3.89-14.07-42.23-15.78-45.65c-1.7-3.39-4.36-5.57-7.78-6.07
				c-1.4-0.2-3.81-0.28-6.14-0.3c-3.31,0-6.47,0.08-6.47,0.08s-21.84-10.94-29.37-14.35c-7.78-3.14-29.87-2.18-29.87-2.18
				s-169.72-0.95-190.84,0c-19.39,0.9-45.17,17.56-49.23,20.27c-0.35,0.25-0.55,0.38-0.55,0.38s-0.73,2.18-26.94,2.68
				c-46.37-0.5-78.9,20.39-84.97,25.01c-6.07,4.61-65.31,48.56-78.18,56.08c-12.89,7.52-56.58,21.12-76.97,25.01
				c-20.39,3.89-38.85,10.68-46.88,16.28c-2.26,1.58-4.99,5.12-7.72,9.38c-6.9,10.73-13.87,26.06-13.87,26.06s-0.2,0.4-0.55,1.18
				c-0.95,2.16-2.93,7.25-4.54,15.1c-2.21,10.68-2.43,48.05,0,59.24c2.41,11.16,9.21,17.23,11.64,19.41
				c1.86,1.68,8.58,1.35,11.61,1.66c0.93,0.1,1.51,0.25,1.51,0.53c0,0,3.16,1.71,6.07,6.32c2.91,4.61,27.96-1.91,28.42,0
				c6.3,26.71,20.64,30.1,26.46,33.76c12.39,4.59,32.05,3.14,40.3,0c11.64-3.66,20.39-15.8,22.82-18.96
				c2.43-3.14,5.34-15.52,5.34-15.52l1.93-0.25c0,0,355.69-0.48,355.94,0c4.61,19.19,18.94,28.89,18.94,28.89
				c1.7,1.23,9.48,5.84,18.21,8.25c13.12,2.91,29.37-0.48,36.67-3.89c7.27-3.39,14.8-12.87,17.48-15.78
				c2.66-2.91,8.5-18.21,8.5-18.94s14.8,0,21.84-0.73c1.51-0.15,4.41-0.63,8.1-1.3c13.77-2.48,38.42-7.57,41.66-8.15
				c4.14-0.75,2.21-2.93,2.21-2.93s0.45-1.35,0.9-2.88c0.3-1,0.58-2.08,0.78-2.93c0.5-2.18,9.23-0.25,17.48-0.98
				c8.28-0.73,6.07-2.91,9.73-10.91C2352.81,611.66,2352.31,600.02,2350.63,583.02z M2029.22,387.99c0,0,1.1-9.68,19.01-13.59
				c11.24-2.46,163.45-1.68,174.36,0c10.91,1.68,21.27,5.04,22.95,6.14c1.03,0.7,3.01,2.31,3.29,3.46l-1,1.15
				c-0.18,0.05-0.38,0.07-0.63,0.1l-0.55,0.03L2029.22,387.99z"/>
			<path class="st10" d="M2036.3,387.92c0.98-0.03,2.06-0.03,3.19-0.05L2036.3,387.92z"/>
			<path class="st11" d="M2349.17,619.68c-3.66,8-1.45,10.18-9.73,10.91c-8.25,0.73-16.98-1.2-17.48,0.98
				c-0.2,0.85-0.48,1.93-0.78,2.93c-0.45,1.53-0.9,2.88-0.9,2.88s1.93,2.18-2.21,2.93c-3.23,0.58-27.89,5.67-41.66,8.15
				l-76.82-25.51l-11.04-27.39l-9.96-3.21c0,0-8.18-3.19-16.35-2.83c-8.15,0.38-29.8,7.47-33.56,29.52
				c-0.55,4.97-2.68,18.84-2.68,18.84l-313.18-1.96c0,0,0.63-41.31-25.98-49.88c0-0.7,115.52-22.35,120.61-24.5
				c5.09-2.18,141.88-27.14,156.35-29.7c14.47-2.56,95.63-21.57,96.48-21.57c0.85,0,83.72-15.65,100.42-16.35
				c16.73-0.73,30.22,0,39.48,0c0.45-0.23,20.01,10.76,33.53,18.38c0.15,2.33,0.28,5.04,0.38,7.1c0.25,4.11,0,35.69,0,35.69
				s14.82,10.91,16.53,27.91C2352.31,600.02,2352.81,611.66,2349.17,619.68z"/>
			<path class="st12" d="M2320.28,637.39c0,0,1.93,2.18-2.21,2.93c-4.11,0.73-42.71,8.73-49.76,9.46c-7.05,0.73-21.84,0-21.84,0.73
				s-5.84,16.03-8.5,18.94c-2.68,2.91-10.21,12.39-17.48,15.78c-7.3,3.41-23.55,6.8-36.67,3.89c-8.73-2.41-16.5-7.02-18.21-8.25
				c0,0-14.32-9.71-18.94-28.89c-0.25-0.48-355.94,0-355.94,0l-1.93,0.25c0,0-2.91,12.39-5.34,15.52
				c-2.43,3.16-11.19,15.3-22.82,18.96c-8.25,3.14-27.91,4.59-40.3,0c-5.82-3.66-20.16-7.05-26.46-33.76
				c-0.45-1.91-25.51,4.61-28.42,0c-2.91-4.61-6.07-6.32-6.07-6.32c0-0.28-0.58-0.43-1.51-0.53h24.08c0,0-3.74-29.74,6.07-40.43
				c6.92-7.8,14.42-23.4,45.02-23.98c15.6,0.58,40.15,1.76,54.88,18.21c5.77,6.65,12.69,16.15,13.84,28.57c0,7.52,0,17.63,0,17.63
				h332.92c0,0,0.85-32.63,14.14-41.88c13.29-9.23,22.22-17.03,47.93-16.15c20.21,0.85,38.97,3.16,51.39,19.06
				c4.04,4.31,6.07,7.2,6.95,15.57c0.85,8.38,0,25.71,0,25.71l66.09-13.89C2320.73,636.04,2320.28,637.39,2320.28,637.39z"/>
			<circle class="st13" cx="1740.95" cy="643.24" r="50.87"/>
			<circle class="st14" cx="1740.95" cy="644.43" r="28.13"/>
			<circle class="st13" cx="2195.64" cy="643.24" r="50.87"/>
			<circle class="st14" cx="2195.64" cy="644.43" r="28.13"/>
			<path class="st15" d="M2326.48,481.92h-19.76c0,0-6.97,0.73-6.75,6.37c0,2.98-2.98,4.87,7.88,12.36
				c8.1,5.59,20.39,12.24,26.08,15.22L2326.48,481.92z"/>
			<path class="st16" d="M1844.24,455.05c0,0,39.09-25.81,44.35-29.41c5.26-3.6,27.14-17.45,75.61-16.34
				c22.16-0.55,22.16-0.55,22.16-0.55v44.89l-1.38,29.89l-3.05,1.38l-129.62,1.38L1844.24,455.05z"/>
			<path class="st17" d="M2170.41,505.27c1.28,0,103.8-6.37,103.8-6.37v7.66l-103.8,6.09V505.27z"/>
			<path class="st18" d="M1665.93,523.45c0,0,29.16-11.67,53.13-18.02c24.83-6.93,31.76-9.21,36.67-11.82
				c4.91-2.61,13.35-6.37,13.35-6.37l-5.53-5.32"/>
			<path class="st18" d="M1822.61,488.12c0,0-10.56,24.1-11.4,43.28c-0.83,19.18,0.56,51.42,1.95,57.53
				c1.39,6.11,12.57,48.92,12.57,48.92h299c0,0,0.02-37.3,26.27-45.47c9.33-2.65,22.63-1.97,22.63-1.97l-4.71-119.94
				c0,0-5-54.97-5.84-63.03c-0.83-8.06-4.45-19.52-4.45-19.52"/>
			<path class="st18" d="M2002.99,388.64c0,1.01,0,93.27,0,93.27s2.78,23.07,3.61,29.47c0.83,6.39,3.34,46.14,2.5,61.98
				c-0.83,15.84,0.17,64.48,0.17,64.48"/>
			<line class="st18" x1="2135.47" y1="473.69" x2="2203.1" y2="470.47"/>
			<path class="st16" d="M2019.08,405.61c0,0-3.79,13.81-5.54,25.77c-1.75,11.96-2.33,27.72-2.33,34.43s0,16.12,0,16.12l123.12-6.49
				c0,0,7-8.75,7-25.97c0-17.21,2.04-39.87,0-43.86s-2.04-3.99-2.04-3.99L2019.08,405.61z"/>
			<path class="st16" d="M2183.33,401.62c0,0-2.04,10.5-2.04,23.92s7.88,36.76,11.96,40.84s4.08,4.08,4.08,4.08l96.28-5.83
				c0,0,4.38-1.75,3.79-9.34s-4.38-46.55-4.38-46.55s-3.79-3.92-7-7.13c-3.21-3.21-2.63-4.08-9.04-3.79s-93.07,1.75-93.07,1.75
				L2183.33,401.62z"/>
			<path class="st0" d="M1687.88,526.19c-0.68,1.63-13.09,16.98-18.38,20.64c-5.32,3.66-7.32,5.54-13.98,6.8
				c-5.09,0.96-7.28,1.06-10.52-0.03c-2.39-0.8-4.39-2.18-5.82-2.91c0.35-0.78,0.55-1.18,0.55-1.18s6.97-15.32,13.87-26.06
				c9.78,0,33.26,0,33.26,0S1688.53,524.53,1687.88,526.19z"/>
			<path class="st9" d="M2247.2,385.26c0.25-0.03,0.45-0.05,0.63-0.1l-0.1,0.1H2247.2z"/>
			<path class="st9" d="M2250.96,381.57l-2.13,2.43c-0.28-1.15-2.26-2.76-3.29-3.46c-1.68-1.1-12.04-4.46-22.95-6.14
				c-10.91-1.68-163.12-2.46-174.36,0c-17.91,3.91-19.01,13.59-19.01,13.59v0.65l-0.7-0.65l-1.15-1.08l2.83-6.09l7.67-6.55
				l13.14-2.98l34.71-0.88l100.77,0.88h38.8l15.98,4.97L2250.96,381.57z"/>
			<path class="st10" d="M2281.58,384.83v0.03l-33.86,0.4l-1.08,0.03l0.55-0.03c0.25-0.03,0.45-0.05,0.63-0.1
				c0.88-0.18,1.13-0.63,1-1.15c-0.28-1.15-2.26-2.76-3.29-3.46c-1.68-1.1-12.04-4.46-22.95-6.14c-10.91-1.68-163.12-2.46-174.36,0
				c-17.91,3.91-19.01,13.59-19.01,13.59h-0.7l-52.72,0.65c4.06-2.71,29.85-19.36,49.23-20.27c21.12-0.95,190.84,0,190.84,0
				s22.1-0.95,29.87,2.18c7.52,3.41,29.37,14.35,29.37,14.35S2278.27,384.83,2281.58,384.83z"/>
			<path class="st19" d="M1848.04,452.43v35.68c0,0-45.42,0-44.6,0C1804.25,488.12,1848.04,452.43,1848.04,452.43z"/>
			<path class="st20" d="M1834.93,487.29c0,0-2.87,4.39-4.72,7.42c-1.86,3.04-3.37,3.21-2.02,5.4c1.35,2.19,3.37,3.88,8.77,3.21
				c5.4-0.67,10.29-0.34,11.81-2.87c1.52-2.53,2.19-12.32,2.19-12.32s9.62,0,9.79,0s0-31.38,0-31.38s0.67-1.69-2.02-2.36
				s-12.49-1.86-15.86,1.69s-5.74,8.94-5.57,19.57C1837.46,483.75,1836.35,485.09,1834.93,487.29z"/>
			<path class="st17" d="M1998.94,511.17c1.28,1.37,1.71,2.03,4.05,2.74c2.34,0.71,4.16,1.32,5.48,3.14s5.88,5.68,8.11,5.17
				c2.23-0.51,3.14,0,5.47-2.84s0.71-4.26,4.66-5.37c3.95-1.12,5.17-0.2,6.18-2.23c1.01-2.03,1.52-3.14,0.71-3.95
				c-0.81-0.81-1.42-1.32-1.82-1.32s-32.85,0.51-32.85,0.51S1996.1,508.13,1998.94,511.17z"/>
		</g>
	</g>
	<g>
		<path class="st21" d="M2018.22,691.99c0,0-18.31,0.8-18.48,0c-0.15-0.83-0.48-2.96-0.65-7.52c-0.05-1.6-0.18-3.46-0.35-5.19
			c-0.08-0.9-0.15-1.78-0.23-2.58c-0.23-2.03-0.4-3.51-0.4-3.51s-10.31-37.29-11.94-39.9c-1.63-2.61-14.72-39.73-14.72-39.73
			l-10.31-35.36l-2.93-5.37c0,0-0.98,3.44-0.98,4.24c0,0.83-2.78,22.57-3.59,27.64c-0.83,5.07-2.38,9.15-0.95,14.72
			c1.43,5.57,1.75,13.89,2.08,23.88c0.33,9.98-1.08,24.53-2.08,27.81c-1.03,3.26-4.62,22.4-4.62,22.4l-0.33,4.04l-0.25,3.01
			l-0.4,4.89v5.57l-31.9,0.33c0,0,1.96-2.96,3.94-3.61c1.96-0.65,12.92-5.72,12.92-5.72l2.86-2.96c0.03-0.03,0.05-0.05,0.05-0.05
			l1.18-1.23l-0.98-1.98l-0.58-0.23c-0.25-0.1-0.45-0.18-0.58-0.25l-0.5-47.28l-1.78-102.7l-0.28-7.17l-0.55-14.75
			c-0.65,0-6.04,3.76-12.26,0c-6.22-3.76-10.46-7.35-10.96-8.5c-0.1-0.25-0.5-1-1.03-2.01c-0.68-1.25-1.56-2.88-2.43-4.44
			c-1.43-2.61-2.76-4.99-2.76-4.99s-3.14,0.98-4.49-1.48c-1.38-2.46-2.36-7.52-2.03-8.65c0.33-1.15,0.33-1.15,0.33-1.15l-8.18-19.64
			l25.51-8.83l4.21,8.15l4.71,9.1c0,0.02,0.02,0.05,0.05,0.1l0.68-9.66c0,0,0.8-14.25,4.56-17.66c3.76-3.44,10.13-5.42,12.92-6.55
			c1.2-0.5,2.48-1.08,3.51-1.56c0.48-0.23,0.9-0.45,1.25-0.63c0.6-0.28,0.95-0.45,0.95-0.45l2.13-3.26l0.2-1.18l0.12-0.83l0.33-2.08
			c0,0-0.1-0.08-0.28-0.25c-1-1.03-4.82-5.09-6.09-8.9c-1.48-4.41-4.74-9.81-6.22-13.09c-1.15-2.58-1.7-1.05-2.63-3.86
			c-0.25-0.73-0.5-1.73-0.8-3.16c-1.45-7.05-1.78-8.18-2.93-10.81c-1.15-2.61-7.85-8.5-2.28-12.92c5.54-4.41,6.19-4.56,12.26-5.22
			c6.04-0.68,10.13-1,13.72-2.13c3.61-1.15,10.48,0,12.44,2.13c1.96,2.11,3.94,4.74,4.09,8.18c0.18,3.44-0.83,9.15-0.15,11.61
			c0.23,0.83,0.4,1.58,0.53,2.33c0.23,1.43,0.23,2.88-0.2,5.02c-0.68,3.26-0.68,4.26-1.33,6.37c-0.65,2.13,0,6.07-0.33,8.35
			c-0.33,2.28,0.4,7.02,2.01,7.52c0.5,0.15,1.66,0.6,2.96,1.23l1.51,0.7c2.43,1.18,4.89,2.51,4.99,2.96
			c0.1,0.48,2.63,2.16,5.12,3.84c0.18,0.15,0.38,0.28,0.55,0.4c1.63,1.08,3.14,2.13,3.81,2.76c1.81,1.68,9.48,3.49,9.98,16.55
			c0.48,13.09,0.98,41.06-1.3,46.3c-2.31,5.22-2.13,6.04-5.42,7.52c-3.26,1.45-5.07,1.3-4.89,1.96c0.1,0.48,0.33,16.08,0.48,24.68
			c0.07,3.16,0.12,5.39,0.18,5.57c0.15,0.65,0.48,44.32,1.15,62.8c1.45,5.89,3.91,9.83,5.07,11.46c1.13,1.63,8,17.66,9.96,31.07
			c1.98,13.39,4.59,30.9,5.24,39.73c0.35,4.89,0.58,7.22,0.88,8.75c0.28,1.23,0.55,1.93,1.08,3.04c1.15,2.46,6.72,7.02,6.87,8.98
			C2018.4,690.69,2018.22,691.99,2018.22,691.99z"/>
		<path class="st22" d="M1997.63,483.15c-2.31,5.22-2.13,6.04-5.42,7.52c-3.26,1.45-5.07,1.3-4.89,1.96
			c0.1,0.48,0.33,16.08,0.48,24.68c-1.45,1.25-5.17,4.19-8.5,4.92c-4.29,0.9-10.38,4.56-16.63,4.11
			c-6.27-0.45-15.73-1.05-21.97-3.66c-3.51-1.45-6.92-3.24-9.25-4.51l-0.55-14.75c-0.65,0-6.04,3.76-12.26,0
			c-6.22-3.76-10.46-7.35-10.96-8.5c-0.1-0.25-0.5-1-1.03-2.01c-0.68-1.25-1.56-2.88-2.43-4.44c0.63-2.58,1.23-8.05,1.23-8.05
			l5.19-11.14l6.17-17.41l4.71,9.1c0,0.02,0.02,0.05,0.05,0.1l0.68-9.66c0,0,0.8-14.25,4.56-17.66c3.76-3.44,10.13-5.42,12.92-6.55
			c1.2-0.5,2.48-1.08,3.51-1.56c0.48-0.23,0.9-0.45,1.25-0.63l4.89,5.17l6.12,3.29l8.7-3.44l7.62-6.4l8.53-5.69l4.24-0.83
			c0.18,0.15,0.38,0.28,0.55,0.4c1.63,1.08,3.14,2.13,3.81,2.76c1.81,1.68,9.48,3.49,9.98,16.55
			C1999.41,449.94,1999.91,477.91,1997.63,483.15z"/>
		<path class="st21" d="M1745.65,401.96c0,0,0.35-0.88,0-1.4c-0.35-0.55,0-1.08,0-1.08l-0.88-1.96c0,0-0.9-1.4-1.78-2.31
			c-0.9-0.88,0.18-1.43,0-2.48c-0.18-1.08-0.35-1.61-3.39-1.43c-3.01,0.18-6.92,5.52-8.7,7.3c-1.78,1.78-3.03,2.66-3.84,1.61
			c-0.8-1.08-0.6-5.34-0.08-8.38c0.53-3.01-1.78-1.76-1.78-1.76s-3.56,3.19-4.44,5.67c-0.9,2.51-0.9,9.43-1.25,9.86
			c-0.35,0.45,0,2.58,0,2.58l-0.5-0.2l-1.63-0.68l-1.35,0.6l-4.14,1.88c0,0-19.21,10.31-28.62,16c-9.43,5.69-13.87,1.78-13.87,1.78
			s-14.22-6.95-18.48-9.96c-4.26-3.01-18.31-10.13-18.31-10.13l-5.09-1.35l-0.4-0.1h-0.05l-1.56-0.43l-0.15-1.35l-0.15-1.3
			l-0.07-0.6c0,0-0.23-1.03,0.58-1.88c0.23-0.23,0.5-0.45,0.85-0.63c1.78-0.88,1.9-2.43,2.86-4.09c0.56-0.97,1.4-10.13,1.76-11.54
			c0.38-1.43,0.73-5.87,0.73-7.3c0-1.4-0.35-11.71-0.35-11.71l0.45-5.14l0.07-0.73c0,0,3.91-8.18,3.56-11.74
			c-0.38-3.56-5.52-4.09-8-3.74c-2.51,0.35-5.69,1.61-8.73,4.09c-3.01,2.48-8.18,4.26-13.49,8.7c-5.34,4.46-4.09,12.99-4.09,12.99
			l0.7,5.47l0.35,2.71c0,0-0.18,3.71,0.55,6.4c0.7,2.66,2.83,2.66,2.83,2.66s0.7,9.25,0.35,12.26c-0.18,1.43-0.25,2.28-0.3,2.76
			c-0.05,0.53-0.05,0.63-0.05,0.63s-3.26,1.55-5.19,2.46c-0.05,0.05-0.08,0.05-0.13,0.08c-0.53,0.25-0.95,0.45-1.18,0.55
			c-1.08,0.48-4.87,1.3-8.05,3.34c-3.21,2.01-14.7,12.79-15.65,14.92c-0.95,2.13-15.05,24.05-20.74,34.49
			c-5.69,10.41,3.21,22.5,3.56,24.88c0.3,1.98,11.14,18.53,14.6,23.78c0.65,1,1.05,1.58,1.05,1.58s1.05,3.79,3.44,7.57
			c1.48,2.38,2.56,5.34,3.14,7.2c0.35,1.1,0.53,1.81,0.53,1.81s0.95,16.7,0.95,21.57s3.66,29.87,3.66,29.87s1.05,13.39-0.73,19.19
			c-1.78,5.82-4.61,13.04-5.92,20.99c-1.3,7.93,1.08,52.59,1.66,55.68c0.45,2.31,1.03,3.44,1.28,3.84c0.1,0.15,0.15,0.2,0.15,0.2
			s1.05,4.36,1.35,5.52c0.02,0.15,0.05,0.25,0.08,0.28c0.1,0.35,0,11.61,0,11.61h30.67c0,0,0.48-2.61,0-3.66
			c-0.48-1.08-2.26-0.6-4.86-1.55c-2.23-0.83-9.08-5.27-11.21-6.67c-0.33-0.23-0.55-0.38-0.63-0.43c0,0-0.68-2.01-1.18-5.39
			c-0.38-2.56-0.65-5.92-0.43-9.76c0.55-8.88,3.03-37.32,3.21-38.75c0.18-1.43,1.78-20.44,2.31-24c0.53-3.54,3.38-27.36,3.91-29.85
			c0.53-2.48,3.56-27.74,3.56-27.74s1.4-1.58,2.48,0.9c1.05,2.48,9.05,22.57,9.96,24.7c0.88,2.13,1.78,7.1,1.4,12.26
			c-0.35,5.14-0.88,18.83-1.23,29.32c-0.35,10.48,1.56,15.07,3.01,22.92c0,0,6.22,33.96,7.12,35.54c0.88,1.6,1.05,3.39,1.58,3.91
			c0.05,0.05,0.08,0.13,0.13,0.25c0.28,0.88,0.58,3.61,0.8,5.99c0.2,2.08,0.33,3.89,0.33,3.89l1.61,8.1h29.67
			c0,0,0.35-1.71,0.18-3.29c-0.18-1.6-2.13-1.08-4.26-1.6c-2.13-0.53-6.92-2.48-11.01-4.99c-1.51-0.93-2.53-1.66-3.24-2.23
			c-1.18-1-1.38-1.48-1.38-1.48s-0.18-1.18-0.5-4.82c-0.02-0.1-0.05-0.23-0.05-0.35c-0.35-21.67-5.49-117.83-5.49-117.83
			l-1.56-48.73l-0.07-2.51l-2.11-66.59l3.56,0.7c0,0,14.02,3.74,22.02,6.75c8,3.03,16.7,2.31,18.31,2.48c1.61,0.2,8.7-2.83,8.7-2.83
			l31.13-19.74c0,0,4.61-3.36,5.32-4.44c0.7-1.05,1.43-3.01,1.43-3.01l1.58-0.7l2.86-1.25l10.13-7.65c0,0,3.74-4.26,4.41-4.97
			C1746.5,404.09,1746,403.22,1745.65,401.96z M1587.14,504.06v0.03c-0.03,0.63-0.03,0.95-0.03,0.95l-1.96-3.71
			c-0.1-0.18-0.55-1-1.2-2.28c-0.03-0.08-0.05-0.1-0.05-0.1c-3.64-6.97-13.67-26.89-13.67-27.49c0-0.7-2.13-2.48,1.78-8
			c3.91-5.49,14.22-18.48,14.22-18.48s1.58-3.36,1.75,1.96C1588.17,451.85,1587.29,496.84,1587.14,504.06z"/>
		<path class="st23" d="M1632.09,359.33l-0.07,0.73c-1.48,0.13-3.16,0.3-4.49,0.55c-2.94,0.55-11.94-0.35-13.42-0.73
			c-1.48-0.38-4.24,0.73-5.89,2.38c-1.66,1.66,0.18,12.14,0,15.83c-0.18,3.69-1.83-0.93-3.49-2.38c-0.73-0.65-1.73-0.73-2.68-0.6
			l-0.7-5.47c0,0-1.25-8.53,4.09-12.99c5.32-4.44,10.48-6.22,13.49-8.7c3.03-2.48,6.22-3.74,8.73-4.09c2.48-0.35,7.62,0.18,8,3.74
			C1636,351.15,1632.09,359.33,1632.09,359.33z"/>
		<path class="st24" d="M1645.63,675.49c-2.93,0.08-8.5,0.23-12.19,0.43c-0.05-0.13-0.08-0.2-0.13-0.25
			c-0.53-0.53-0.7-2.31-1.58-3.91c-0.9-1.58-7.12-35.54-7.12-35.54c-1.45-7.85-3.36-12.44-3.01-22.92
			c0.35-10.48,0.88-24.18,1.23-29.32c0.38-5.17-0.53-10.13-1.4-12.26c-0.9-2.13-8.9-22.22-9.96-24.7c-1.08-2.48-2.48-0.9-2.48-0.9
			s-3.03,25.26-3.56,27.74c-0.53,2.48-3.39,26.31-3.91,29.85c-0.53,3.56-2.13,22.57-2.31,24c-0.18,1.43-2.66,29.87-3.21,38.75
			c-0.23,3.84,0.05,7.2,0.43,9.76l-0.95,0.1h-13.42c-0.25-0.4-0.83-1.53-1.28-3.84c-0.58-3.08-2.96-47.75-1.66-55.68
			c1.3-7.95,4.14-15.17,5.92-20.99c1.78-5.79,0.73-19.19,0.73-19.19s-3.66-25.01-3.66-29.87s-0.95-21.57-0.95-21.57
			s-0.18-0.7-0.53-1.81l1.96,1.43c0,0,1.51,0,1.83-0.5c0.35-0.5,1.35-0.33,2.21-0.5c0.83-0.18,1.83-0.68,3.33-1.35
			c1.51-0.65,1.35-1.51,2.76-2.68c1.38-1.18,2.31-2.86,2.63-4.19c0.35-1.35-0.15-3.39-0.83-4.89c-0.68-1.5-4.57-3.36-4.57-3.36
			l0.85-2.26l40.2-2.28l7.45,3.31l0.07,2.51l1.56,48.73c0,0,5.14,96.16,5.49,117.83C1645.58,675.26,1645.6,675.39,1645.63,675.49z"
			/>
		<path class="st25" d="M1728.39,418.69l-1.58,0.7c0,0-0.73,1.96-1.43,3.01c-0.7,1.08-5.32,4.44-5.32,4.44l-31.13,19.74
			c0,0-7.1,3.04-8.7,2.83c-1.6-0.18-10.31,0.55-18.31-2.48c-8-3.01-22.02-6.75-22.02-6.75l-3.56-0.7l2.18,69.1
			c-8,0.15-39.7,0.78-43.24,0.3c-4.06-0.55-4.97-1.1-6.45-2.56c-0.43-0.43-1.05-1.28-1.7-2.23v-0.03
			c0.15-7.22,1.03-52.22,0.85-57.13c-0.18-5.32-1.75-1.96-1.75-1.96s-10.31,12.99-14.22,18.48c-3.91,5.52-1.78,7.3-1.78,8
			c0,0.6,10.03,20.52,13.67,27.49c0,0-6.67,4.84-10.91,8.05c-3.46-5.24-14.3-21.79-14.6-23.78c-0.35-2.38-9.25-14.47-3.56-24.88
			c5.69-10.43,19.79-32.35,20.74-34.49c0.95-2.13,12.44-12.92,15.65-14.92c3.19-2.03,6.97-2.86,8.05-3.34
			c0.23-0.1,0.65-0.3,1.18-0.55c1.3,1.45,4.31,4.46,8.63,6.87c5.89,3.31,14.55-0.73,15.65-1.66c0.68-0.55,1.66-2.66,2.33-4.24h0.05
			l5.49,1.45c0,0,14.05,7.12,18.31,10.13c4.26,3.01,18.48,9.96,18.48,9.96s4.44,3.91,13.87-1.78c9.41-5.69,28.62-16,28.62-16
			l4.14-1.88l2.98,0.08L1728.39,418.69z"/>
		<path class="st26" d="M1627.22,407.38c-0.75,0-0.6,3.01-5.29,4.29c-4.66,1.3-10.03,3.46-15.75-1.58
			c-2.76-2.36-4.54-4.06-5.59-5.12c1.93-0.9,5.19-2.46,5.19-2.46s0-0.1,0.05-0.63c1.58,1.18,4.09,2.96,5.72,3.71
			c2.51,1.2,4.29,1.63,4.29,1.63l1.03,3.56l3.41-4.29l4.14-2.36l0.95,0.1l0.15,1.35l1.56,0.43h0.05l0.4,0.1
			C1627.57,406.8,1627.55,407.38,1627.22,407.38z"/>
		<path class="st27" d="M1614.3,693.9h-30.67c0,0,0.1-11.26,0-11.61c-0.03-0.03-0.05-0.13-0.08-0.28h14.67
			c2.13,1.4,8.98,5.84,11.21,6.67c2.61,0.95,4.39,0.48,4.86,1.55C1614.78,691.29,1614.3,693.9,1614.3,693.9z"/>
		<path class="st27" d="M1665.84,693.9h-29.67l-1.61-8.1c0,0-0.12-1.81-0.33-3.89c3.24-0.08,7.98-0.15,8.5,0.1
			c0.48,0.25,2.93,0,4.77-0.23c0.7,0.58,1.73,1.3,3.24,2.23c4.09,2.51,8.88,4.46,11.01,4.99c2.13,0.53,4.09,0,4.26,1.6
			C1666.2,692.19,1665.84,693.9,1665.84,693.9z"/>
		<path class="st28" d="M1625.14,402.34l0.07,0.6c-6.8-0.3-8.45-1.68-9.15-2.13c-0.8-0.53,0.15-0.53,2.88-0.28
			c2.36,0.2,4.24,0.3,6.77-0.08C1624.91,401.31,1625.14,402.34,1625.14,402.34z"/>
		<path class="st28" d="M1959.03,417.11c-0.95,0.43-3.11,1.73-11.14,2.21l0.33-2.08c0,0-0.1-0.08-0.28-0.25
			c2.26,0.03,4.21-0.05,6.65-0.2C1958.81,416.51,1960.26,416.51,1959.03,417.11z"/>
		<path class="st29" d="M1969.87,381.15c-0.08-0.48-1.1-0.23-3.29,0.08c-2.21,0.3-3.49,4.44-5.24,6.92
			c-1.73,2.48-2.43-1.71-2.73-4.04c-0.3-2.33-2.53-3.84-3.24-8.78c-0.7-4.92-5.59-2.28-9.13,0c-3.54,2.31-0.3,1.1-3.14,3.39
			c-2.83,2.31-3.59,0.9-5.77,1c-2.21,0.1-2.78-0.1-4.64,0.6c-1.83,0.7-0.4,3.34-0.35,5.44c0.02,1.05,0.35,3.36,0.65,5.37
			c-0.25-0.73-0.5-1.73-0.8-3.16c-1.45-7.05-1.78-8.18-2.93-10.81c-1.15-2.61-7.85-8.5-2.28-12.92c5.54-4.41,6.19-4.56,12.26-5.22
			c6.04-0.68,10.13-1,13.72-2.13c3.61-1.15,10.48,0,12.44,2.13c1.96,2.11,3.94,4.74,4.09,8.18c0.18,3.44-0.83,9.15-0.15,11.61
			C1969.57,379.64,1969.74,380.39,1969.87,381.15z"/>
		<path class="st30" d="M1929,484.14l-20.71,8.12c-0.94,0.37-1.99-0.01-2.47-0.89c-1.84-3.38-4.36-7.89-4.36-7.89
			c-0.02,0-0.05,0-0.1,0.03c-0.1,0.03-0.2,0.05-0.33,0.07c-0.88,0.18-3.01,0.33-4.06-1.58c-1.38-2.46-2.36-7.52-2.03-8.65
			c0.33-1.15,0.33-1.15,0.33-1.15l-0.08-0.2l-7.29-17.48c-0.44-1.06,0.1-2.27,1.19-2.65l21.87-7.57c0.94-0.32,1.97,0.09,2.42,0.97
			l8.14,15.72c0,0.02,0.02,0.05,0.05,0.1c3.66,8.78,6.82,16.3,6.82,16.3l1.73,4.14C1930.54,482.55,1930.04,483.73,1929,484.14z"/>
		<path class="st26" d="M1985.14,417.54c-4.14,3.59-19.34,16.75-22.22,18.61c-3.36,2.18-9.25,3.69-9.25,3.69l-2.65-3.6l-7.78-10.57
			c1.28-0.63,2.21-1.08,2.21-1.08l2.13-3.26l0.2-1.18c2.18,0.93,5.44,2.28,5.89,2.28c0.7,0,2.38,0,2.38,0s5.69-1.68,6.2-2.36
			c0.5-0.68,10.73-10.43,10.73-10.43l1.51,0.7c2.43,1.18,4.89,2.51,4.99,2.96C1979.57,413.8,1982.51,415.73,1985.14,417.54z"/>
		<path class="st31" d="M1954.7,430.13l-3.68,6.11l2.66,4.28l8-3.65l-2.96-6.74c0,0,0.3-3.41,0.73-5.39c0.44-1.98,0-3.4,0-3.4
			s-4.06,1.1-4.92,1.1s-1.21-0.74-0.85,2.31C1954.03,427.78,1954.7,430.13,1954.7,430.13z"/>
		<path class="st26" d="M1937.79,458.9c0,0,0.07,0.91,0.03,2.13c-0.06,1.82-0.37,4.31-1.56,5.5c-1.98,1.98,0,4.12,0,4.12
			s7.93,8.09,9.31,7.63s5.84-0.31,7.12-3.97c1.28-3.66,3.41-7.17,2.65-10.38s-0.58-5.19-1.66-5.04
			C1952.59,459.05,1937.79,458.9,1937.79,458.9z"/>
		<path class="st21" d="M1937.33,457.98c-1.66-2.19-3.36-3.36-4.73-4.12c-1.37-0.76-3.51-1.07-5.04-0.92s-2.1,0.48-3.81,0.92
			c-1.71,0.43-2.29,0.76-2.75,1.07c-0.46,0.31-2.33,0.56-1.83,1.53c0.5,0.97,3.51,0.61,4.43,0.61c0.92,0,1.2,0.92,1.2,0.92h-1.04
			c0,0-1.07-0.47-1.22,0.91c-0.15,1.38,0.15,2.14,0.15,2.14l0.31,1.07l-0.55,1.08l0.58,1.39l2.87,1.2h2.32l1.64,0.76l2.29,0.76
			l1.68,1.02l1.56,0.28c0,0,1.59-2.28,1.95-4.08C1937.69,462.72,1938.12,459.02,1937.33,457.98z"/>
		<path class="st21" d="M1904.91,477.33l0.7,0.95l-0.3,1.33l-0.7,1.2l0.5,1.48c0,0-0.3,1-0.9,1.1c-0.6,0.1-2.08,0-2.08,0l0.03-0.03
			c-0.05,0-0.23,0.03-0.7,0.1c-0.02,0-0.05,0-0.1,0.03c-0.1,0.03-0.2,0.05-0.33,0.07c-0.88,0.18-3.01,0.33-4.06-1.58
			c-1.38-2.46-2.36-7.52-2.03-8.65c0.33-1.15,0.33-1.15,0.33-1.15l-0.08-0.2c0.9-0.25,1.88-0.53,2.46-0.75
			c1.3-0.5,3.39-0.6,4.59-0.7c1.18-0.1,2.98,0,3.29,0.7c0.3,0.7,0.4,0.8-0.2,1.3c-0.6,0.5-1.81,1.2-1.1,1.2s1.51-0.2,1.71,0.3
			c0.2,0.48,0.3,1.58,0.3,1.58l-1.2,1L1904.91,477.33z"/>
		<path class="st32" d="M1953.68,458.9c0,0,12.87,1.9,18.9,2.4c6.03,0.5,7.16,1.16,7.41-0.55s0.63-19.31,0.63-19.31
			s-1.01,13.7-1.63,15.33c-0.63,1.63-0.25,2.89-3.77,2.89S1953.68,458.9,1953.68,458.9z"/>
		<path class="st32" d="M1945.57,478.27c0,0,32.37,12.53,41.75,14.35C1987.32,492.63,1967.02,489.34,1945.57,478.27z"/>
		<path class="st33" d="M2010.27,676.69h-11.76c-0.23-2.03-0.4-3.51-0.4-3.51s-10.31-37.29-11.94-39.9
			c-1.63-2.61-14.72-39.73-14.72-39.73l-10.31-35.36l-2.93-5.37c0,0-0.98,3.44-0.98,4.24c0,0.83-2.78,22.57-3.59,27.64
			c-0.83,5.07-2.38,9.15-0.95,14.72c1.43,5.57,1.75,13.89,2.08,23.88c0.33,9.98-1.08,24.53-2.08,27.81
			c-1.03,3.26-4.62,22.4-4.62,22.4l-0.33,4.04c-3.56-0.38-10.81-1.25-13.17-1.98c-0.25-0.1-0.45-0.18-0.58-0.25l-0.5-47.28
			l-1.78-102.7l-0.28-7.17c0,0,9.48,5.59,16.75,6.6c7.27,1,16.33,2.41,24.63-0.35c8.3-2.78,14.97-7.1,14.97-7.1
			c0.07,3.16,0.12,5.39,0.18,5.57c0.15,0.65,0.48,44.32,1.15,62.8c1.45,5.89,3.91,9.83,5.07,11.46c1.13,1.63,8,17.66,9.96,31.07
			c1.98,13.39,4.59,30.9,5.24,39.73C2009.75,672.83,2009.97,675.16,2010.27,676.69z"/>
		<path class="st34" d="M1947.5,680.55l-0.4,4.89v5.57l-31.9,0.33c0,0,1.96-2.96,3.94-3.61c1.96-0.65,12.92-5.72,12.92-5.72
			l2.86-2.96c-0.12,0.2-0.28,0.93,3.91,1.38C1941.98,680.78,1945.44,680.68,1947.5,680.55z"/>
		<path class="st34" d="M2018.22,691.99c0,0-18.31,0.8-18.48,0c-0.15-0.83-0.48-2.96-0.65-7.52c-0.05-1.6-0.18-3.46-0.35-5.19
			c2.33,0.23,5.57,0.45,8.1,0.45h4.52c1.15,2.46,6.72,7.02,6.87,8.98C2018.4,690.69,2018.22,691.99,2018.22,691.99z"/>
	</g>
</g>
</svg>
